<svg width="109" height="67" viewBox="0 0 109 67" fill="none" xmlns="http://www.w3.org/2000/svg">
<path fill-rule="evenodd" clip-rule="evenodd" d="M31.5002 56.5244L31.2889 55.7684H33.8548L36.783 62.632V56.5541L36.4207 55.7684H39.4394L39.1376 56.5541V65.8192L39.3489 66.5752H36.783L33.8397 59.8747V65.8044L34.202 66.59H31.1833L31.4851 65.8044V56.5393L31.5002 56.5244ZM54.5179 9.96182C53.718 12.8674 56.948 16.1138 60.6459 10.5251L59.7252 9.85809C59.9214 9.54678 60.1629 9.26511 60.4497 9.0131C60.7214 8.77592 61.0383 8.56837 61.3855 8.40531C61.7326 8.25706 62.0798 8.13848 62.4571 8.09401C62.8344 8.03472 63.1967 8.04954 63.5741 8.09401C63.2722 8.31637 62.9703 8.55355 62.6986 8.82038C62.4269 9.07239 62.1704 9.35405 61.9289 9.65053C61.6874 9.94701 61.461 10.2435 61.2648 10.5696C61.0685 10.8809 60.8874 11.2219 60.7214 11.5629C58.6234 15.4913 63.0307 18.4561 65.9135 14.0978L64.3438 12.9415C65.8833 10.5103 68.2983 9.22062 71.9811 9.45781C66.9097 13.1045 63.8608 19.3159 63.6646 29.1295C62.0798 28.7292 60.4799 28.4327 58.8649 28.2252C57.2499 28.0176 55.6197 27.9287 53.9896 27.9287C52.3595 27.9287 50.7294 28.0325 49.1144 28.2252C47.4994 28.4327 45.8995 28.7292 44.3147 29.1295C44.1034 19.3159 41.0544 13.1045 35.9981 9.45781C39.6809 9.22062 42.0959 10.5103 43.6354 12.9415L42.0657 14.0978C44.9486 18.4709 49.3559 15.4913 47.2579 11.5629H47.2881C47.1221 11.2071 46.9409 10.8809 46.7447 10.5696C46.5485 10.2583 46.3221 9.94703 46.0806 9.66537C45.8391 9.36889 45.5825 9.10202 45.3108 8.85001C45.0392 8.598 44.7373 8.34601 44.4354 8.12364C44.8127 8.06435 45.175 8.06435 45.5523 8.12364C45.9297 8.18294 46.2768 8.2867 46.624 8.43494C46.9711 8.58318 47.273 8.79072 47.5598 9.04273C47.8315 9.27992 48.073 9.57641 48.2692 9.88772L47.3485 10.5548C51.0162 16.1287 54.2311 12.9118 53.4463 10.0063C53.1595 9.97665 52.8878 9.90257 52.6463 9.76915C52.4048 9.63573 52.1784 9.47266 51.9973 9.25029C51.8162 9.04276 51.6803 8.79073 51.5898 8.53872C51.4992 8.27188 51.469 8.00507 51.4841 7.72341L52.7972 0V7.0563C52.7972 7.35279 52.918 7.63446 53.1293 7.85682C53.3406 8.06436 53.6425 8.18295 53.9444 8.18295C54.2462 8.18295 54.533 8.06436 54.7594 7.85682C54.9707 7.64928 55.0915 7.35279 55.0915 7.0563V0L56.4046 7.72341C56.4197 7.99024 56.4046 8.25708 56.3141 8.50909C56.2386 8.7611 56.1028 8.99829 55.9367 9.20582C55.7707 9.41336 55.5594 9.59126 55.3179 9.72468C55.0764 9.85809 54.8198 9.94701 54.5632 9.97666L54.5179 9.96182ZM45.8542 21.243H45.175L45.7184 21.6285L45.5071 22.2659L46.0504 21.8804L46.5938 22.2659L46.3825 21.6285L46.9259 21.243H46.2466L46.0354 20.6204L45.824 21.243H45.8542ZM61.9892 20.6204L61.7779 21.243H61.0987L61.6421 21.6285L61.4308 22.2659L61.9741 21.8804L62.5175 22.2659L62.3062 21.6285L62.8496 21.243H62.1703L61.959 20.6204H61.9892ZM53.9444 24.5784L53.718 25.1566C54.4576 25.1566 55.2122 25.1566 55.9518 25.2159L55.6952 24.6081V20.146C56.0575 21.0207 56.4197 21.8953 56.782 22.7699C57.1442 23.6445 57.5065 24.534 57.8687 25.4382C58.5026 25.542 59.1365 25.6754 59.7705 25.8237C59.7101 25.631 59.6648 25.4234 59.6045 25.2307V18.3671L59.8308 17.8631C59.0913 17.6556 58.3366 17.4629 57.597 17.3146L57.8536 17.9521V22.5031C57.4913 21.584 57.1291 20.6797 56.7669 19.7754C56.4046 18.8712 56.0424 17.9817 55.6801 17.0774C55.0462 17.0478 54.4122 17.033 53.7783 17.033C53.8387 17.2257 53.884 17.4036 53.9444 17.5963V24.5933V24.5784ZM48.1032 17.878L48.2239 18.3968V25.29C48.1786 25.4827 48.1484 25.6754 48.1032 25.8681L48.3748 25.8088C48.9182 25.7051 49.4616 25.6013 50.0049 25.5124C50.7143 25.4086 51.4087 25.3345 52.1181 25.2603C52.5105 24.8749 52.9029 24.4895 53.2954 24.1189V21.5543C53.069 21.3764 52.8274 21.1986 52.601 21.0207C52.8274 20.8131 53.069 20.5907 53.2954 20.3832V18.1596C52.9029 17.8186 52.5105 17.4777 52.1181 17.1367C51.4087 17.2109 50.6992 17.3146 50.0049 17.4332C49.854 17.4629 49.688 17.4925 49.537 17.5221C49.3861 17.5518 49.2201 17.5814 49.0691 17.6259C48.9182 17.6556 48.7522 17.7001 48.6012 17.7297C48.4503 17.7742 48.2843 17.8038 48.1333 17.8483L48.1032 17.878ZM49.9899 19.0046C50.3823 18.9304 50.7898 18.8711 51.1822 18.8118L51.5747 19.1528V20.0274C51.0464 20.398 50.5181 20.7983 49.9899 21.1837V22.8737C50.4125 22.5624 50.82 22.2511 51.2426 21.9398L51.5747 22.3252V23.4222C51.4388 23.5704 51.303 23.7186 51.1822 23.8669C50.7898 23.9113 50.3823 23.9707 49.9899 24.03V19.0046ZM0.226394 60.6456C2.59608 60.1119 4.96576 59.6227 7.33545 59.1631C9.72023 58.7036 12.105 58.2737 14.4898 57.8883C16.8746 57.5029 19.2745 57.1471 21.6894 56.8358C24.0893 56.5245 26.5042 56.2428 28.9192 55.9908V57.8587C26.5193 58.0514 24.1195 58.2737 21.7196 58.5257C19.3197 58.7777 16.9198 59.0594 14.5351 59.3707C12.1503 59.682 9.7504 60.023 7.36562 60.3936C4.98084 60.7642 2.61118 61.1644 0.226394 61.5943V60.6308V60.6456ZM79.5732 56.1094C81.9731 56.3614 84.373 56.6431 86.7578 56.9544C89.1576 57.2657 91.5424 57.6215 93.9272 57.9921C96.312 58.3627 98.6817 58.7777 101.066 59.2225C103.436 59.6672 105.806 60.1415 108.16 60.6456V61.6092C98.6364 60.0082 89.1123 58.8074 79.5883 58.0069V56.1094H79.5732ZM15.6218 32.9392C17.9462 33.2357 20.2857 33.5471 22.6252 33.8139C22.4592 34.229 22.3083 34.6589 22.1573 35.0888C22.2781 35.7707 22.4139 36.4377 22.5347 37.1197C22.6554 37.8016 22.7913 38.4686 22.912 39.1506C23.0328 39.8325 23.1686 40.4996 23.3044 41.1815C23.4403 41.8634 23.561 42.5305 23.6969 43.2124C24.21 45.8659 24.7383 48.4898 25.2515 51.084C25.3119 51.1878 25.3572 51.2915 25.4175 51.3953C25.4779 51.4991 25.5232 51.6028 25.5836 51.7066C25.6439 51.8104 25.6892 51.9142 25.7496 52.0179C25.81 52.1217 25.8703 52.2255 25.9156 52.3292C24.1648 52.4923 22.429 52.6702 20.6933 52.8333C20.7989 52.3589 20.9196 51.8993 21.0404 51.4249C20.9045 50.5503 20.7687 49.6757 20.648 48.8011C19.6669 48.8604 18.6858 48.9345 17.7047 48.9938C17.5689 49.9277 17.4632 50.8617 17.3425 51.7808C17.4632 52.2403 17.584 52.7147 17.7047 53.1742C15.9388 53.3818 14.1728 53.5893 12.4069 53.8413C12.6484 53.3076 12.8748 52.7591 13.1163 52.2255C13.5993 49.1569 14.0823 46.1476 14.5653 43.1679C15.0483 40.2327 15.5463 37.3124 16.0444 34.4365C15.8935 33.9325 15.7576 33.4284 15.6218 32.9392ZM19.1386 39.1209C18.9877 40.1141 18.8518 41.1222 18.716 42.1302C18.5802 43.1383 18.4443 44.1611 18.3084 45.1692L20.014 45.1395C19.8631 44.1463 19.7121 43.1531 19.5763 42.1451C19.4405 41.137 19.2896 40.129 19.1386 39.1209ZM0.618795 30.597C1.84137 30.8194 3.09417 31.0269 4.33184 31.2493C5.93176 31.531 7.54674 31.7978 9.16176 32.0498C10.0523 33.1765 10.9428 34.2734 11.8635 35.3556V38.2908C11.8635 39.2692 11.8635 40.2476 11.8635 41.226C11.3352 41.73 10.807 42.2488 10.2787 42.7825C10.4146 42.9159 10.5353 43.0493 10.6711 43.1679C10.807 43.3013 10.9428 43.4199 11.0636 43.5533C11.1994 43.6867 11.3352 43.8054 11.4711 43.9388C11.6069 44.0722 11.7428 44.1908 11.8786 44.3242V46.029C11.8786 47.7189 11.8786 49.4089 11.8786 51.0988C10.9881 52.1513 10.0825 53.2187 9.19197 54.3157C7.57696 54.538 5.96193 54.79 4.36201 55.0569C3.12434 55.2644 1.88668 55.472 0.649012 55.6795L0.0603411 55.7832C0.135809 55.1903 0.22639 54.5825 0.316952 53.9747L0.286735 43.1383C0.286735 39.5212 0.286735 35.9189 0.286735 32.3018C0.18108 31.7088 0.0905614 31.1159 0 30.5229L0.588625 30.6267L0.618795 30.597ZM4.33184 43.2272C4.33184 44.4428 4.33184 45.6584 4.33184 46.874C4.33184 45.3471 4.33184 43.8202 4.33184 42.2785C5.53933 41.4039 6.74679 40.544 7.93918 39.7287V37.2975C7.63731 36.9121 7.33543 36.5119 7.03356 36.1116L4.31674 35.8151C4.31674 38.2759 4.31674 40.7516 4.31674 43.2272H4.33184ZM4.34691 50.6393C5.25252 50.5355 6.15816 50.4465 7.06377 50.3576L7.9694 49.1717C7.9694 48.1636 7.9694 47.1556 7.9694 46.1328C7.90902 46.0438 7.83355 45.94 7.77317 45.8511C7.7128 45.7621 7.63732 45.6584 7.57695 45.5694C7.51658 45.4805 7.45619 45.3767 7.38073 45.2878C7.32035 45.184 7.25999 45.095 7.19961 44.9913C6.23362 45.7177 5.2978 46.4737 4.34691 47.2446C4.34691 48.3712 4.34691 49.4978 4.34691 50.6245V50.6393ZM4.34691 47.2594C4.34691 47.1408 4.34691 47.0074 4.34691 46.874V47.2594ZM27.4854 35.5631C27.3646 35.1332 27.2438 34.7033 27.1231 34.2734C30.1267 34.5255 33.1454 34.7626 36.1642 34.9702C37.0547 35.7855 37.9301 36.586 38.8206 37.3717C38.8206 38.3797 38.8206 39.4026 38.8206 40.4106C38.8206 41.4187 38.8206 42.4416 38.8206 43.4496C38.1263 44.1167 37.4169 44.7986 36.7226 45.4805C37.1603 46.2958 37.6131 47.0963 38.0357 47.8968C38.4735 48.6973 38.9263 49.483 39.3791 50.2687C39.7413 50.6393 40.1187 51.0099 40.496 51.3805L34.7605 51.677L35.0623 50.4614C34.685 49.6905 34.3227 48.9197 33.9454 48.1488C33.5832 47.378 33.2058 46.5923 32.8436 45.8066C32.3757 45.8066 31.9229 45.8214 31.455 45.8363C31.455 46.6368 31.455 47.4521 31.455 48.2526C31.455 49.0531 31.455 49.8536 31.4851 50.6541C31.6814 51.0544 31.8776 51.4546 32.0738 51.8549C30.3531 51.9883 28.6626 52.1069 26.9571 52.2403C27.1231 51.7956 27.3042 51.3509 27.4702 50.9061C27.4702 48.3564 27.4702 45.7918 27.4551 43.242C27.4551 40.6775 27.4551 38.1277 27.4551 35.5631H27.4854ZM31.47 37.7868C31.47 38.5724 31.47 39.373 31.47 40.1586C31.47 40.9443 31.47 41.7448 31.47 42.5305C32.3455 42.5305 33.2209 42.5305 34.0963 42.5601C34.4133 42.2933 34.7152 42.0116 35.0321 41.73C35.0321 40.7516 35.0321 39.788 35.0321 38.8096C34.7001 38.5131 34.368 38.2018 34.0511 37.8905C33.1907 37.8609 32.3304 37.8312 31.47 37.7868ZM42.2166 35.2963C43.4392 35.3408 44.6769 35.3704 45.9146 35.4149C47.5145 35.4594 49.1295 35.489 50.7445 35.5038C51.6351 36.2154 52.5255 36.927 53.4463 37.6534V39.788C53.4463 40.4996 53.4463 41.2112 53.4463 41.9227L51.8614 43.0642C52.3897 43.4348 52.918 43.8054 53.4463 44.176V45.4063C53.4463 46.6367 53.4463 47.8672 53.4463 49.0976C52.5406 49.7943 51.6502 50.4762 50.7445 51.173C49.1295 51.173 47.5296 51.1878 45.9146 51.2323C44.6769 51.2619 43.4392 51.3064 42.2318 51.336C42.0204 51.336 41.8242 51.336 41.628 51.3508C41.7186 50.9654 41.794 50.5948 41.8997 50.2094C41.8997 47.9117 41.8846 45.5991 41.8846 43.3013C41.8846 41.0036 41.8846 38.691 41.8846 36.3933C41.779 36.0227 41.6884 35.6521 41.6129 35.2815C41.8091 35.2815 42.0053 35.2815 42.2166 35.2963ZM45.9146 38.4538C45.9146 40.0993 45.9146 41.7448 45.9146 43.3754V42.7529C47.1221 42.1451 48.3296 41.5669 49.522 40.9591V39.2692C49.2201 39.0172 48.9182 38.7651 48.6163 38.4983C47.7107 38.4835 46.8051 38.4686 45.8995 38.4538H45.9146ZM45.9297 48.2971C46.8353 48.2971 47.7409 48.2674 48.6465 48.2674C48.9484 48.0154 49.2503 47.7634 49.5521 47.4966C49.5521 46.7998 49.5521 46.1031 49.5521 45.3916C49.2955 45.1247 49.0389 44.8579 48.7823 44.5762C47.8164 45.0506 46.8806 45.5398 45.9297 46.029C45.9297 46.785 45.9297 47.5262 45.9297 48.2674V48.2971ZM45.9297 46.0586C45.9297 45.1692 45.9297 44.2797 45.9297 43.3903V46.0734V46.0586ZM54.8953 35.5335C58.3517 35.4742 61.8232 35.4297 65.2796 35.2963C65.5362 36.4526 65.7928 37.6089 66.0494 38.7652C65.2343 38.6021 64.4344 38.4538 63.6495 38.2908C62.2307 38.3204 60.7968 38.3353 59.3931 38.3501V41.5966C60.6006 41.5966 61.8081 41.5966 63.0156 41.5966L64.5099 41.2111C64.5099 42.4564 64.5099 43.7016 64.5099 44.9468L62.8948 44.5317C61.7326 44.5317 60.5704 44.5169 59.4082 44.5169V48.223C61.4911 48.2526 63.574 48.2971 65.672 48.3564L67.0003 48.0599C66.789 49.1865 66.5776 50.2983 66.3663 51.4101C62.5326 51.2767 58.6988 51.2026 54.8802 51.1433C55.0462 50.7727 55.2122 50.4021 55.3933 50.0315C55.3933 47.793 55.3782 45.5546 55.3782 43.3161V36.6156C55.2122 36.2599 55.0613 35.8892 54.9103 35.5335H54.8953ZM68.5247 37.6237C69.4304 36.749 70.336 35.8596 71.2567 34.9553C73.249 34.8368 75.2564 34.7033 77.2639 34.5254C77.4903 34.733 77.7318 34.9405 77.9582 35.1332C78.1846 35.3408 78.4261 35.5483 78.6525 35.741C78.8789 35.9486 79.1204 36.1561 79.3468 36.3637C79.5732 36.5712 79.8147 36.7787 80.0411 36.9862V43.4348C80.0411 45.5843 80.0411 47.7486 80.0411 49.8981C80.4939 50.4465 80.9618 50.9951 81.4146 51.5584C80.5694 52.2848 79.7393 52.9963 78.894 53.693L77.1432 52.1069C75.1357 51.9438 73.1283 51.8104 71.1208 51.6918C70.2454 50.8024 69.3851 49.9277 68.5247 49.0531C68.5247 47.1408 68.5247 45.2285 68.5247 43.331C68.5247 41.4335 68.5247 39.5212 68.5247 37.6089V37.6237ZM72.5547 38.8541C72.5547 40.3365 72.5547 41.8041 72.5547 43.2865C72.5547 44.7689 72.5547 46.2513 72.5547 47.7189C72.8566 48.0006 73.1585 48.2822 73.4754 48.5787C73.6113 48.5787 73.7471 48.5787 73.8829 48.5787C74.0188 48.5787 74.1546 48.5787 74.2905 48.5936C74.4263 48.5936 74.5622 48.5935 74.698 48.6084C74.8339 48.6084 74.9697 48.6084 75.1055 48.6232C75.4527 48.3564 75.7998 48.0895 76.147 47.8227C76.147 46.3106 76.147 44.7838 76.147 43.2569V38.7058C75.8602 38.4538 75.5583 38.2018 75.2866 37.935C74.6678 37.9647 74.0641 37.9795 73.4452 38.0091C73.1584 38.2908 72.8717 38.5576 72.6 38.8393L72.5547 38.8541ZM81.8523 34.1845L86.6521 33.6657C86.4861 34.1252 86.3351 34.5996 86.1842 35.0591V48.2971L86.954 49.4237C87.5879 49.4682 88.2218 49.5126 88.8558 49.5719C89.1426 49.2161 89.4444 48.8604 89.7463 48.5046C89.7312 46.2068 89.701 43.9091 89.6859 41.6114C89.6859 39.3136 89.6557 37.0159 89.6406 34.7182C89.5048 34.2586 89.3689 33.7991 89.2482 33.3395C90.8481 33.1468 92.4631 32.9393 94.0781 32.7466L93.731 34.2586V42.5157C93.731 45.273 93.731 48.0154 93.731 50.7727C92.8253 51.7066 91.9198 52.6257 91.0141 53.5004C88.9765 53.2483 86.9389 53.0111 84.9163 52.8184C84.0258 51.7955 83.1202 50.8023 82.2297 49.824V35.4297C82.1089 35.0147 81.9731 34.5996 81.8372 34.1845H81.8523ZM95.7686 32.5094C99.225 31.9905 102.681 31.4272 106.153 30.8194C106.41 32.5686 106.666 34.3476 106.923 36.1265C106.123 35.9338 105.323 35.7559 104.523 35.5631C103.104 35.7262 101.67 35.8744 100.251 36.0227V40.7516C101.459 40.7071 102.666 40.6478 103.889 40.6033C104.387 40.3958 104.885 40.1734 105.383 39.9511V45.688L103.768 45.0357C102.591 45.0061 101.429 44.9913 100.267 44.9616V50.3724C102.349 50.5652 104.432 50.7727 106.53 50.9951L107.859 50.6245C107.647 52.3589 107.436 54.0933 107.24 55.8129C103.391 55.2051 99.5571 54.627 95.7384 54.0933C95.9045 53.6041 96.0705 53.1001 96.2516 52.6109V33.9473C96.0856 33.4581 95.9346 32.9837 95.7837 32.4945L95.7686 32.5094ZM107.859 25.4086V26.3722C104.417 27.0837 100.976 27.736 97.5044 28.329C94.0479 28.9219 90.5764 29.4408 87.0898 29.9151C83.6032 30.3747 80.1166 30.7749 76.63 31.1159C73.1283 31.4569 69.6266 31.7237 66.1249 31.946V29.9596C69.6266 29.7817 73.1132 29.5445 76.5998 29.2629C80.0864 28.9812 83.573 28.6551 87.0596 28.2696C90.5462 27.8842 94.0178 27.4691 97.4742 26.9799C100.946 26.5056 104.402 25.9719 107.859 25.4086ZM44.2694 30.093C45.8391 29.678 47.4541 29.3666 49.0691 29.1591C50.6841 28.9516 52.3143 28.8478 53.9444 28.8478C55.5745 28.8478 57.2045 28.9516 58.8196 29.1591C60.4346 29.3666 62.0345 29.678 63.6193 30.093V32.035C62.0345 31.6496 60.4346 31.3679 58.8196 31.1752C57.2045 30.9825 55.5745 30.8935 53.9444 30.8935C52.3143 30.8935 50.6841 30.9973 49.0691 31.1752C47.4541 31.3679 45.8542 31.6496 44.2694 32.035V30.093ZM0.0301705 25.4086C3.4866 25.9867 6.94303 26.5056 10.4145 26.9799C13.8861 27.4543 17.3576 27.8842 20.8291 28.2549C24.3157 28.6403 27.7872 28.9664 31.2889 29.248C34.7755 29.5297 38.2772 29.7521 41.7639 29.9448V31.9312C38.2621 31.7237 34.7605 31.442 31.2587 31.1011C27.757 30.7601 24.2704 30.3599 20.7989 29.9003C17.3123 29.4408 13.8408 28.9071 10.3843 28.3141C6.92791 27.7211 3.4715 27.0689 0.0301705 26.3574V25.3938V25.4086ZM69.219 56.5689L69.0077 55.8129H71.5736L74.5169 62.6765V56.5986L74.1546 55.8129H77.1733L76.8715 56.5986V65.8637L77.0828 66.6197H74.5169L71.5736 59.9192V65.8488L71.9359 66.6345H68.9172L69.219 65.8488V56.5838V56.5689ZM61.1742 57.4584L62.7892 55.8129H66.3362L67.9814 57.4287V64.9891L66.2607 66.6345H62.6986L61.1591 64.9891V57.4584H61.1742ZM63.5438 58.3478V64.0255L64.0721 64.5443H65.023L65.6419 64.0107V58.3478L65.1287 57.8438H64.042L63.5288 58.3478H63.5438ZM59.7554 56.5689V65.8192L60.0572 66.59H57.0838L57.3706 65.8192V56.5689L57.0838 55.7981H60.0572L59.7554 56.5689ZM48.8729 57.7697L47.4541 58.1403L47.9371 55.7832H55.8311L56.3141 58.1403L54.8953 57.7697H53.0689V65.8192L53.3708 66.59H50.3974L50.6842 65.8192V57.7697H48.8578H48.8729ZM46.1863 55.7981L45.9146 56.5838L47.7107 65.834L48.1032 66.6049H45.009L45.2052 65.834L44.9788 64.3516H43.243L43.0166 65.834L43.243 66.6049H40.1187L40.5413 65.834L42.2921 56.5838L42.111 55.7981H46.1863ZM44.1184 58.9705L43.6204 62.2762H44.6316L44.1336 58.9705H44.1184Z" fill="#EFEFEF"/>
</svg>
