<svg width="115" height="64" viewBox="0 0 115 64" fill="none" xmlns="http://www.w3.org/2000/svg">
<path d="M31.9333 12.2752L29.9864 14.001V13.8397L31.9333 12.0333L31.5043 9.30753L30.3494 8.98496L30.5144 8.82367L31.5208 9.06561L31.3558 7.98497L31.5208 7.74305L31.7683 9.14624L33.7812 9.72687L32.0983 7.17853L35.464 8.6624L34.3586 7.17853H34.6886L35.53 8.42045L36.289 7.75917L36.454 7.92046L35.53 8.6624L36.454 10.3075L35.4475 8.82367L34.3586 9.72687L36.5529 10.3882L36.6354 10.5495L39.0773 11.2914L39.2422 11.6139L38.4833 13.0978L39.9187 15.4042L40.0012 15.9042L38.4833 13.5171L37.3779 16.7429L39.7372 17.5654L39.2257 20.3718L37.2129 16.7429L36.355 19.2912L36.1075 19.1299L36.8664 16.6622L32.7417 15.5816L32.9892 17.1461L32.7417 16.9848L32.4942 15.4203L30.1349 14.3397L30.0524 14.1784L32.4117 15.1623L31.9003 12.2752H31.9333ZM32.5272 17.13L34.1276 18.4525L39.4402 20.9202L40.1992 16.388L39.7702 11.6946L38.1698 8.5656L35.728 6.92049L31.8508 6.83984L29.9039 9.06561L29.0625 11.7107L30.1679 15.0816L32.5272 17.1461V17.13Z" fill="white"/>
<path d="M14.9206 28.9211H14.8381L14.7556 27.3566L11.9673 27.5985L12.4788 28.5824L12.2313 28.5017L11.8023 27.6792L10.2844 27.7598L10.1194 27.5985L11.7198 27.5179L10.6144 26.1147L10.0205 27.4373L9.85547 27.3566L10.5319 26.0341L9.5255 24.7115L8.84904 24.7922V24.6309L9.36051 24.5502L9.03053 24.0502L9.11303 23.8083L9.62449 24.4696L10.8949 24.2276L9.29451 23.4051L11.5713 23.3244L10.8124 22.8245H10.8949L11.6538 23.2438L11.8188 22.6632H11.9838L11.8188 23.2438L12.9242 23.9857L14.3596 23.7438L14.5246 23.9051L14.6071 25.0502L15.8775 25.7921L16.125 26.1147L14.7721 25.3567L14.8546 27.2599L16.3725 27.1792L16.455 28.5824L14.8546 27.4373L14.9371 28.9211H14.9206ZM15.0031 24.0018L13.2377 22.5825L11.3899 22.3406L9.11303 23.3244L8.60156 24.8889L8.84904 26.6147L10.4494 28.1792L13.6502 29.0824H17.2634L16.422 26.1954L15.0031 24.0018ZM18.4513 19.1471V18.9858L19.2103 19.6471L18.7813 17.6794L20.2992 18.76L20.2167 17.2762L19.2928 16.9536L19.4578 16.873L20.2992 17.1955L20.3817 16.4536L20.5467 16.373L20.4642 17.2762L22.312 17.9375L23.9124 16.8568L24.0774 17.0181L22.477 18.002L24.6714 18.9052L24.2424 17.0988L24.9188 17.3407L26.2717 19.6471L25.0013 19.1471L25.2488 22.2761L26.3542 19.889L26.4367 20.0503L26.1893 20.9535L27.1132 22.2761L25.2653 22.518L27.5422 24.5825L25.2653 24.4212L24.9354 22.518L22.576 22.8406L23.7474 24.1631L23.4175 24.0825L22.246 22.8406L20.7282 23.0019L20.6457 22.9212L20.5632 21.1954L19.2928 20.0019L18.5338 20.5019V20.3406L19.2103 19.8406L18.4678 19.1149L18.4513 19.1471ZM21.0581 23.5825L24.0774 24.5663L27.8721 24.8083L27.3607 22.1632L26.8492 20.518L24.9024 17.1471L22.543 15.8246L20.3487 15.9052L18.5833 17.0504L17.9069 19.8568L18.8308 21.9212L21.0251 23.5825H21.0581ZM31.7658 9.30859L32.0958 11.6956L33.7787 9.88923L31.7493 9.30859H31.7658ZM38.2664 13.244L36.831 10.7118L34.1252 9.96988L36.996 16.3891L38.2664 13.2279V13.244Z" fill="white"/>
<path d="M12.3759 26.6909L14.6528 25.2877L11.3695 24.3845L12.3759 26.6909ZM77.1171 13.4331L75.5992 15.8201L75.6817 15.3201L77.1171 13.0138L76.2757 11.6105L76.4407 11.288L78.8825 10.5461L79.9879 8.64286L79.064 7.90096L79.2124 7.73966L79.9714 8.40094L80.8128 7.15903H81.1428L80.2189 8.5461L83.5846 7.06226L81.9018 9.6106L83.9146 9.02996L84.1621 7.62675L84.3271 7.86869L84.1621 8.94931L85.1685 8.70739L85.3335 8.86867L84.1621 9.19123L83.7331 11.917L85.68 13.7234V13.8847L83.7826 12.1428L83.2711 15.0298L85.6305 14.046L85.548 14.2073L83.1062 15.3524L82.9412 16.9169L82.6937 17.0782L82.9412 15.5137L78.8165 16.5943L79.5754 19.062L79.3279 19.2233L78.4865 16.675L76.3747 20.3039L75.8632 17.4169L78.2225 16.5943L77.1171 13.4008V13.4331ZM81.5058 18.5459L83.1062 17.2233L85.4655 15.1427L86.5709 11.7718L85.8945 9.04608L83.8816 6.82031L80.0044 6.90096L77.5626 8.5461L75.9457 11.6912L75.4342 16.4653L76.1932 20.9975L81.5058 18.5459ZM11.881 27.5296L14.6693 27.2876L11.0395 26.5457L11.881 27.5296ZM9.70312 24.6425L10.5446 25.8845L11.1385 24.4006L9.70312 24.6425ZM11.716 23.4006L11.386 24.3039L12.7389 24.0619L11.7325 23.4006H11.716ZM14.4218 23.9813L13.1514 24.1426L14.4878 24.9974L14.4218 23.9813ZM20.5758 21.0297L20.4933 19.3039L19.4869 19.9652C19.3219 19.9652 20.5923 21.0458 20.5923 21.0458L20.5758 21.0297ZM22.1762 18.0782L20.4933 17.4169L20.5758 19.062L22.1762 18.0782ZM20.7408 21.2071L22.4237 22.7716L25.0305 22.449L20.6418 19.2394L20.7243 21.2233L20.7408 21.2071Z" fill="white"/>
<path d="M106.62 23.4056L104.343 22.4217L102.495 22.7443L101.224 23.7282L102.577 23.9701L103.683 23.2282L103.435 22.6475H103.6L103.848 23.2282L104.607 22.8088L104.772 22.8895L104.013 23.3894L106.29 23.4701L104.689 24.2927L105.96 24.5346L106.389 23.8733L106.471 24.1152L106.141 24.6152L106.653 24.6959L106.735 24.8572L106.059 24.7765L105.052 26.0991L105.729 27.4216L105.564 27.5023L104.97 26.1797L103.864 27.5023L105.465 27.5829L105.3 27.7442L103.782 27.6636L103.353 28.4861L103.105 28.5668L103.699 27.6636L100.894 27.4378L100.812 28.9216H100.647L100.729 27.4378L99.1291 28.5829L99.2116 27.1797L100.729 27.2604L100.812 25.3572L99.459 26.0991V26.0184L99.294 26.341L98.3701 29.1313H102.082L105.283 28.2281L106.883 26.6636L107.131 24.9378L106.636 23.3733L106.62 23.4056ZM90.4342 24.3894L88.1574 24.5507L90.4342 22.4862L88.5863 22.2443L89.5103 20.9218L89.2628 20.0186L89.3453 19.8573L90.4507 22.2443L90.6982 19.1154L89.4278 19.6153L90.7807 17.3089L91.4571 17.067L90.9457 18.9702L93.14 18.067L91.5396 17.0831L91.7046 16.9218L93.305 18.0025L95.2519 17.2605L95.1694 16.3573L95.3343 16.438L95.4168 17.1799L96.2583 16.8573L96.4233 16.938L95.4993 17.2605L95.4168 18.7444L96.9347 17.6638L96.5058 19.6315L97.2647 18.9702V19.1315L96.5058 19.8734L97.1822 20.3734V20.5347L96.4233 20.0347L95.1529 21.1798L95.0704 22.9056L94.9054 23.0669L93.3875 22.9056L92.1171 24.1475L91.7871 24.2281L92.9585 22.9056L90.5992 22.583L90.4342 24.4056V24.3894ZM94.4599 23.5669L96.6542 21.9217L97.5782 19.8573L96.9017 17.0509L95.0539 15.9703L92.8595 15.8896L90.5002 17.2122L88.5534 20.5831L88.0419 22.2282L87.6129 24.7765L91.4076 24.5346L94.4269 23.5507L94.4599 23.5669ZM80.1225 8.79297L79.0171 10.3575L81.2114 9.72844L80.1225 8.79297ZM83.8347 9.29298L81.8219 9.87361L83.5047 11.68L83.8347 9.29298ZM81.4754 9.95424L78.8026 10.7123L77.3672 13.2606L78.6376 16.3896L81.4919 9.93812L81.4754 9.95424Z" fill="white"/>
<path d="M104.597 26.5317L100.967 27.2737L103.755 27.5156L104.597 26.5317ZM18.5391 36.4186C18.5391 36.4186 40.5484 32.2897 58.4166 32.2897C76.2848 32.2897 98.2941 36.4186 98.2941 36.4186L58.4991 27.3543L18.5391 36.4186ZM105.95 24.6285L104.514 24.3866L105.108 25.8705L105.95 24.6447V24.6285ZM104.267 24.3866L100.983 25.2898L103.26 26.7737L104.267 24.3866ZM101.247 23.9673L101.165 24.9511L102.518 24.1286L101.247 23.9673ZM49.7382 13.6449C51.1406 14.6771 52.7575 15.4029 54.4569 15.79C55.2323 15.9997 56.0243 16.1448 56.8162 16.2094C57.5092 16.3061 58.2186 16.3545 58.9281 16.3707C59.6705 16.4029 60.3965 16.3545 61.1224 16.2094C62.8053 15.8868 64.4881 15.4674 66.1545 15.0642C66.666 13.3384 67.0785 11.6933 67.5899 10.145C67.2599 10.4675 67.0785 10.9675 66.666 11.2256C65.841 12.5159 64.6861 13.5804 63.3002 14.2739C61.9143 14.8868 60.4294 15.2094 58.9116 15.2578C58.3176 15.2578 57.7236 15.1932 57.1462 15.0965C55.1663 14.8545 53.467 13.6449 52.609 11.8869C52.1966 11.0804 51.9161 10.2256 51.7676 9.33854C51.5696 8.56436 51.5366 7.74178 51.6851 6.95147C51.8501 5.9031 52.2296 4.90312 52.7905 3.99991C53.4175 2.79026 54.5064 1.83867 55.8098 1.35481C57.5422 0.741915 59.423 0.645152 61.2049 1.11288C62.1618 1.33869 63.0692 1.69352 63.9107 2.19351C65.0161 2.85478 65.94 3.75799 66.6165 4.83861C66.864 5.25796 67.1279 5.74182 67.4579 6.32245V5.99988L66.1875 1.56449C66.105 1.48384 66.0225 1.32257 65.8575 1.32257C64.6861 0.999992 63.5807 0.661293 62.4093 0.419362C61.3864 0.161303 60.347 0.0161287 59.291 0C58.5816 0 57.8886 4.92089e-06 57.1792 0.0806485L55.4138 0.322569C53.6814 0.629015 52.0316 1.24192 50.5302 2.129C49.4083 2.77415 48.5173 3.72575 47.9234 4.85476C47.1479 6.35473 46.917 8.06436 47.2469 9.70949C47.5604 11.3062 48.4513 12.7417 49.7712 13.7417V13.6933L49.7382 13.6449ZM103.937 23.4512L102.93 24.0318L104.283 24.2737L103.937 23.4512ZM99.647 25.7576L99.482 25.9995L99.7295 25.7576H99.647ZM94.9284 21.1447L95.0109 19.177L90.6222 22.3867L93.229 22.7092L94.9119 21.1286L94.9284 21.1447ZM95.0934 20.9835C95.0934 20.9835 96.3638 19.9996 96.1988 19.9028L95.1924 19.2416L95.1099 20.9673L95.0934 20.9835ZM95.1759 17.3545L93.493 18.0158L95.0934 18.9996L95.1759 17.3545ZM101.165 23.7092L101 23.8705V23.9834L101.247 23.7415L101.165 23.7092ZM101 23.9511L100.752 24.1124L99.746 25.7576L100.917 25.0156L101 23.9511Z" fill="white"/>
<path d="M65.5166 62.1952C65.5166 63.0016 66.3416 63.2274 67.0675 63.2274C67.7935 63.2274 68.3709 62.9371 68.3709 62.421C68.3709 61.9855 68.041 61.8565 67.447 61.7114L66.3911 61.5178C65.8136 61.421 64.9392 61.2275 64.9392 60.292C64.9392 59.3566 65.6651 58.8727 66.886 58.8727C67.8595 58.8727 68.8659 59.1953 68.8989 60.3565H68.1729C68.1235 60.034 67.876 59.4533 66.7211 59.4533C66.1931 59.4533 65.5496 59.6953 65.5496 60.2114C65.5496 60.5017 65.7476 60.7275 66.3251 60.8727L67.5295 61.0662C67.8595 61.1146 68.9814 61.3081 68.9814 62.2436C68.9814 63.421 67.9255 63.7597 66.9025 63.7597C65.8796 63.7597 64.6752 63.4371 64.6752 62.0984H65.4506V62.1952H65.5001H65.5166ZM61.9859 59.1146H62.7118V63.8081H61.9859V59.1146ZM55.4029 63.8081H56.1288V61.8404H57.9602C58.5377 61.8404 58.8841 62.0823 58.9336 62.9855C58.9336 63.292 58.9666 63.5823 59.0326 63.8887H59.8081C59.6101 63.6952 59.6101 63.4533 59.5606 62.6146C59.6101 62.1468 59.2966 61.7275 58.8346 61.6307C59.3626 61.4694 59.6926 60.9855 59.6596 60.4533C59.6926 59.8081 59.1811 59.2437 58.5212 59.2114C58.4717 59.2114 58.4057 59.2114 58.3562 59.2114H55.3369L55.3864 63.8565L55.4194 63.8242L55.4029 63.8081ZM56.1288 61.163V59.6791H58.1417C58.7191 59.6791 58.9666 59.9694 58.9666 60.4372C58.9666 60.7598 58.7686 61.1952 58.0427 61.1952H56.0628L56.1288 61.163ZM52.9776 63.8081H53.753L51.5752 59.1146H50.7502L48.5724 63.8081H49.3478L49.9253 62.4371H52.2516L52.9941 63.8081H52.9776ZM52.0536 61.8404H50.2223L51.1462 59.8082L52.0701 61.8404H52.0536ZM43.8702 63.8081H44.5962V61.921H46.3946C47.1535 62.0178 47.8465 61.4856 47.9454 60.7275C47.9454 60.6307 47.9454 60.534 47.9454 60.4372C47.9454 59.534 47.4175 59.0663 46.3451 59.0663H43.8208V63.7597H43.8702V63.8081ZM44.5962 61.292V59.7275H46.4276C46.8235 59.6791 47.1865 59.9533 47.236 60.3404C47.236 60.3888 47.236 60.4372 47.236 60.4856C47.236 60.9856 46.9885 61.292 46.2626 61.292H44.5632H44.5962ZM99.9001 44.7278H113.363L114.089 48.9374C114.089 48.9374 112.687 45.4859 111.334 45.2439H108.083V54.2438C108.133 55.0502 108.859 55.6792 109.684 55.6308C109.717 55.6308 109.75 55.6308 109.766 55.6308H103.464C103.464 55.6308 105.163 55.1953 105.163 54.405V45.3084H102.061C102.061 45.3084 100.461 45.3085 99.2566 48.9535L99.8836 44.7439L99.9001 44.7278ZM96.7983 44.7278L97.7223 48.3245C97.7223 48.3245 96.4683 45.4375 94.142 45.2923H90.2813V49.7277H93.3006C94.3895 49.5826 95.1814 48.631 95.099 47.5503V52.3728C95.099 52.3728 94.5875 50.2438 93.3006 50.2438H90.2813V55.0663H94.439C94.439 55.0663 97.7717 55.0179 98.4647 52.1148L97.6893 55.5663H85.5957C85.5957 55.5663 87.295 55.2437 87.295 54.2921V46.0988C87.295 46.0988 87.0475 44.6794 85.7441 44.6794H96.8313L96.7983 44.7278ZM65.5661 44.7278H70.0208L74.822 52.5341L79.6561 44.7278H83.7313C83.7313 44.7278 82.1804 45.0181 82.1804 46.002V54.2438C82.1804 54.2438 82.1804 55.6147 83.8798 55.6147H77.7752C77.7752 55.6147 79.2931 55.3244 79.2931 54.2438V46.6149L73.5845 55.9373L68.008 46.6149V54.1954C68.0575 54.9857 68.7504 55.5986 69.5588 55.5663H65.4836C65.4836 55.5663 67.282 55.3728 67.282 54.1954V45.9536C67.282 45.9536 67.2325 45.002 65.5826 44.7278M55.4194 44.7278H49.2983C49.2983 44.7278 50.8987 45.2439 50.8987 46.1471V51.7438C50.8987 51.7438 50.8492 55.9534 57.1023 55.9534C63.3553 55.9534 63.0583 52.2116 63.0583 52.2116V46.1633C63.1408 45.3246 63.8833 44.6956 64.7577 44.7439H60.732C60.732 44.7439 62.3324 44.8407 62.4314 46.1149V52.2277C62.4314 52.2277 62.4809 55.2599 58.0757 55.2599C53.6705 55.2599 53.8685 52.2761 53.8685 52.2761V46.1633C53.8685 46.1633 53.819 44.7439 55.4194 44.7439M38.0462 51.5825H43.3258L40.6695 46.3729L38.0627 51.5825H38.0462ZM33.641 55.5179C34.6639 55.276 35.5384 54.647 36.0663 53.7599C36.8418 52.3406 40.7685 44.7117 40.7685 44.7117H43.0948L48.0279 54.0663C48.0279 54.0663 49.0344 55.5502 50.2058 55.5502H42.9793C42.9793 55.5502 44.9922 54.8889 44.6787 54.0663C44.3652 53.2438 43.7548 52.1309 43.7548 52.1309H37.9142L36.9078 53.9212C36.9078 53.9212 36.2313 55.5824 38.8546 55.5824H33.7565V55.5018H33.6575L33.641 55.5179ZM16.4493 44.7278H22.5538C22.5538 44.7278 20.9534 45.0504 20.9534 46.002V49.6471H28.5099V46.1955C28.5099 46.1955 28.3119 44.6794 26.959 44.6794H32.9646C32.9646 44.6794 31.4137 45.2439 31.4137 46.1955V54.2276C31.5292 54.9696 32.1891 55.5179 32.9646 55.5018H26.959C26.959 55.5018 28.5099 55.0663 28.5099 54.276V50.1632H20.9039V54.2276C20.9369 55.0179 21.6134 55.6308 22.4218 55.5986C22.4218 55.5986 22.4383 55.5986 22.4548 55.5986H16.4493C16.4493 55.5986 18.0002 55.405 18.0002 54.3728V46.1471C17.9672 45.3407 17.2742 44.7117 16.4493 44.7278ZM13.9745 44.7278L14.5024 49.3729C14.5024 49.3729 13.0505 45.0181 8.24939 45.0181C3.44824 45.0181 3.21726 49.8406 3.21726 50.2277C3.21726 50.6148 3.46474 55.2921 8.29888 55.2921C11.0872 55.3082 13.6115 53.6631 14.6344 51.1309L13.859 56.0018C13.859 56.0018 13.76 54.8244 12.935 55.0179C11.4007 55.5018 9.80027 55.776 8.18339 55.8244C6.00555 55.8244 0 55.0179 0 50.1955C0 45.373 5.95606 44.4375 8.18339 44.4375C9.70128 44.4859 11.2027 44.7439 12.6381 45.2439C13.067 45.4859 13.6115 45.3407 13.859 44.9214C13.892 44.8569 13.925 44.7923 13.9415 44.7278" fill="white"/>
</svg>
