<svg width="140" height="31" viewBox="0 0 140 31" fill="none" xmlns="http://www.w3.org/2000/svg">
<path d="M134.363 14.8205C134.363 13.7147 135.302 12.9393 136.623 12.9393C137.827 12.9393 138.517 13.485 138.517 14.4328C138.517 15.2801 137.768 15.754 136.623 16.2423L134.363 17.1901V14.8349V14.8205ZM136.403 21.5846C137.695 21.5846 138.825 21.0963 139.412 20.091C139.603 19.7894 139.559 19.4161 139.28 19.2437C139.001 19.057 138.634 19.1145 138.443 19.3873C137.944 20.091 137.313 20.4357 136.403 20.4357C135.067 20.4357 134.363 19.7607 134.363 18.5544V18.3964L137.019 17.2906C139.06 16.4433 139.823 15.8833 139.823 14.3179C139.823 12.7526 138.575 11.7904 136.608 11.7904C134.642 11.7904 133.1 13.0541 133.1 14.8205V18.5544C133.1 20.3926 134.377 21.5846 136.403 21.5846ZM131.06 11.8765C129.211 11.8765 127.904 13.1978 127.904 15.1939V20.8665C127.904 21.2112 128.169 21.484 128.535 21.484C128.902 21.484 129.167 21.2112 129.167 20.8665V15.1939C129.167 13.9732 129.812 13.0685 131.075 13.0685C131.28 13.0685 131.588 13.1403 131.765 13.1403C132.102 13.1403 132.352 12.9249 132.352 12.5659C132.352 12.293 132.19 12.0632 131.838 11.9627C131.574 11.8909 131.324 11.8765 131.06 11.8765ZM120.448 18.9565C120.448 18.1092 121.196 17.6353 122.341 17.147L124.602 16.1992V18.5544C124.602 19.6602 123.662 20.4357 122.341 20.4357C121.138 20.4357 120.448 19.89 120.448 18.9422V18.9565ZM122.562 11.7904C121.27 11.7904 120.14 12.2786 119.553 13.2839C119.362 13.5855 119.406 13.9589 119.685 14.1312C119.964 14.3179 120.33 14.2605 120.521 13.9876C121.02 13.2839 121.651 12.9393 122.562 12.9393C123.897 12.9393 124.602 13.6142 124.602 14.8205V14.9785L121.945 16.0843C119.905 16.9316 119.142 17.4917 119.142 19.057C119.142 20.6224 120.389 21.5846 122.356 21.5846C124.323 21.5846 125.864 20.3208 125.864 18.5544V14.8205C125.864 12.9823 124.587 11.7904 122.562 11.7904ZM111.127 17.3194V13.1547C111.127 11.417 112.448 10.0671 114.136 10.0671C115.413 10.0671 116.367 10.6128 116.896 11.6324C117.043 11.9196 117.395 12.0489 117.718 11.9053C118.011 11.7617 118.129 11.417 117.982 11.1298C117.277 9.69367 115.912 8.90381 114.151 8.90381C111.729 8.90381 109.836 10.7564 109.836 13.169V17.3337C109.836 19.7464 111.729 21.5989 114.151 21.5989C115.912 21.5989 117.277 20.7947 117.982 19.373C118.129 19.0858 118.011 18.7411 117.718 18.5975C117.41 18.4539 117.057 18.5831 116.896 18.8703C116.353 19.89 115.413 20.4357 114.136 20.4357C112.448 20.4357 111.127 19.1001 111.127 17.3481V17.3194ZM100.926 20.967C100.926 21.2255 101.19 21.484 101.557 21.484C101.924 21.484 102.188 21.2112 102.188 20.8665V15.2083C102.188 13.9876 103.187 13.0111 104.434 13.0111C105.682 13.0111 106.68 13.9876 106.68 15.2083V20.8665C106.68 21.2112 106.944 21.484 107.311 21.484C107.678 21.484 107.942 21.2112 107.942 20.8665V15.2083C107.942 13.3701 106.46 11.8765 104.61 11.8765C103.671 11.8765 102.805 12.2786 102.203 12.9105V9.59314C102.203 9.24848 101.939 8.97562 101.572 8.97562C101.205 8.97562 100.941 9.24848 100.941 9.67931V20.967H100.926ZM96.8163 11.9627V9.59314C96.8163 9.24848 96.552 8.97562 96.1851 8.97562C95.8181 8.97562 95.5539 9.24848 95.5539 9.59314V11.9627H94.0127C93.6752 11.9627 93.4403 12.1925 93.4403 12.5371C93.4403 12.8674 93.6752 13.0972 94.0127 13.0972H95.5539V18.1523C95.5539 19.0714 95.8622 19.9331 96.4493 20.5506C97.0805 21.2255 97.8731 21.4697 98.8565 21.4697C99.2675 21.4697 99.517 21.1681 99.5023 20.8378C99.4877 20.5075 99.2088 20.2921 98.8712 20.2921C97.4768 20.2921 96.8163 19.3873 96.8163 18.1523V13.0972H98.9299C99.2675 13.0972 99.5023 12.8674 99.5023 12.5228C99.5023 12.1781 99.2675 11.9627 98.9299 11.9627H96.8163ZM93.8513 21.0101C93.866 20.6798 93.6164 20.4357 93.2788 20.3926C92.5156 20.3208 92.0899 19.8613 92.0899 19.014V9.57878C92.0899 9.23412 91.8257 8.96126 91.4588 8.96126C91.0918 8.96126 90.8276 9.23412 90.8276 9.57878V19.014C90.8276 19.7033 91.0331 20.3064 91.4001 20.7373C91.8257 21.2686 92.4422 21.5702 93.2055 21.5702C93.5724 21.5702 93.8366 21.3117 93.8513 21.0101ZM83.2538 18.9422C83.2538 18.0949 84.0023 17.6209 85.1472 17.1327L87.4076 16.1848V18.54C87.4076 19.6458 86.4683 20.4213 85.1472 20.4213C83.9436 20.4213 83.2538 19.8756 83.2538 18.9278V18.9422ZM85.3674 11.776C84.0757 11.776 82.9455 12.2643 82.3584 13.2696C82.1676 13.5711 82.2116 13.9445 82.4905 14.1169C82.7694 14.3035 83.1363 14.2461 83.3271 13.9732C83.8262 13.2696 84.4574 12.9249 85.3674 12.9249C86.7031 12.9249 87.4076 13.5999 87.4076 14.8062V14.9642L84.7509 16.07C82.7107 16.9172 81.9474 17.4773 81.9474 19.0427C81.9474 20.608 83.195 21.5702 85.1619 21.5702C87.1288 21.5702 88.67 20.3064 88.67 18.54V14.8062C88.67 12.968 87.393 11.776 85.3674 11.776ZM75.2102 14.8062C75.2102 13.7004 76.1496 12.9249 77.4706 12.9249C78.6742 12.9249 79.3641 13.4706 79.3641 14.4184C79.3641 15.2657 78.6302 15.7396 77.4706 16.2279L75.2102 17.1757V14.8205V14.8062ZM77.2505 21.5702C78.5421 21.5702 79.6723 21.0819 80.2594 20.0767C80.4503 19.7751 80.4062 19.4017 80.1273 19.2294C79.8485 19.0427 79.4815 19.1001 79.2907 19.373C78.7916 20.0767 78.1605 20.4213 77.2505 20.4213C75.9147 20.4213 75.2102 19.7464 75.2102 18.54V18.3821L77.8669 17.2763C79.9072 16.429 80.6704 15.8689 80.6704 14.3035C80.6704 12.7382 79.4228 11.776 77.4559 11.776C75.4891 11.776 73.9479 13.0398 73.9479 14.8062V18.54C73.9479 20.3782 75.2249 21.5702 77.2505 21.5702ZM71.7315 20.8234V9.62186C71.7315 9.23412 71.4673 8.96126 71.071 8.96126C70.6747 8.96126 70.3958 9.23412 70.3958 9.62186V14.4615H64.5393V9.62186C64.5393 9.23412 64.2751 8.96126 63.8788 8.96126C63.4825 8.96126 63.2036 9.23412 63.2036 9.62186V20.8234C63.2036 21.1825 63.4825 21.4697 63.8788 21.4697C64.2751 21.4697 64.5393 21.1968 64.5393 20.8234V15.596H70.3958V20.8234C70.3958 21.2112 70.66 21.4697 71.071 21.4697C71.482 21.4697 71.7315 21.1968 71.7315 20.8234ZM57.6406 21.3835C57.9782 21.3835 58.213 21.1537 58.213 20.8234C58.213 20.4788 57.9782 20.249 57.6406 20.249H52.195V15.6104H57.1856C57.5232 15.6104 57.758 15.3806 57.758 15.0503C57.758 14.7057 57.5232 14.4759 57.1856 14.4759H52.195V10.2107H57.6406C57.9782 10.2107 58.213 9.98089 58.213 9.63622C58.213 9.30592 57.9782 9.07615 57.6406 9.07615H51.5492C51.1529 9.07615 50.9034 9.34901 50.9034 9.70803V20.766C50.9034 21.125 51.1676 21.3979 51.5492 21.3979H57.6406V21.3835ZM48.5843 17.305V15.3519C48.5843 14.9929 48.3201 14.72 47.9384 14.72H44.4304C44.0928 14.72 43.8579 14.9498 43.8579 15.2801C43.8579 15.6248 44.0928 15.8545 44.4304 15.8545H47.2779V17.305C47.2779 19.014 45.9422 20.3926 44.3276 20.3926C42.7131 20.3926 41.392 19.0283 41.392 17.305V13.1403C41.392 11.4026 42.6543 10.0527 44.2836 10.0527C45.5312 10.0527 46.4119 10.5984 46.955 11.618C47.1018 11.9053 47.4541 12.0345 47.777 11.8909C48.0705 11.7473 48.188 11.4026 48.0412 11.1154C47.3366 9.67931 46.0156 8.88945 44.2983 8.88945C41.9204 8.88945 40.0857 10.742 40.0857 13.1547V17.3194C40.0857 19.7176 41.9351 21.5846 44.3276 21.5846C46.7202 21.5846 48.5696 19.6458 48.5696 17.3194L48.5843 17.305ZM19.0521 11.259C19.0521 9.5357 20.241 7.85546 20.9015 8.1714C21.6501 8.53043 20.3438 10.1676 19.0521 11.259ZM10.9058 11.8909C10.9058 10.4979 12.3149 7.85546 13.1662 8.12832C14.179 8.45862 12.3296 11.1298 10.9058 11.8909ZM9.48201 21.8431C8.83618 21.8718 8.41052 21.4697 8.41052 20.7947C8.41052 18.9852 10.9792 17.2476 12.9167 16.3284C12.5791 18.856 11.6984 21.7569 9.48201 21.8574V21.8431ZM21.3272 15.9407C19.8594 15.9407 18.7438 16.9891 18.7438 18.2528C18.7438 19.3012 19.3897 20.1485 20.2557 20.1485C20.5639 20.1485 20.8575 19.9761 20.8575 19.6028C20.8575 19.057 20.1089 18.9278 20.1676 18.0949C20.197 17.5491 20.7254 17.1901 21.2391 17.1901C22.2666 17.1901 22.7509 18.1667 22.7509 19.1863C22.7069 20.7516 21.5327 21.8287 20.1529 21.8287C18.3475 21.8287 17.188 20.1485 17.188 18.3246C17.188 15.6248 18.9934 14.5764 19.9475 14.3179C19.9475 14.3179 22.428 14.7487 22.3546 13.686C22.3253 13.2265 21.6061 13.0398 21.0923 13.0254C20.5199 12.9967 19.9475 13.1978 19.9475 13.1978C19.6392 13.0541 19.4337 12.7526 19.3163 12.4223C21.0776 11.1154 22.3253 9.85164 22.3253 8.41554C22.3253 7.65441 21.8116 6.97944 20.8134 6.97944C19.0521 6.97944 17.7164 9.17667 17.7164 11.1585C17.7164 11.4888 17.7164 11.8335 17.8045 12.135C16.6889 12.9393 15.8523 13.4275 14.3404 14.3179C14.3404 14.1312 14.3845 13.6573 14.5019 13.0398C15.0156 12.4941 15.7348 11.6755 15.7348 11.0436C15.7348 10.742 15.5587 10.4979 15.2211 10.4979C14.3551 10.4979 13.7093 11.7617 13.5478 12.652C13.1662 13.1116 12.3883 13.7004 11.7424 13.7004C11.2287 13.7004 11.0526 13.2408 11.0085 13.0685C12.6525 12.5228 14.678 10.3256 14.678 8.34374C14.678 7.92727 14.5019 6.9938 13.2102 6.9938C11.2727 6.9938 9.62878 9.82292 9.62878 12.0058C8.93891 12.0058 8.67472 11.2877 8.67472 10.742C8.67472 10.1963 8.89488 9.65059 8.89488 9.47826C8.89488 9.30592 8.80683 9.10487 8.54262 9.10487C7.89679 9.10487 7.51516 9.95217 7.51516 10.9144C7.5592 12.2643 8.46924 13.1116 9.67283 13.1978C9.84897 14.002 10.5829 14.7631 11.4782 14.7631C12.036 14.7631 12.7259 14.5908 13.1956 14.1743C13.1515 14.4759 13.1075 14.72 13.0635 14.9785C11.17 15.9551 9.79025 16.63 8.54262 17.7215C7.55919 18.6118 6.98675 19.7894 6.98675 20.7229C6.98675 21.9867 7.80872 23.1643 9.48201 23.1643C11.4635 23.1643 12.9754 21.5989 13.7093 19.4591C14.0616 18.4539 14.1937 16.9747 14.2817 15.6248C16.2633 14.5333 17.2026 13.8871 18.2301 13.1834C18.3622 13.3988 18.4943 13.5568 18.6558 13.686C17.7457 14.1456 15.6027 15.4524 15.6027 18.54C15.6027 20.7373 17.1146 23.1786 20.0795 23.1786C22.5308 23.1786 24.2187 21.1968 24.2187 19.3012C24.2187 17.5779 23.2206 15.9694 21.3272 15.9694V15.9407ZM28.7396 19.5597C28.7396 19.5597 28.7102 19.5884 28.6662 19.574C28.6368 19.574 28.6221 19.5453 28.6221 19.5166C28.6221 19.4879 29.1506 17.9943 29.1359 16.271C29.1359 14.4184 28.358 13.2839 27.3745 13.2839C26.7727 13.2839 26.3471 13.7004 26.3471 14.3323C26.3471 15.4668 27.7708 15.553 27.7708 18.0374C27.7708 19.0427 27.5507 20.0192 27.2131 21.0676C25.6132 26.3381 20.5346 28.7794 15.5734 28.7794C13.2836 28.7794 11.669 28.3199 11.1847 28.1045C11.17 28.1045 11.1553 28.0614 11.17 28.0183C11.17 27.9896 11.214 27.9609 11.2287 27.9752C11.4195 28.047 12.8139 28.4778 14.5459 28.4778C16.4394 28.4778 17.5696 27.7167 17.5696 26.7832C17.5696 26.1944 17.0999 25.7349 16.4981 25.7349C15.3385 25.7349 15.2505 27.171 12.7552 27.171C11.6837 27.171 10.7296 26.9556 9.61411 26.6253C4.27131 25.0168 1.71734 20.091 1.73202 15.1939C1.73202 12.81 2.42189 10.9144 2.42189 10.9C2.42189 10.9 2.46593 10.8713 2.49528 10.9C2.53932 10.9 2.53931 10.9431 2.53931 10.9574C2.4806 11.1585 2.02557 12.5084 2.02557 14.203C2.02557 16.0556 2.80351 17.1614 3.78693 17.1614C4.3447 17.1614 4.81439 16.7449 4.81439 16.1561C4.81439 15.0216 3.39062 14.8923 3.39062 12.451C3.39062 11.4026 3.6108 10.4692 3.94839 9.37773C5.59233 4.15033 10.6269 1.6946 15.5881 1.66587C17.8925 1.65151 19.9034 2.32648 19.9768 2.38392C19.9768 2.38392 20.0061 2.42701 19.9768 2.45573C19.9621 2.49881 19.9328 2.49881 19.9181 2.49881C19.8887 2.49881 18.5824 1.95309 16.6008 1.95309C14.7514 1.95309 13.5919 2.71423 13.5919 3.67641C13.5919 4.22213 14.0175 4.68168 14.6634 4.68168C15.8229 4.68168 15.911 3.28867 18.4063 3.28867C19.4778 3.28867 20.4318 3.50408 21.5474 3.83438C26.9342 5.44282 29.3854 10.4117 29.4294 15.2227C29.4588 17.6784 28.7396 19.5453 28.7396 19.5597ZM15.5587 0.71805C7.36838 0.71805 0.733901 7.20922 0.733901 15.2227C0.733901 23.2361 7.36838 29.7273 15.5587 29.7273C23.7491 29.7273 30.3835 23.2361 30.3835 15.2227C30.3835 7.20922 23.7491 0.71805 15.5587 0.71805ZM15.5587 30.4453C6.98675 30.4453 0 23.6526 0 15.2227C0 6.79275 6.97207 0 15.5587 0C24.1454 0 31.1174 6.83583 31.1174 15.2227C31.1174 23.6095 24.1307 30.4453 15.5587 30.4453Z" fill="#EFEFEF"/>
</svg>
