<svg width="126" height="20" viewBox="0 0 126 20" fill="none" xmlns="http://www.w3.org/2000/svg">
<path d="M22.6287 0L21.1219 18.9268H14.9766L15.658 10.5458H6.83972L6.15838 18.9268H0L1.51994 0H6.06665C6.56456 0 7.58658 0.0506391 7.57347 1.21536L7.12798 6.62121H15.9462L16.4835 0.0126579H22.6287V0Z" fill="#EFEFEF"/>
<path d="M100.851 10.7402C103.59 11.9303 106.381 13.0823 105.975 15.6523C105.503 18.4755 101.231 19.0072 97.7198 19.0072C97.4446 19.0072 97.1695 18.9946 96.8813 18.9946C92.0594 18.8553 89.6484 18.4882 89.6484 18.4882L89.845 15.4244C89.845 15.4244 93.1731 16.0195 96.3309 16.1207C98.126 16.1714 99.4363 16.0701 99.4625 15.4751C99.5018 14.9434 98.5977 14.6648 96.6978 13.9305L95.0337 13.2849C93.029 12.4746 89.7533 11.3099 89.9105 8.66396C90.0677 6.06865 93.3304 5.25841 95.2434 4.99254C96.3702 4.84062 97.5495 4.78998 99.2004 4.80264C102.817 4.85328 105.87 5.47363 105.87 5.47363L105.582 8.3348C105.582 8.3348 102.358 7.66382 99.1087 7.66382C97.0515 7.67648 96.3441 7.90436 96.2392 8.23352C96.0427 8.8412 97.1826 9.27165 98.6895 9.86667L100.838 10.7276" fill="#EFEFEF"/>
<path d="M30.1846 0C31.1542 0 31.4949 0.392461 31.4162 1.21536C31.4031 1.55719 31.2328 3.62078 31.2328 3.62078H25.2186L25.5068 0H30.1846ZM31.128 5.1653L30.0142 18.9268H24L25.0876 5.1653H31.128Z" fill="#EFEFEF"/>
<path d="M82.2929 9.87695C82.4239 7.90198 80.8647 7.91464 80.3275 7.90198C78.7551 7.83868 76.7503 8.10454 76.7503 8.10454L76.069 18.8909H70.4609L71.3389 5.59785C71.3389 5.59785 75.7808 5.09144 79.2792 4.9775C79.6854 4.96484 80.1047 4.96484 80.4847 4.96484C81.9522 4.96484 83.0135 5.05346 83.1577 5.06612C85.1755 5.25603 88.2285 5.57253 87.9534 9.73769L87.3506 18.9162H81.7295C81.7295 18.9162 82.1618 12.3203 82.319 9.87695" fill="#EFEFEF"/>
<path d="M125.334 13.1659C126.54 6.53207 120.46 5.24075 119.032 5.02553C118.508 4.96223 117.944 4.89893 117.328 4.89893C110.934 4.84829 107.75 8.74758 107.475 11.9632C107.226 14.8877 108.366 19.2174 117.761 19.2174C121.207 19.2174 123.421 18.711 124.378 18.4578C124.483 17.8502 124.679 16.5842 124.849 15.622C124.378 15.7106 121.574 16.293 118.508 16.293H118.219C113.961 16.1411 113.096 14.1281 113.096 13.1913V13.1406H125.347L125.334 13.1659ZM113.319 10.5326C113.594 9.07674 114.747 7.60818 117.21 7.58286C120.788 7.62084 120.565 10.5326 120.565 10.5326H113.332H113.319Z" fill="#EFEFEF"/>
<path d="M68.6208 13.1659C69.8394 6.53207 63.7465 5.24075 62.3183 5.02553C61.7942 4.96223 61.2308 4.89893 60.6149 4.89893C54.2207 4.84829 51.0105 8.74758 50.7484 11.9632C50.4995 14.8877 51.6394 19.2174 61.0342 19.2174C64.4933 19.2174 66.6946 18.711 67.6511 18.4578C67.756 17.8502 67.9526 16.5842 68.1229 15.622C67.6512 15.7106 64.8471 16.293 61.7811 16.293H61.4928C57.2344 16.1411 56.3695 14.1281 56.3695 13.1913V13.1406H68.647L68.6208 13.1659ZM56.5792 10.5326C56.8544 9.07674 58.0074 7.60818 60.4708 7.58286C64.0479 7.62084 63.8251 10.5326 63.8251 10.5326H56.5923H56.5792Z" fill="#EFEFEF"/>
<path d="M44.0518 10.7325L41.916 9.88432C40.4092 9.31461 39.2692 8.88417 39.4658 8.27649C39.5706 7.93467 40.2781 7.70678 42.3353 7.70678C45.5717 7.70678 48.8081 8.37777 48.8081 8.37777L49.0964 5.51659C49.0964 5.51659 46.0565 4.87093 42.427 4.84561C40.776 4.83295 39.5968 4.88359 38.4699 5.03551C36.5307 5.30137 33.2943 6.11162 33.137 8.70693C32.9798 11.3782 36.2555 12.5303 38.2603 13.3279L39.9243 13.9735C41.8242 14.6951 42.7153 14.9737 42.6891 15.518C42.6497 16.1257 41.3394 16.2143 39.5574 16.1637C36.3996 16.0624 33.0715 15.4674 33.0715 15.4674L32.875 18.5311C32.875 18.5311 35.299 18.9109 40.1078 19.0375H40.9464C44.4579 19.0375 48.7426 18.5058 49.2012 15.6826C49.6336 13.0873 46.8034 11.9479 44.0648 10.7452" fill="#EFEFEF"/>
</svg>
