<svg width="125" height="25" viewBox="0 0 125 25" fill="none" xmlns="http://www.w3.org/2000/svg">
<mask id="mask0_13138_12173" style="mask-type:luminance" maskUnits="userSpaceOnUse" x="0" y="0" width="70" height="25">
<path d="M43.8662 0C34.5118 2.54189 24.9591 5.36874 15.6046 8.05365L14.8773 7.64842C17.9334 4.56911 20.215 1.03908 22.2009 1.03908L26.6065 1.03474L27.577 0.00650569H13.2627L12.2944 1.03474H15.3965C15.9486 1.03474 16.4667 1.32728 16.1403 1.70434C10.9756 7.67767 7.52299 11.3345 0 18.543H4.60274C4.60274 18.543 9.93937 12.5686 12.7873 9.85984C31.0427 21.1705 48.975 28.6954 68.9272 22.5119L69.3828 22.0308C50.3256 26.536 36.1833 20.6277 17.2871 9.04939C28.7458 4.77932 38.718 2.54297 49.3233 0.00216581H43.8662V0Z" fill="white"/>
</mask>
<g mask="url(#mask0_13138_12173)">
<path d="M69.3839 0H0V28.6943H69.3839V0Z" fill="#EFEFEF"/>
</g>
<mask id="mask1_13138_12173" style="mask-type:luminance" maskUnits="userSpaceOnUse" x="32" y="4" width="26" height="13">
<path d="M36.8315 13.7795C34.7843 13.6614 39.5666 4.054 50.4623 5.49072C44.2428 12.4013 39.3103 13.7871 37.1054 13.7871C37.009 13.7871 36.9191 13.786 36.8315 13.7795ZM51.8315 4.03125L51.2104 4.69327C39.3125 3.16878 30.9625 10.8833 32.1422 14.9681C32.7042 16.9151 37.1185 16.5847 44.4169 12.4533C42.8166 16.9487 45.6952 18.0788 56.8757 11.1813L57.442 10.3036C57.2174 10.4282 55.4813 11.4326 55.2556 11.5572C50.6189 14.1002 45.1618 16.4644 46.554 13.3938C47.3679 11.5941 50.5587 8.81056 54.8788 4.03125H51.8315Z" fill="white"/>
</mask>
<g mask="url(#mask1_13138_12173)">
<path d="M57.4482 3.16797H30.9688V18.078H57.4482V3.16797Z" fill="#EFEFEF"/>
</g>
<mask id="mask2_13138_12173" style="mask-type:luminance" maskUnits="userSpaceOnUse" x="49" y="4" width="24" height="13">
<path d="M60.9822 4.03125L49.5859 16.1155H52.6343C57.4364 10.9451 64.2485 4.03125 70.2785 7.10405L72.73 4.50474C69.5961 3.63685 68.5369 3.61627 60.7258 7.53529C61.7741 6.43012 62.9801 5.1375 64.0295 4.03125H60.9822Z" fill="white"/>
</mask>
<g mask="url(#mask2_13138_12173)">
<path d="M72.7311 3.62109H49.5859V16.1203H72.7311V3.62109Z" fill="#EFEFEF"/>
</g>
<mask id="mask3_13138_12173" style="mask-type:luminance" maskUnits="userSpaceOnUse" x="64" y="4" width="38" height="13">
<path d="M64.8203 16.1135H67.8687C72.5229 10.7567 83.7778 4.31638 83.5106 6.89619C83.332 8.62437 75.4596 16.1135 75.4596 16.1135H78.5781C87.7475 6.28185 96.552 4.8798 94.5716 7.20391L89.5614 12.4903C85.422 16.8969 89.8243 18.0974 100.982 11.2139L101.548 10.3374C101.325 10.462 99.5906 11.4653 99.3638 11.5888C94.8871 14.044 89.0345 16.7344 91.5166 13.6691L97.4776 7.34801C103.875 0.401696 88.3751 6.30677 86.1526 7.37401L86.2753 7.23749C92.5912 0.331271 77.8366 6.53972 76.0577 7.43144C77.118 6.31435 78.2035 5.14851 79.2649 4.03034L76.2472 4L64.8203 16.1135Z" fill="white"/>
</mask>
<g mask="url(#mask3_13138_12173)">
<path d="M103.875 0.335938H64.8203V18.101H103.875V0.335938Z" fill="#EFEFEF"/>
</g>
<mask id="mask4_13138_12173" style="mask-type:luminance" maskUnits="userSpaceOnUse" x="99" y="4" width="26" height="13">
<path d="M103.895 13.7795C101.846 13.6614 106.628 4.054 117.525 5.49072C111.305 12.4013 106.373 13.7871 104.17 13.7871C104.074 13.7871 103.981 13.786 103.895 13.7795ZM118.894 4.03125L118.273 4.6911C106.376 3.16879 98.025 10.8822 99.2047 14.9681C99.7699 16.9151 104.181 16.5847 111.481 12.4533C109.909 16.8642 112.672 18.0149 123.336 11.5431L124.504 10.3036C124.277 10.4293 122.544 11.4326 122.316 11.5572C117.679 14.1002 112.222 16.4644 113.614 13.3938C114.431 11.5941 117.621 8.81056 121.942 4.03125H118.894Z" fill="white"/>
</mask>
<g mask="url(#mask4_13138_12173)">
<path d="M124.504 3.16797H98.0234V18.0152H124.504V3.16797Z" fill="#EFEFEF"/>
</g>
</svg>
