<svg width="100" height="25" viewBox="0 0 100 25" fill="none" xmlns="http://www.w3.org/2000/svg">
<path d="M57.577 21.9325C57.577 22.1419 57.6301 22.2561 57.7539 22.2561C57.8424 22.2561 57.9309 22.199 57.9839 22.1419L88.8957 0.837688C89.4265 0.456916 90.0458 0.247501 90.6828 0.266539H97.4774C98.5214 0.266539 99.2291 1.00905 99.2291 2.11328V15.8972C99.2291 17.5536 98.8753 18.5245 97.4951 19.4194L89.2496 24.6931C89.2496 24.6931 89.0727 24.7882 88.9665 24.8073C88.8604 24.8073 88.7718 24.7311 88.7718 24.4265V8.35794C88.7718 8.16755 88.7188 8.03429 88.5949 8.03429C88.5064 8.03429 88.4179 8.07236 88.3649 8.14852L65.7693 23.7411C65.2562 24.1029 64.6546 24.3123 64.0353 24.2932H49.066C48.022 24.2932 47.3143 23.5507 47.3143 22.4465V2.58925C47.3143 2.43694 47.2612 2.30367 47.1374 2.30367C47.0489 2.30367 46.9604 2.36078 46.9074 2.41789L31.9912 11.9181C31.8496 12.0324 31.7965 12.0895 31.7965 12.1657C31.7965 12.2228 31.8319 12.2989 31.9204 12.4132L42.5723 23.7221C42.7138 23.8744 42.8023 23.9886 42.8023 24.1028C42.8023 24.2171 42.643 24.2932 42.4484 24.2932H32.8227C32.0619 24.2932 31.478 24.179 31.071 23.7411L24.6127 16.8872C24.6127 16.8872 24.5595 16.8301 24.5241 16.8111C24.4888 16.8111 24.4534 16.773 24.418 16.773C24.3472 16.773 24.2765 16.792 24.2234 16.8301L13.4299 23.7221C12.7753 24.1409 12.3329 24.2552 11.6782 24.2552H1.75171C0.690057 24.2552 0 23.5127 0 22.4084V8.89102C0 7.21562 0.353867 6.2637 1.75171 5.36888L10.0503 0.0761561C10.0503 0.0761561 10.1918 0 10.2626 0C10.3865 0 10.4573 0.133262 10.4573 0.43788V18.5436C10.4573 18.734 10.4927 18.8101 10.6342 18.8101C10.7227 18.8101 10.8112 18.753 10.882 18.6959L38.8918 0.799617C39.4227 0.418846 40.0774 0.228458 40.7321 0.247496H55.8076C56.8516 0.247496 57.5593 0.990004 57.5593 2.09424V21.9325H57.577Z" fill="#EFEFEF"/>
</svg>
