<svg width="117" height="24" viewBox="0 0 117 24" fill="none" xmlns="http://www.w3.org/2000/svg">
<path d="M5.12836 21.8912H0V0H4.78392L10.9456 9.75919L16.9159 0H22.006V21.8912H16.9159V9.22339L10.9456 18.6381L5.12836 9.22339V21.8912Z" fill="#EFEFEF"/>
<path d="M42.7695 1.51562C45.7332 3.59997 47.6718 7.04288 47.6719 10.9414C47.6719 17.3036 42.5145 22.4609 36.1523 22.4609C29.7902 22.4609 24.6328 17.3035 24.6328 10.9414C24.6329 7.09283 26.5213 3.68667 29.4209 1.59473L32.2783 6.55176C31.0636 7.62464 30.2969 9.19328 30.2969 10.9414C30.2969 14.1753 32.9185 16.7968 36.1523 16.7969C39.3863 16.7969 42.0078 14.1753 42.0078 10.9414C42.0078 9.24542 41.2861 7.71874 40.1338 6.64941L42.7695 1.51562Z" fill="#EFEFEF"/>
<circle cx="36.1642" cy="2.67978" r="2.64072" fill="#EFEFEF"/>
<path fill-rule="evenodd" clip-rule="evenodd" d="M94.5237 11.5585C94.5237 5.19629 89.3662 0.0387832 83.004 0.0387835C76.6419 0.0387838 71.4844 5.19629 71.4844 11.5585C71.4844 17.9206 76.6419 23.0781 83.004 23.0781C89.3662 23.0781 94.5237 17.9206 94.5237 11.5585ZM88.8596 11.5585C88.8596 8.32453 86.238 5.70294 83.004 5.70294C79.7701 5.70294 77.1485 8.32453 77.1485 11.5585C77.1485 14.7924 79.7701 17.414 83.004 17.414C86.238 17.414 88.8596 14.7924 88.8596 11.5585Z" fill="#EFEFEF"/>
<path d="M57.4873 0.0390625C63.6634 0.0589061 68.6639 5.07029 68.6641 11.251C68.6641 17.4318 63.6635 22.444 57.4873 22.4639H50.4453V16.9531H57.4863V16.9502C60.6178 16.9309 63.1504 14.387 63.1504 11.251C63.1502 8.11508 60.6177 5.57103 57.4863 5.55176V5.5459H50.4453V0.0351562H57.4873V0.0390625Z" fill="#EFEFEF"/>
<path d="M102.331 22.5005H97.2031V0.226562H102.102L111.708 13.2771V0.226562H116.798V22.5005H112.014L102.331 9.22033V22.5005Z" fill="#EFEFEF"/>
</svg>
