<svg width="124" height="23" viewBox="0 0 124 23" fill="none" xmlns="http://www.w3.org/2000/svg">
<path d="M17.32 7.51685V7.3494C17.32 5.22831 16.6538 3.42352 15.3215 2.21412C13.8179 0.818671 11.572 0.0930359 8.90743 0.0930359H0V22.2156H5.0818V15.0337H7.99384L12.3143 22.2156H18.0623L13.0756 14.0476C14.998 13.1545 17.32 11.3497 17.32 7.51685ZM12.2382 7.59127C12.2382 9.63794 10.8298 10.8473 8.4887 10.8473H5.0818V4.39103H8.4887C10.9059 4.39103 12.2382 5.45157 12.2382 7.57266V7.59127ZM88.5984 0L80.1097 22.197H85.1916L86.9426 17.4711H94.8412L96.5923 22.197H101.826L93.3377 0H88.5984ZM93.2615 13.3033H88.4271L90.8443 6.53073L93.2615 13.3033ZM116.558 10.9404L123.296 0.167462H117.719L113.722 7.18194L109.82 0.167462H103.996L110.658 11.0148L103.673 22.2714H109.249L113.494 14.8476L117.738 22.2714H123.486L116.577 10.9218L116.558 10.9404ZM27.712 17.9548V13.2289H36.7717V8.98673H27.712V4.40964H37.9517V0.0744259H22.7254V22.197H32.2038L34.5258 17.9548H27.712ZM70.9739 0.0744259L65.8921 7.25636L60.7342 0.0744259H60.6581L55.5001 9.71236V22.197H60.4106V8.48437L65.7399 15.257V15.3314H65.9873L71.3926 8.48437V22.197H76.3031V0.0744259H70.9739Z" fill="#EFEFEF"/>
<path d="M49.2862 0.09375L37.3906 22.2164H43.5383L55.4339 0.09375H49.2862Z" fill="#EFEFEF"/>
</svg>
