<svg width="164" height="36" viewBox="0 0 164 36" fill="none" xmlns="http://www.w3.org/2000/svg">
<path d="M14.9646 32.8099V35.4388L9.85865 32.7757V30.1469L14.9646 32.8099ZM24.4169 16.6439L19.1873 13.8956L16.6608 14.2711L21.9081 17.0195L24.4169 16.6439ZM15.583 32.5026L15.7067 32.4685C15.8657 32.4343 16.0247 32.4002 16.1837 32.349H16.2191C16.3604 32.3148 16.5017 32.2636 16.6431 32.2124L16.7491 32.1783C16.8904 32.1271 17.0494 32.0588 17.1908 31.9905L17.2615 31.9563C17.2615 31.9563 17.4558 31.871 17.5442 31.8368C17.5442 31.8368 17.7032 31.7515 17.7915 31.7174H17.8268C18.0035 31.6149 18.1802 31.5125 18.3392 31.4101C18.3922 31.3759 18.4629 31.3418 18.4982 31.2906L18.5336 31.2565C18.5866 31.2223 18.6572 31.1711 18.6926 31.137L18.7809 31.0687C18.8869 30.9833 18.9929 30.915 19.0812 30.8297C19.0812 30.8297 19.0813 30.7955 19.1166 30.7955C19.2226 30.7102 19.3286 30.6078 19.4169 30.5224L19.4876 30.4541C19.4876 30.4541 19.6289 30.3176 19.6996 30.2322L19.788 30.1298C19.788 30.1298 19.9116 29.9761 20 29.9079L20.053 29.8396C20.1413 29.7372 20.212 29.6347 20.3003 29.5323L20.3356 29.464C20.3356 29.464 20.4593 29.2762 20.53 29.1738L20.6007 29.0714C20.6537 28.969 20.7243 28.8836 20.7597 28.7812V28.7471C20.7597 28.7471 20.795 28.7129 20.795 28.6958C20.8304 28.6446 20.848 28.5763 20.8834 28.5422C20.8834 28.5422 20.9187 28.5081 20.9187 28.491C20.954 28.4227 20.9894 28.3715 21.0247 28.2862L21.06 28.2179C21.1307 28.0813 21.1837 27.9277 21.2544 27.774C21.2897 27.7057 21.3074 27.6204 21.3427 27.5521C21.3427 27.518 21.3427 27.5009 21.3781 27.4668C21.3781 27.4326 21.3781 27.4156 21.4134 27.3814C21.4134 27.3473 21.4134 27.3473 21.4487 27.3131L21.4841 27.1424V27.1083C21.4841 27.1083 21.5194 26.9717 21.5371 26.9034C21.5371 26.9034 21.5371 26.8522 21.5724 26.801V26.7669C21.5724 26.6986 21.6077 26.6132 21.6077 26.5449C21.6077 26.5108 21.6077 26.5108 21.6077 26.4767C21.6077 26.4767 21.6077 26.4425 21.6077 26.4254C21.6077 26.3401 21.6431 26.2547 21.6431 26.1694V26.1352C21.6431 26.0157 21.6784 25.9304 21.6784 25.8109C21.6784 25.5719 21.7138 25.3329 21.7138 25.0939L21.6254 17.4292L16.4664 14.7149L16.5547 22.226V22.7211C16.5547 22.8235 16.5194 22.8918 16.5194 22.9601C16.5194 22.9942 16.5194 23.0113 16.5194 23.0454V23.1479C16.5194 23.1479 16.4841 23.2674 16.4841 23.3186C16.4841 23.3527 16.4841 23.3869 16.4841 23.421V23.5405C16.4841 23.5405 16.4487 23.6429 16.4487 23.6771L16.4134 23.899C16.4134 23.899 16.4134 23.9843 16.3781 24.0185C16.3781 24.0526 16.3781 24.0868 16.3427 24.138L16.3074 24.2575C16.3074 24.2575 16.3074 24.3428 16.2721 24.377C16.2721 24.4111 16.2721 24.4452 16.2367 24.4794L16.2014 24.5989C16.2014 24.5989 16.166 24.6842 16.166 24.7184C16.166 24.7525 16.1307 24.7867 16.1307 24.8379L16.0954 24.9403C16.0954 24.9403 16.06 25.0257 16.06 25.0598C16.007 25.2134 15.9364 25.3671 15.8657 25.5207L15.8304 25.6231C15.7597 25.7597 15.689 25.9133 15.6183 26.067L15.583 26.1523C15.53 26.2547 15.4593 26.3572 15.4063 26.4425L15.3357 26.562C15.2827 26.6644 15.212 26.7669 15.1236 26.8522L15.0883 26.9205C15 27.04 14.9293 27.1424 14.841 27.2448L14.788 27.3302C14.788 27.3302 14.6643 27.4838 14.5759 27.5692L14.4876 27.6716C14.4876 27.6716 14.3463 27.8252 14.2756 27.8935L14.2049 27.9618C14.0989 28.0642 13.9929 28.1667 13.9046 28.252L13.8692 28.2862C13.7456 28.3886 13.6396 28.491 13.5336 28.5593L13.4452 28.6276C13.3215 28.73 13.1979 28.8153 13.0565 28.9007C12.8622 29.0202 12.6855 29.1226 12.4912 29.2421H12.4558C12.2968 29.3616 12.1025 29.447 11.9081 29.5323L11.8374 29.5665C11.6961 29.6347 11.5371 29.686 11.3781 29.7542L11.3074 29.7884C11.1484 29.8396 11.007 29.9079 10.848 29.942H10.795C10.636 29.9932 10.477 30.0444 10.3003 30.0786L10.1767 30.1127C10.1767 30.1127 10.106 30.1127 10.0707 30.1469L15.106 32.8099C15.106 32.8099 15.1413 32.8099 15.159 32.8099C15.2297 32.6904 15.371 32.6904 15.4947 32.6562M14.788 2.74838L9.54061 0C9.39927 0 9.24026 0.034143 9.09892 0.0682844C9.06358 0.0682844 9.01059 0.0682786 8.97526 0.10242C8.85158 0.10242 8.76324 0.136563 8.63956 0.170704C8.60423 0.170704 8.5689 0.170699 8.5159 0.20484C8.37456 0.238982 8.21554 0.273122 8.09186 0.324335C8.09186 0.324335 8.05653 0.324335 8.03886 0.324335C7.91519 0.358476 7.7915 0.392617 7.66783 0.443829C7.63249 0.443829 7.5795 0.477978 7.54417 0.477978C7.42049 0.512119 7.33214 0.563331 7.22613 0.597472C7.1908 0.597472 7.15546 0.631608 7.12013 0.631608C6.99645 0.68282 6.85511 0.7511 6.73143 0.802312C6.73143 0.802312 6.73145 0.802312 6.69612 0.802312C6.66078 0.836453 6.59011 0.836455 6.55477 0.870596C6.46643 0.904738 6.36042 0.955953 6.27208 1.00717C6.21908 1.04131 6.14841 1.05838 6.11308 1.09252C6.02474 1.12667 5.9364 1.17787 5.86573 1.22908C5.81273 1.26322 5.74204 1.29737 5.68904 1.33151C5.61837 1.36565 5.53002 1.43394 5.45935 1.46808C5.40635 1.50222 5.33569 1.53636 5.28269 1.58758C5.24735 1.62172 5.212 1.62171 5.159 1.65585C5.12366 1.65585 5.12368 1.69 5.08834 1.70707C4.92933 1.82657 4.77031 1.92899 4.6113 2.06555L4.57596 2.09969C4.38161 2.21918 4.22262 2.35576 4.04595 2.49232C4.04595 2.49232 4.01058 2.52646 3.99292 2.52646L3.92226 2.59474C3.79858 2.69717 3.69258 2.79959 3.56891 2.91909L3.44522 3.03858C3.30388 3.17515 3.14488 3.32879 3.02121 3.48242C3.02121 3.48242 2.98588 3.53363 2.96821 3.56777C2.84453 3.68727 2.75618 3.82383 2.65017 3.94333C2.61484 3.97747 2.57952 4.04576 2.52651 4.0799C2.42051 4.19939 2.31447 4.35302 2.22614 4.47252C2.22614 4.50666 2.1908 4.52373 2.17313 4.5408C2.17313 4.5408 2.17313 4.54081 2.17313 4.57495C2.04946 4.74566 1.9258 4.93343 1.80212 5.12121C1.76679 5.15535 1.74912 5.20655 1.71378 5.25777C1.62544 5.4114 1.51943 5.54798 1.43109 5.71868C1.43109 5.75282 1.39576 5.76989 1.37809 5.80403C1.37809 5.83817 1.34274 5.83817 1.34274 5.87231C1.30741 5.92352 1.28976 5.97474 1.25443 6.02596C1.21909 6.11131 1.16607 6.21373 1.13074 6.29908C1.0954 6.35029 1.07775 6.40151 1.06008 6.45272C1.02474 6.55515 0.971728 6.6405 0.936392 6.74292C0.901057 6.79413 0.901068 6.86241 0.865733 6.91363C0.830397 7.01605 0.777381 7.11848 0.742045 7.2209C0.742045 7.25504 0.706712 7.30626 0.689044 7.35747V7.3916C0.653708 7.45989 0.636052 7.52818 0.618384 7.61353C0.583049 7.68181 0.565366 7.75009 0.547698 7.83545C0.512362 7.9208 0.494689 8.00616 0.459354 8.09151C0.424018 8.15979 0.42403 8.24514 0.388694 8.31342C0.353359 8.39878 0.35337 8.50121 0.318035 8.58656C0.318035 8.65484 0.282674 8.72312 0.265006 8.80848C0.265006 8.89383 0.229673 8.99626 0.212005 9.08161C0.212005 9.1499 0.176689 9.21817 0.176689 9.30353C0.176689 9.40595 0.141346 9.4913 0.141346 9.59373C0.141346 9.66201 0.106003 9.7303 0.106003 9.81565C0.106003 9.91808 0.0706864 10.0205 0.0706864 10.1059C0.0706864 10.1741 0.0706788 10.2424 0.0353432 10.3107C0.0353432 10.4302 0.0353356 10.5326 0 10.6521C0 10.7033 0 10.7716 0 10.8228C0 10.9935 0 11.1642 0 11.3349V18.6412L5.318 21.4237V14.1857C5.35334 8.6207 9.64662 3.48242 14.9823 2.66303M5.61838 14.2028V21.4408L8.07421 21.0994V13.8102C8.10954 9.79858 11.2014 6.1113 15.0176 5.51383V2.91909C9.82331 3.72141 5.63605 8.7402 5.61838 14.1857M22.1908 25.35V25.4695C22.1908 25.4695 22.1908 25.6061 22.1908 25.6743V25.7085C22.1908 25.7085 22.1908 25.7597 22.1908 25.7938V25.8963C22.1908 25.8963 22.1555 25.9816 22.1555 26.0157V26.0499C22.1555 26.0499 22.1555 26.1182 22.1555 26.1523V26.2547C22.1555 26.2547 22.1555 26.2889 22.1201 26.3059C22.1201 26.3401 22.1201 26.3742 22.1201 26.4084C22.1201 26.4084 22.1201 26.4767 22.1201 26.5108V26.6303C22.1201 26.6303 22.1201 26.6644 22.0848 26.6815C22.0848 26.7156 22.0848 26.7327 22.0848 26.7669C22.0848 26.7669 22.0848 26.8351 22.0494 26.8693L22.0141 26.9717V27.0058C22.0141 27.04 22.0141 27.0571 21.9788 27.0912C21.9788 27.0912 21.9788 27.1765 21.9434 27.2107L21.9081 27.3302C21.9081 27.3302 21.9081 27.4155 21.8728 27.4497C21.8728 27.4497 21.8374 27.535 21.8374 27.5692L21.8021 27.6716V27.7057C21.8021 27.7399 21.8021 27.7399 21.7668 27.774C21.7138 27.9447 21.6431 28.0813 21.5724 28.2349V28.2691V28.3032C21.4841 28.4569 21.4134 28.6105 21.3251 28.7641L21.2897 28.8666C21.2367 28.969 21.1837 29.0543 21.1307 29.1397L21.0954 29.1909C21.007 29.3275 20.9187 29.464 20.8127 29.6006C20.8127 29.6006 20.689 29.7542 20.636 29.8225C20.6007 29.8566 20.6007 29.8737 20.5653 29.9079L20.53 29.942L20.477 30.0103C20.477 30.0103 20.3533 30.1639 20.265 30.2322L20.2296 30.2663C20.0176 30.4883 19.8056 30.7102 19.5759 30.898L19.5406 30.9321C19.5406 30.9321 19.5053 30.9663 19.4876 30.9663C19.2579 31.1711 19.0106 31.3418 18.7456 31.5125C18.7456 31.5125 18.7455 31.5125 18.7102 31.5125C18.6749 31.5125 18.6572 31.5467 18.6219 31.5637C18.5689 31.5979 18.4982 31.6491 18.4275 31.6832C18.4275 31.6832 18.4275 31.6832 18.3922 31.6832C18.3039 31.7344 18.2155 31.8027 18.1272 31.8368C18.1272 31.8368 18.0565 31.8881 18.0212 31.9051C17.8622 31.9905 17.7032 32.0758 17.5442 32.1441C17.4028 32.2124 17.2438 32.2636 17.0671 32.349C17.0671 32.349 17.0553 32.349 17.0318 32.349H16.9788C16.8021 32.4173 16.6431 32.4855 16.4664 32.5368H16.4311C16.4311 32.5368 16.3957 32.5367 16.3957 32.5709C16.2544 32.605 16.0954 32.6562 15.954 32.6904H15.9187C15.9187 32.6904 15.7244 32.7245 15.6183 32.7416C15.583 32.7416 15.5477 32.7416 15.4947 32.7757C15.4593 32.7757 15.4417 32.7757 15.4063 32.7757L15.4417 35.3705C17.9328 34.9608 20.2473 33.6634 21.9788 31.7174C23.7809 29.6689 24.7703 27.0912 24.7349 24.4282L24.6466 16.8488L22.1731 17.2243L22.2615 24.8549C22.2615 24.9915 22.2615 25.1281 22.2615 25.2305M22.1024 26.5108C22.1024 26.5108 22.1024 26.5449 22.1024 26.562C22.1024 26.4767 22.1378 26.3913 22.1555 26.3059C22.1555 26.3059 22.1555 26.3742 22.1555 26.4084L22.1201 26.5108H22.1024ZM21.7844 27.6716C21.7844 27.6716 21.7844 27.6716 21.7844 27.7057C21.7844 27.7057 21.7844 27.6944 21.7844 27.6716ZM21.8198 27.5521V27.5862C21.8551 27.5009 21.8727 27.4155 21.9081 27.3302C21.9081 27.3302 21.8728 27.4155 21.8728 27.4497L21.8374 27.5521H21.8198ZM22.0318 26.8693V26.9034C22.0671 26.8181 22.0671 26.7327 22.0848 26.6474C22.0848 26.6474 22.0848 26.7156 22.0494 26.7498V26.8693H22.0318ZM21.9258 27.2107C21.9258 27.2107 21.9611 27.0741 21.9964 27.0058C21.9964 27.0058 21.9964 27.0741 21.9611 27.1083L21.9258 27.2278V27.2107ZM22.2261 25.7938C22.2261 25.7938 22.2261 25.8792 22.2261 25.9133C22.2261 25.8109 22.2615 25.7085 22.2615 25.6061C22.2615 25.6402 22.2615 25.6573 22.2615 25.6914V25.7938H22.2261ZM15.4947 32.7757C15.4947 32.7757 15.5653 32.7757 15.6183 32.7416C15.583 32.7416 15.5477 32.7757 15.4947 32.7757ZM16.4487 32.5709C16.4487 32.5709 16.4134 32.5709 16.3781 32.5709H16.4134H16.4487ZM17.0318 32.3661C17.0318 32.3661 16.9788 32.366 16.9611 32.4002L17.0318 32.3661ZM22.2438 24.8891C22.2438 25.0427 22.2438 25.1964 22.2438 25.35V25.2476C22.2438 25.1281 22.2438 25.0086 22.2438 24.872M22.1555 26.1694C22.1555 26.1694 22.1555 26.2035 22.1555 26.2206C22.1555 26.1352 22.1908 26.0499 22.1908 25.9645C22.1908 25.9645 22.1908 26.0328 22.1908 26.067V26.1694H22.1555ZM22.2261 25.589C22.2261 25.589 22.2261 25.4695 22.2261 25.3841C22.2261 25.4524 22.2261 25.5036 22.2261 25.589ZM18.4099 31.7003C18.4099 31.7003 18.4099 31.7003 18.3745 31.7003C18.3745 31.7003 18.3745 31.7003 18.4099 31.7003ZM18.0919 31.8881C18.0919 31.8881 18.0212 31.9222 17.9682 31.9393C18.0035 31.9051 18.0388 31.9051 18.0742 31.8881M18.6572 31.5296C18.6572 31.5296 18.6572 31.5296 18.6926 31.5296C18.6572 31.5637 18.6219 31.5637 18.5866 31.5979C18.5866 31.5637 18.6219 31.5637 18.6572 31.5466M19.4523 30.915L19.4876 30.8809C19.4876 30.8809 19.4169 30.915 19.3639 30.9663C19.3639 30.9321 19.3993 30.9321 19.4169 30.915M20.9894 29.0885C20.9894 29.0885 20.9894 29.1226 20.954 29.1226L20.9894 29.0885ZM21.166 28.7983L21.2014 28.7129C21.2014 28.7129 21.166 28.7641 21.166 28.7983ZM20.424 29.8908L20.4593 29.8567C20.4593 29.8567 20.4063 29.9249 20.371 29.9761L20.424 29.8908ZM20.689 29.5494C20.689 29.5494 20.5653 29.703 20.5123 29.7713C20.5653 29.6859 20.636 29.6177 20.689 29.5494Z" fill="#EFEFEF"/>
<path d="M41.1406 23.1659L44.3738 21.3564C44.9569 22.6537 45.9639 23.5585 47.8014 23.5585C49.6388 23.5585 50.0275 22.8757 50.0275 22.2611C50.0275 21.2881 49.0911 20.8955 46.6353 20.2468C44.1971 19.5981 41.812 18.4544 41.812 15.4329C41.812 12.4113 44.4798 10.6189 47.3067 10.6189C49.9922 10.6189 52.0947 11.8651 53.2961 14.1867L50.1512 15.9791C49.5858 14.8524 48.8085 14.1525 47.3244 14.1525C46.1583 14.1525 45.5576 14.7159 45.5576 15.3646C45.5576 16.0815 45.9463 16.5766 48.5081 17.3277C50.9816 18.0447 53.7731 18.8811 53.7731 22.227C53.7731 25.2656 51.2466 27.0921 47.6777 27.0921C44.2502 27.0921 42.0417 25.4875 41.1406 23.1659ZM63.3491 15.4158L61.1406 22.3294L58.5434 15.4158H54.6918L59.3385 26.2045L58.2077 29.5674H61.9003L67.077 15.4158H63.3314H63.3491ZM79.9745 19.82C79.9745 16.7814 77.9604 15.1426 75.6105 15.1426C74.0734 15.1426 72.8897 15.6889 72.2713 16.5254V15.467H68.7731V26.7678H72.2713V20.6053C72.2713 19.0006 73.1724 18.2837 74.4445 18.2837C75.5752 18.2837 76.4763 18.9323 76.4763 20.3321V26.7678H79.9745V19.8371M90.7695 21.1345C90.7695 22.8415 89.6035 23.8999 87.978 23.8999C86.3526 23.8999 85.1865 22.8415 85.1865 21.1345C85.1865 19.4274 86.3526 18.369 87.978 18.369C89.6035 18.369 90.7695 19.4274 90.7695 21.1345ZM90.7695 15.4841V16.5424C89.9921 15.6718 88.8437 15.1597 87.2713 15.1597C84.1971 15.1597 81.6883 17.7545 81.6883 21.1345C81.6883 24.5145 84.2147 27.1092 87.2713 27.1092C88.8437 27.1092 89.9921 26.58 90.7695 25.7265V26.7849H94.2677V15.467H90.7695V15.4841ZM114.745 19.8542C114.745 17.0375 112.978 15.1768 110.292 15.1768C108.632 15.1768 107.554 15.7572 106.9 16.6619C106.247 15.706 105.222 15.1768 103.826 15.1768C102.254 15.1768 101.229 15.7572 100.681 16.5424V15.5011H97.1829V26.8019H100.681V20.4175C100.681 19.086 101.335 18.2837 102.501 18.2837C103.667 18.2837 104.179 19.0006 104.179 20.1444V26.7849H107.678V20.4004C107.678 19.0689 108.331 18.2666 109.497 18.2666C110.663 18.2666 111.176 18.9836 111.176 20.1273V26.7678H114.674V19.82M120.01 19.9395C120.328 18.7958 121.229 18.1471 122.554 18.1471C123.614 18.1471 124.674 18.608 125.027 19.9395H119.992H120.01ZM122.89 24.0535C121.6 24.0535 120.522 23.6439 120.08 22.466H128.384C128.473 22.0392 128.526 21.5954 128.526 21.1003C128.526 17.6862 125.999 15.1256 122.589 15.1256C118.897 15.1256 116.37 17.7203 116.37 21.1003C116.37 24.4803 118.844 27.0751 122.854 27.0751C125.08 27.0751 126.812 26.2898 127.96 24.7535L125.151 23.2C124.656 23.7121 123.826 24.0706 122.872 24.0706M139.02 21.1345C139.02 22.8415 137.854 23.8999 136.229 23.8999C134.603 23.8999 133.437 22.8415 133.437 21.1345C133.437 19.4274 134.603 18.369 136.229 18.369C137.854 18.369 139.02 19.4274 139.02 21.1345ZM139.02 10.9603V16.5424C138.243 15.6718 137.095 15.1597 135.522 15.1597C132.448 15.1597 129.939 17.7545 129.939 21.1345C129.939 24.5145 132.466 27.1092 135.522 27.1092C137.095 27.1092 138.243 26.58 139.02 25.7265V26.7849H142.519V10.9603H139.02ZM145.451 26.7849H148.95V15.467H145.451V26.7849ZM145.098 12.4625C145.098 13.5721 146.052 14.511 147.218 14.511C148.384 14.511 149.338 13.5892 149.338 12.4625C149.338 11.3529 148.384 10.4141 147.218 10.4141C146.052 10.4141 145.098 11.3359 145.098 12.4625ZM159.692 21.1345C159.692 22.8415 158.526 23.8999 156.9 23.8999C155.275 23.8999 154.109 22.8415 154.109 21.1345C154.109 19.4274 155.275 18.369 156.9 18.369C158.526 18.369 159.692 19.4274 159.692 21.1345ZM159.692 15.4841V16.5424C158.914 15.6718 157.766 15.1597 156.193 15.1597C153.119 15.1597 150.61 17.7545 150.61 21.1345C150.61 24.5145 153.137 27.1092 156.193 27.1092C157.766 27.1092 158.914 26.58 159.692 25.7265V26.7849H163.19V15.467H159.692V15.4841Z" fill="#EFEFEF"/>
</svg>
