<svg width="108" height="33" viewBox="0 0 108 33" fill="none" xmlns="http://www.w3.org/2000/svg">
<path d="M10.9624 5.89571H3.50318V0.0263672H0V15.0634H3.50318V8.84292H10.9624V15.0634H14.4656V0.0263672H10.9624V5.89571Z" fill="black"/>
<path d="M87.0085 0.879178C86.2759 1.58149 86.2493 2.62242 86.2227 3.22441V15.0634H89.7125V10.2601H97.1451V15.0634H100.662V0.0263672H89.7525C88.7135 0.0263672 87.7411 0.176864 87.0085 0.879178ZM90.6183 2.96104H97.1584V7.32542H89.7258V3.81385C89.7392 3.63827 89.6992 3.32474 89.859 3.13662C90.0189 2.93595 90.2853 2.96104 90.6183 2.9485V2.96104Z" fill="black"/>
<path d="M62.2444 0.0263672H51.3086V15.0634H54.8118V2.96104H61.3786C61.6983 2.96104 61.978 2.96104 62.1378 3.14916C62.2977 3.33728 62.2577 3.65081 62.271 3.82639V15.0634H65.7742V3.22441C65.7609 2.62242 65.7209 1.59403 65.0016 0.879178C64.269 0.176864 63.2967 0.0263672 62.2577 0.0263672H62.2444Z" fill="black"/>
<path d="M44.6968 11.2621C44.6968 11.4377 44.7101 11.7387 44.5636 11.9268C44.4038 12.1275 44.1374 12.1024 43.8044 12.1149H37.2376V0.0125416H33.7344V15.0496H44.6702C45.7091 15.0496 46.6815 14.8991 47.4141 14.1842C48.1467 13.4819 48.1734 12.441 48.2 11.839V0H44.6968V11.237V11.2621Z" fill="black"/>
<path d="M83.32 3.22441C83.3067 2.62242 83.28 1.59403 82.5474 0.879178C81.8148 0.176864 80.8424 0.0263672 79.8035 0.0263672H68.8677V15.0634H79.8035C80.8424 15.0634 81.8148 14.9129 82.5474 14.1981C83.28 13.4958 83.3067 12.4548 83.32 11.8528V3.21186V3.22441ZM79.8301 11.2634C79.8301 11.439 79.8434 11.74 79.6969 11.9281C79.5371 12.1287 79.2573 12.1037 78.9377 12.1162H72.3709V2.96104H78.9377C79.2573 2.96104 79.5371 2.96104 79.6969 3.14916C79.8434 3.33728 79.8168 3.65081 79.8301 3.82639V11.2634Z" fill="black"/>
<path d="M24.1115 6.61056L19.8624 0.0263672H15.7065L22.2334 9.50761V15.0634H25.9763V9.50761L32.5165 0.0263672H28.3473L24.1115 6.61056Z" fill="black"/>
<path d="M107.897 0.0263672H104.167V15.0634H107.897V0.0263672Z" fill="black"/>
<path d="M107.893 19.333H0V21.603H107.893V19.333Z" fill="black"/>
<path d="M70.1628 30.1159C70.5091 30.0783 70.8154 29.978 71.0685 29.7397C71.4148 29.4136 71.4282 28.937 71.4282 28.6611V26.8803C71.4282 26.6044 71.4015 26.1278 71.0685 25.8017C70.7355 25.4756 70.2826 25.4129 69.8031 25.4004H64.7148V32.3985H66.3532V30.141H68.4311L70.0296 32.3985H71.7612L70.1494 30.1285L70.1628 30.1159ZM69.883 28.3852C69.883 28.4605 69.8697 28.5357 69.8164 28.5859C69.7365 28.6737 69.6166 28.6737 69.4701 28.6737H66.3532V26.8426H69.4701C69.6166 26.8426 69.7498 26.8426 69.8164 26.9304C69.8564 26.9806 69.8697 27.0684 69.883 27.1311V28.3852Z" fill="black"/>
<path d="M50.2691 30.1159C50.6154 30.0783 50.9218 29.978 51.1748 29.7397C51.5078 29.4136 51.5345 28.937 51.5345 28.6611V26.8803C51.5345 26.6044 51.5078 26.1278 51.1748 25.8017C50.8418 25.4756 50.389 25.4129 49.9094 25.4004H44.8345V32.3985H46.4728V30.141H48.5508L50.1492 32.3985H51.8808L50.2691 30.1285V30.1159ZM49.9894 28.3852C49.9894 28.4605 49.976 28.5357 49.9361 28.5859C49.8561 28.6737 49.7363 28.6737 49.5897 28.6737H46.4728V26.8426H49.5897C49.7363 26.8426 49.8695 26.8426 49.9361 26.9304C49.976 26.9806 49.9894 27.0684 49.9894 27.1311V28.3852Z" fill="black"/>
<path d="M29.022 25.3853V26.9153H31.5528V32.3833H33.1778V26.9153H35.722V25.3853H29.022Z" fill="black"/>
<path d="M12.0605 25.3853V32.3833H13.6856V27.9562L15.2707 32.3833H16.7093L18.3077 27.9562V32.3833H19.9327V25.3853H17.7749L15.99 30.314L14.2184 25.3853H12.0605Z" fill="black"/>
<path d="M89.1255 32.3833H90.7505V30.3767H94.1871C94.6666 30.3767 95.1195 30.3015 95.4525 29.9754C95.7989 29.6493 95.8122 29.1727 95.8122 28.8968V26.8651C95.8122 26.5892 95.7855 26.1127 95.4525 25.7866C95.1195 25.4605 94.6666 25.3978 94.1871 25.3853H89.1255V32.3833ZM94.2804 28.6335C94.2804 28.7087 94.2804 28.784 94.2271 28.8341C94.1472 28.9219 94.0273 28.9219 93.8808 28.9219H90.7639V26.84H93.8808C94.0273 26.84 94.1605 26.84 94.2271 26.9278C94.267 26.978 94.2804 27.0532 94.2804 27.1285V28.6209V28.6335Z" fill="black"/>
<path d="M58.2546 27.0031C58.3212 26.9153 58.4544 26.9153 58.601 26.9153H63.2763V25.3853H58.188C57.7085 25.3853 57.2556 25.4605 56.9226 25.7866C56.5763 26.1127 56.5763 26.5892 56.563 26.8651V30.9034C56.563 31.1794 56.5763 31.6559 56.9226 31.982C57.2689 32.3081 57.7085 32.3708 58.188 32.3833H61.6379C62.1175 32.3833 62.5703 32.3081 62.9033 31.982C63.2363 31.6559 63.263 31.1794 63.263 30.9034V28.1945H59.7598V29.5615H61.6379V30.5648C61.6379 30.6401 61.6379 30.7153 61.5847 30.7655C61.5047 30.8533 61.3849 30.8533 61.2383 30.8533H58.601C58.4544 30.8533 58.3212 30.8533 58.2546 30.7655C58.2147 30.7153 58.2014 30.6401 58.188 30.5648V27.2037C58.188 27.1285 58.2014 27.0533 58.2546 27.0031Z" fill="black"/>
<path d="M86.0752 30.6163C86.0752 30.6915 86.0752 30.842 86.0086 30.9298C85.9287 31.0176 85.8088 31.0176 85.649 31.0176H82.5987V25.3866H80.9736V32.3846H86.0486C86.5281 32.3846 86.981 32.3094 87.3273 31.9833C87.6603 31.6572 87.6736 31.1807 87.687 30.8922V25.374H86.0619V30.6038L86.0752 30.6163Z" fill="black"/>
<path d="M79.2525 25.7753C78.9195 25.4493 78.4666 25.3866 77.9871 25.374H74.5372C74.0576 25.374 73.6047 25.4493 73.2717 25.7753C72.9387 26.1014 72.9121 26.578 72.9121 26.8539V30.8922C72.9121 31.1681 72.9387 31.6447 73.2717 31.9708C73.6181 32.2968 74.0576 32.3595 74.5372 32.3721H77.9871C78.4666 32.3721 78.9195 32.2968 79.2525 31.9708C79.5988 31.6447 79.6121 31.1681 79.6121 30.8922V26.8539C79.6121 26.578 79.5855 26.1014 79.2525 25.7753ZM77.9871 30.5536C77.9871 30.6288 77.9871 30.7041 77.9338 30.7543C77.8539 30.842 77.734 30.842 77.5875 30.842H74.9501C74.8036 30.842 74.6704 30.842 74.6038 30.7543C74.5505 30.7041 74.5505 30.6288 74.5372 30.5536V27.1925C74.5372 27.1173 74.5505 27.042 74.6038 26.9919C74.6837 26.9041 74.8036 26.9041 74.9501 26.9041H77.5875C77.734 26.9041 77.8672 26.9041 77.9338 26.9919C77.9737 27.042 77.9871 27.1298 77.9871 27.1925V30.5536Z" fill="black"/>
<path d="M43.0835 25.7753C42.7505 25.4493 42.2976 25.3866 41.8181 25.374H38.3682C37.8887 25.374 37.4358 25.4493 37.1028 25.7753C36.7565 26.1014 36.7432 26.578 36.7432 26.8539V30.8922C36.7432 31.1681 36.7698 31.6447 37.1028 31.9708C37.4358 32.2968 37.8887 32.3595 38.3682 32.3721H41.8181C42.2976 32.3721 42.7505 32.2968 43.0835 31.9708C43.4298 31.6447 43.4432 31.1681 43.4432 30.8922V26.8539C43.4432 26.578 43.4298 26.1014 43.0835 25.7753ZM41.8181 30.5536C41.8181 30.6288 41.8181 30.7041 41.7648 30.7543C41.6849 30.842 41.565 30.842 41.4185 30.842H38.7811C38.6346 30.842 38.5014 30.842 38.4348 30.7543C38.3949 30.7041 38.3815 30.6288 38.3682 30.5536V27.1925C38.3682 27.1173 38.3815 27.042 38.4348 26.9919C38.5147 26.9041 38.6346 26.9041 38.7811 26.9041H41.4185C41.565 26.9041 41.6982 26.9041 41.7648 26.9919C41.8048 27.042 41.8181 27.1298 41.8181 27.1925V30.5536Z" fill="black"/>
<path d="M27.6494 25.7753C27.3164 25.4493 26.8636 25.3866 26.384 25.374H22.9341C22.4546 25.374 22.0017 25.4493 21.6687 25.7753C21.3224 26.1014 21.3091 26.578 21.3091 26.8539V30.8922C21.3091 31.1681 21.3357 31.6447 21.6687 31.9708C22.0017 32.2968 22.4546 32.3595 22.9341 32.3721H26.384C26.8636 32.3721 27.3164 32.2968 27.6494 31.9708C27.9958 31.6447 28.0091 31.1681 28.0091 30.8922V26.8539C28.0091 26.578 27.9824 26.1014 27.6494 25.7753ZM26.384 30.5536C26.384 30.6288 26.384 30.7041 26.3308 30.7543C26.2508 30.842 26.131 30.842 25.9844 30.842H23.3471C23.2005 30.842 23.0673 30.842 23.0007 30.7543C22.9608 30.7041 22.9475 30.6288 22.9341 30.5536V27.1925C22.9341 27.1173 22.9475 27.042 23.0007 26.9919C23.0673 26.9041 23.2005 26.9041 23.3471 26.9041H25.9844C26.131 26.9041 26.2642 26.9041 26.3308 26.9919C26.384 27.042 26.384 27.1298 26.384 27.1925V30.5536Z" fill="black"/>
</svg>
