<svg width="100" height="100" viewBox="0 0 100 100" fill="none" xmlns="http://www.w3.org/2000/svg">
<mask id="path-1-inside-1_13138_10985" fill="white">
<path d="M93.2832 50.376C95.234 50.376 97.1544 50.5082 99.0361 50.7598C99.037 50.878 99.0391 50.9968 99.0391 51.1152C99.0388 77.5883 77.5312 99.0488 51 99.0488C50.9251 99.0488 50.8502 99.0472 50.7754 99.0469C50.5129 97.1321 50.375 95.1771 50.375 93.1904C50.3751 69.5447 69.5857 50.3761 93.2832 50.376Z"/>
</mask>
<path d="M93.2832 50.376V49.076H93.2832L93.2832 50.376ZM99.0361 50.7598L100.336 50.7503L100.328 49.6209L99.2084 49.4712L99.0361 50.7598ZM99.0391 51.1152L100.339 51.1152V51.1152H99.0391ZM51 99.0488L51 100.349H51V99.0488ZM50.7754 99.0469L49.4874 99.2234L49.6407 100.342L50.7694 100.347L50.7754 99.0469ZM50.375 93.1904L49.075 93.1904V93.1904H50.375ZM93.2832 50.376V51.676C95.1752 51.676 97.038 51.8042 98.8638 52.0483L99.0361 50.7598L99.2084 49.4712C97.2707 49.2121 95.2928 49.076 93.2832 49.076V50.376ZM99.0361 50.7598L97.7362 50.7692C97.7372 50.9077 97.7391 51.0005 97.7391 51.1152H99.0391H100.339C100.339 50.993 100.337 50.8484 100.336 50.7503L99.0361 50.7598ZM99.0391 51.1152L97.7391 51.1152C97.7388 76.8677 76.8159 97.7488 51 97.7488V99.0488V100.349C78.2464 100.349 100.339 78.309 100.339 51.1152L99.0391 51.1152ZM51 99.0488L51 97.7488C50.9087 97.7488 50.9059 97.7475 50.7813 97.7469L50.7754 99.0469L50.7694 100.347C50.7945 100.347 50.9415 100.349 51 100.349L51 99.0488ZM50.7754 99.0469L52.0633 98.8703C51.8087 97.0129 51.675 95.1169 51.675 93.1904H50.375H49.075C49.075 95.2374 49.2171 97.2513 49.4874 99.2234L50.7754 99.0469ZM50.375 93.1904L51.675 93.1904C51.6751 70.2654 70.301 51.6761 93.2832 51.676L93.2832 50.376L93.2832 49.076C68.8704 49.0761 49.0751 68.8241 49.075 93.1904L50.375 93.1904Z" fill="#229EFF" mask="url(#path-1-inside-1_13138_10985)"/>
<mask id="path-3-inside-2_13138_10985" fill="white">
<path d="M93.2832 48.6729C95.234 48.6729 97.1544 48.5407 99.0361 48.2891C99.037 48.1708 99.0391 48.052 99.0391 47.9336C99.0388 21.4605 77.5312 0 51 0C50.9251 0 50.8502 0.0016098 50.7754 0.00195312C50.5129 1.91674 50.375 3.87169 50.375 5.8584C50.3751 29.5041 69.5857 48.6727 93.2832 48.6729Z"/>
</mask>
<path d="M93.2832 48.6729V49.9729H93.2832L93.2832 48.6729ZM99.0361 48.2891L100.336 48.2985L100.328 49.4279L99.2084 49.5776L99.0361 48.2891ZM99.0391 47.9336L100.339 47.9336V47.9336H99.0391ZM51 0L51 -1.3H51V0ZM50.7754 0.00195312L49.4874 -0.17461L49.6407 -1.29287L50.7694 -1.29803L50.7754 0.00195312ZM50.375 5.8584L49.075 5.8584V5.8584H50.375ZM93.2832 48.6729V47.3729C95.1752 47.3729 97.038 47.2447 98.8638 47.0005L99.0361 48.2891L99.2084 49.5776C97.2707 49.8367 95.2928 49.9729 93.2832 49.9729V48.6729ZM99.0361 48.2891L97.7362 48.2796C97.7372 48.1412 97.7391 48.0483 97.7391 47.9336H99.0391H100.339C100.339 48.0558 100.337 48.2005 100.336 48.2985L99.0361 48.2891ZM99.0391 47.9336L97.7391 47.9336C97.7388 22.1812 76.8159 1.3 51 1.3V0V-1.3C78.2464 -1.3 100.339 20.7398 100.339 47.9336L99.0391 47.9336ZM51 0L51 1.3C50.9087 1.3 50.9059 1.30137 50.7813 1.30194L50.7754 0.00195312L50.7694 -1.29803C50.7945 -1.29815 50.9415 -1.3 51 -1.3L51 0ZM50.7754 0.00195312L52.0633 0.178516C51.8087 2.03596 51.675 3.93193 51.675 5.8584H50.375H49.075C49.075 3.81145 49.2171 1.7975 49.4874 -0.17461L50.7754 0.00195312ZM50.375 5.8584L51.675 5.85839C51.6751 28.7835 70.301 47.3727 93.2832 47.3729L93.2832 48.6729L93.2832 49.9729C68.8704 49.9727 49.0751 30.2248 49.075 5.8584L50.375 5.8584Z" fill="#229EFF" mask="url(#path-3-inside-2_13138_10985)"/>
<mask id="path-5-inside-3_13138_10985" fill="white">
<path d="M5.75586 50.376C3.80497 50.376 1.88478 50.5081 0.00292969 50.7598C0.00207138 50.878 0 50.9968 0 51.1152C0.000236511 77.5883 21.5079 99.0488 48.0391 99.0488C48.114 99.0488 48.1888 99.0472 48.2637 99.0469C48.5262 97.1321 48.6641 95.1771 48.6641 93.1904C48.664 69.5446 29.4535 50.376 5.75586 50.376Z"/>
</mask>
<path d="M5.75586 50.376V49.076V49.076V50.376ZM0.00292969 50.7598L-1.29704 50.7503L-1.28883 49.6209L-0.169361 49.4712L0.00292969 50.7598ZM0 51.1152L-1.3 51.1152V51.1152H0ZM48.0391 99.0488L48.0391 100.349H48.0391V99.0488ZM48.2637 99.0469L49.5516 99.2234L49.3983 100.342L48.2696 100.347L48.2637 99.0469ZM48.6641 93.1904L49.9641 93.1904V93.1904H48.6641ZM5.75586 50.376V51.676C3.86377 51.676 2.00114 51.8042 0.17522 52.0483L0.00292969 50.7598L-0.169361 49.4712C1.76843 49.2121 3.74618 49.076 5.75586 49.076V50.376ZM0.00292969 50.7598L1.30289 50.7692C1.30189 50.9077 1.3 51.0005 1.3 51.1152H0H-1.3C-1.3 50.993 -1.29775 50.8484 -1.29704 50.7503L0.00292969 50.7598ZM0 51.1152L1.3 51.1152C1.30023 76.8677 22.2232 97.7488 48.0391 97.7488V99.0488V100.349C20.7926 100.349 -1.29976 78.309 -1.3 51.1152L0 51.1152ZM48.0391 99.0488L48.0391 97.7488C48.1304 97.7488 48.1331 97.7475 48.2577 97.7469L48.2637 99.0469L48.2696 100.347C48.2445 100.347 48.0975 100.349 48.0391 100.349L48.0391 99.0488ZM48.2637 99.0469L46.9757 98.8703C47.2304 97.0129 47.3641 95.1169 47.3641 93.1904H48.6641H49.9641C49.9641 95.2374 49.822 97.2513 49.5516 99.2234L48.2637 99.0469ZM48.6641 93.1904L47.3641 93.1904C47.364 70.2653 28.7382 51.676 5.75586 51.676V50.376V49.076C30.1688 49.076 49.964 68.824 49.9641 93.1904L48.6641 93.1904Z" fill="#229EFF" mask="url(#path-5-inside-3_13138_10985)"/>
<mask id="path-7-inside-4_13138_10985" fill="white">
<path d="M5.75586 48.6729C3.80497 48.6729 1.88478 48.5407 0.00292969 48.2891C0.00207138 48.1708 0 48.052 0 47.9336C0.000236511 21.4605 21.5079 0 48.0391 0C48.114 0 48.1888 0.0016098 48.2637 0.00195312C48.5262 1.91674 48.6641 3.87168 48.6641 5.8584C48.664 29.5042 29.4535 48.6728 5.75586 48.6729Z"/>
</mask>
<path d="M5.75586 48.6729V49.9729V49.9729V48.6729ZM0.00292969 48.2891L-1.29704 48.2985L-1.28883 49.4279L-0.169361 49.5776L0.00292969 48.2891ZM0 47.9336L-1.3 47.9336V47.9336H0ZM48.0391 0L48.0391 -1.3H48.0391V0ZM48.2637 0.00195312L49.5516 -0.17461L49.3983 -1.29287L48.2696 -1.29803L48.2637 0.00195312ZM48.6641 5.8584L49.9641 5.8584V5.8584H48.6641ZM5.75586 48.6729V47.3729C3.86377 47.3729 2.00114 47.2447 0.17522 47.0005L0.00292969 48.2891L-0.169361 49.5776C1.76843 49.8367 3.74618 49.9729 5.75586 49.9729V48.6729ZM0.00292969 48.2891L1.30289 48.2796C1.30189 48.1412 1.3 48.0483 1.3 47.9336H0H-1.3C-1.3 48.0558 -1.29775 48.2005 -1.29704 48.2985L0.00292969 48.2891ZM0 47.9336L1.3 47.9336C1.30023 22.1812 22.2232 1.3 48.0391 1.3V0V-1.3C20.7926 -1.3 -1.29976 20.7398 -1.3 47.9336L0 47.9336ZM48.0391 0L48.0391 1.3C48.1304 1.3 48.1331 1.30137 48.2577 1.30194L48.2637 0.00195312L48.2696 -1.29803C48.2445 -1.29815 48.0975 -1.3 48.0391 -1.3L48.0391 0ZM48.2637 0.00195312L46.9757 0.178516C47.2304 2.03598 47.3641 3.93192 47.3641 5.8584H48.6641H49.9641C49.9641 3.81144 49.822 1.79751 49.5516 -0.17461L48.2637 0.00195312ZM48.6641 5.8584L47.3641 5.85839C47.364 28.7835 28.7382 47.3728 5.75586 47.3729V48.6729V49.9729C30.1688 49.9728 49.964 30.2248 49.9641 5.8584L48.6641 5.8584Z" fill="#229EFF" mask="url(#path-7-inside-4_13138_10985)"/>
</svg>
