<svg width="504" height="366" viewBox="0 0 504 366" fill="none" xmlns="http://www.w3.org/2000/svg">
<rect width="503.391" height="366" fill="#222222"/>
<rect x="220.5" y="97.9121" width="53.999" height="226.545" stroke="white"/>
<path d="M240.489 213.396H239.373L241.88 206.432H243.094L245.6 213.396H244.485L242.516 207.697H242.461L240.489 213.396ZM240.676 210.669H244.294V211.553H240.676V210.669ZM246.797 213.396V206.432H249.28C249.821 206.432 250.27 206.531 250.626 206.728C250.982 206.925 251.249 207.195 251.425 207.537C251.602 207.877 251.691 208.26 251.691 208.687C251.691 209.115 251.601 209.501 251.422 209.843C251.245 210.183 250.978 210.453 250.619 210.652C250.264 210.849 249.816 210.948 249.276 210.948H247.569V210.057H249.181C249.523 210.057 249.801 209.998 250.014 209.88C250.227 209.76 250.384 209.597 250.483 209.391C250.583 209.184 250.633 208.95 250.633 208.687C250.633 208.424 250.583 208.19 250.483 207.986C250.384 207.782 250.226 207.622 250.011 207.507C249.798 207.391 249.517 207.333 249.167 207.333H247.848V213.396H246.797ZM254.165 206.432V213.396H253.114V206.432H254.165Z" fill="white"/>
<rect x="40.5" y="97.5" width="135" height="227" stroke="white"/>
<rect x="55.0469" y="171.113" width="105.453" height="27.0387" stroke="white"/>
<path d="M95.443 182.349H94.382C94.3412 182.123 94.2653 181.923 94.1542 181.751C94.0431 181.578 93.9071 181.432 93.7461 181.312C93.5852 181.192 93.4049 181.101 93.2054 181.04C93.0082 180.979 92.7985 180.948 92.5763 180.948C92.175 180.948 91.8157 181.049 91.4983 181.251C91.1832 181.453 90.9338 181.748 90.7502 182.138C90.5688 182.528 90.4781 183.004 90.4781 183.567C90.4781 184.133 90.5688 184.612 90.7502 185.002C90.9338 185.392 91.1843 185.686 91.5017 185.886C91.8191 186.085 92.1762 186.185 92.5729 186.185C92.7928 186.185 93.0014 186.156 93.1986 186.097C93.3981 186.035 93.5784 185.946 93.7393 185.828C93.9003 185.71 94.0363 185.566 94.1474 185.396C94.2607 185.224 94.339 185.027 94.382 184.804L95.443 184.808C95.3863 185.15 95.2764 185.465 95.1132 185.753C94.9522 186.039 94.7448 186.286 94.4908 186.495C94.2392 186.701 93.9513 186.861 93.6271 186.974C93.3029 187.087 92.9492 187.144 92.5661 187.144C91.9631 187.144 91.4258 187.001 90.9542 186.716C90.4827 186.428 90.1109 186.016 89.8388 185.481C89.5691 184.946 89.4342 184.308 89.4342 183.567C89.4342 182.823 89.5702 182.185 89.8422 181.652C90.1143 181.117 90.4861 180.707 90.9576 180.421C91.4292 180.133 91.9653 179.989 92.5661 179.989C92.9356 179.989 93.2802 180.042 93.5999 180.149C93.9218 180.253 94.2109 180.407 94.467 180.612C94.7232 180.813 94.9352 181.06 95.1029 181.353C95.2707 181.643 95.3841 181.975 95.443 182.349ZM99.0105 187.154C98.5208 187.154 98.0934 187.042 97.7284 186.818C97.3634 186.593 97.0801 186.279 96.8783 185.876C96.6765 185.472 96.5756 185.001 96.5756 184.461C96.5756 183.919 96.6765 183.445 96.8783 183.04C97.0801 182.634 97.3634 182.319 97.7284 182.094C98.0934 181.87 98.5208 181.758 99.0105 181.758C99.5001 181.758 99.9275 181.87 100.292 182.094C100.657 182.319 100.941 182.634 101.143 183.04C101.344 183.445 101.445 183.919 101.445 184.461C101.445 185.001 101.344 185.472 101.143 185.876C100.941 186.279 100.657 186.593 100.292 186.818C99.9275 187.042 99.5001 187.154 99.0105 187.154ZM99.0139 186.301C99.3313 186.301 99.5942 186.217 99.8028 186.049C100.011 185.881 100.166 185.658 100.265 185.379C100.367 185.1 100.418 184.793 100.418 184.458C100.418 184.124 100.367 183.818 100.265 183.539C100.166 183.258 100.011 183.033 99.8028 182.863C99.5942 182.693 99.3313 182.608 99.0139 182.608C98.6942 182.608 98.429 182.693 98.2181 182.863C98.0096 183.033 97.8543 183.258 97.7522 183.539C97.6525 183.818 97.6026 184.124 97.6026 184.458C97.6026 184.793 97.6525 185.1 97.7522 185.379C97.8543 185.658 98.0096 185.881 98.2181 186.049C98.429 186.217 98.6942 186.301 99.0139 186.301ZM103.789 183.947V187.049H102.772V181.826H103.748V182.676H103.812C103.932 182.399 104.121 182.177 104.377 182.009C104.635 181.841 104.961 181.758 105.353 181.758C105.709 181.758 106.02 181.832 106.288 181.982C106.555 182.129 106.763 182.349 106.91 182.642C107.058 182.934 107.131 183.296 107.131 183.726V187.049H106.115V183.849C106.115 183.47 106.016 183.174 105.819 182.961C105.621 182.746 105.351 182.638 105.006 182.638C104.77 182.638 104.56 182.689 104.377 182.791C104.195 182.893 104.052 183.043 103.945 183.24C103.841 183.435 103.789 183.671 103.789 183.947ZM111.125 181.826V182.642H108.272V181.826H111.125ZM109.037 180.574H110.054V185.515C110.054 185.712 110.083 185.861 110.142 185.961C110.201 186.058 110.277 186.125 110.37 186.161C110.465 186.195 110.568 186.212 110.679 186.212C110.761 186.212 110.832 186.207 110.893 186.195C110.955 186.184 111.002 186.175 111.036 186.168L111.22 187.008C111.161 187.031 111.077 187.053 110.968 187.076C110.859 187.101 110.723 187.115 110.56 187.117C110.293 187.121 110.043 187.074 109.812 186.974C109.581 186.874 109.394 186.72 109.251 186.512C109.108 186.303 109.037 186.041 109.037 185.726V180.574ZM114.636 187.154C114.121 187.154 113.678 187.044 113.306 186.824C112.937 186.602 112.651 186.29 112.449 185.889C112.25 185.486 112.15 185.013 112.15 184.471C112.15 183.936 112.25 183.465 112.449 183.057C112.651 182.648 112.932 182.33 113.293 182.101C113.656 181.872 114.079 181.758 114.565 181.758C114.859 181.758 115.145 181.806 115.422 181.904C115.698 182.001 115.946 182.154 116.166 182.363C116.386 182.571 116.56 182.842 116.687 183.176C116.814 183.507 116.877 183.909 116.877 184.383V184.743H112.725V183.981H115.881C115.881 183.714 115.826 183.477 115.717 183.271C115.609 183.062 115.456 182.898 115.258 182.778C115.063 182.658 114.834 182.597 114.571 182.597C114.286 182.597 114.036 182.668 113.823 182.808C113.612 182.947 113.449 183.128 113.334 183.352C113.22 183.575 113.164 183.816 113.164 184.077V184.672C113.164 185.021 113.225 185.318 113.347 185.563C113.472 185.808 113.645 185.995 113.868 186.124C114.09 186.251 114.349 186.314 114.646 186.314C114.839 186.314 115.015 186.287 115.173 186.233C115.332 186.176 115.469 186.092 115.585 185.981C115.7 185.87 115.789 185.733 115.85 185.57L116.812 185.743C116.735 186.026 116.597 186.275 116.398 186.488C116.2 186.699 115.952 186.863 115.653 186.981C115.356 187.096 115.017 187.154 114.636 187.154ZM119.213 183.947V187.049H118.197V181.826H119.173V182.676H119.237C119.357 182.399 119.546 182.177 119.802 182.009C120.06 181.841 120.386 181.758 120.778 181.758C121.134 181.758 121.445 181.832 121.713 181.982C121.98 182.129 122.188 182.349 122.335 182.642C122.483 182.934 122.556 183.296 122.556 183.726V187.049H121.539V183.849C121.539 183.47 121.441 183.174 121.244 182.961C121.046 182.746 120.775 182.638 120.431 182.638C120.195 182.638 119.985 182.689 119.802 182.791C119.62 182.893 119.476 183.043 119.37 183.24C119.266 183.435 119.213 183.671 119.213 183.947ZM126.55 181.826V182.642H123.697V181.826H126.55ZM124.462 180.574H125.478V185.515C125.478 185.712 125.508 185.861 125.567 185.961C125.626 186.058 125.702 186.125 125.795 186.161C125.89 186.195 125.993 186.212 126.104 186.212C126.186 186.212 126.257 186.207 126.318 186.195C126.38 186.184 126.427 186.175 126.461 186.168L126.645 187.008C126.586 187.031 126.502 187.053 126.393 187.076C126.284 187.101 126.148 187.115 125.985 187.117C125.718 187.121 125.468 187.074 125.237 186.974C125.006 186.874 124.819 186.72 124.676 186.512C124.533 186.303 124.462 186.041 124.462 185.726V180.574Z" fill="white"/>
<rect x="55.0469" y="225.033" width="105.453" height="27.0387" stroke="white"/>
<path d="M82.3623 240.971V234.006H84.9128C85.407 234.006 85.8162 234.088 86.1404 234.251C86.4646 234.412 86.7072 234.631 86.8681 234.907C87.0291 235.182 87.1096 235.491 87.1096 235.836C87.1096 236.126 87.0563 236.371 86.9497 236.57C86.8432 236.768 86.7004 236.926 86.5213 237.046C86.3444 237.164 86.1495 237.25 85.9364 237.305V237.373C86.1676 237.384 86.3932 237.459 86.6131 237.597C86.8352 237.733 87.0189 237.927 87.164 238.179C87.3091 238.43 87.3816 238.737 87.3816 239.097C87.3816 239.453 87.2977 239.773 87.13 240.056C86.9645 240.337 86.7083 240.56 86.3614 240.726C86.0146 240.889 85.5714 240.971 85.0318 240.971H82.3623ZM83.4131 240.07H84.9298C85.4331 240.07 85.7935 239.972 86.0112 239.777C86.2288 239.582 86.3376 239.338 86.3376 239.046C86.3376 238.826 86.2821 238.624 86.171 238.441C86.0599 238.257 85.9012 238.111 85.6949 238.002C85.4909 237.893 85.2483 237.839 84.9672 237.839H83.4131V240.07ZM83.4131 237.019H84.821C85.0567 237.019 85.2687 236.974 85.4569 236.883C85.6473 236.793 85.7981 236.666 85.9091 236.502C86.0225 236.337 86.0792 236.142 86.0792 235.917C86.0792 235.63 85.9783 235.388 85.7765 235.193C85.5748 234.998 85.2653 234.901 84.8482 234.901H83.4131V237.019ZM90.2579 241.086C89.9269 241.086 89.6276 241.025 89.3601 240.903C89.0926 240.778 88.8806 240.598 88.7242 240.362C88.5701 240.126 88.493 239.837 88.493 239.495C88.493 239.2 88.5497 238.958 88.663 238.767C88.7764 238.577 88.9294 238.426 89.1221 238.315C89.3148 238.204 89.5302 238.12 89.7682 238.063C90.0062 238.007 90.2488 237.963 90.4959 237.934C90.8088 237.898 91.0627 237.868 91.2577 237.846C91.4526 237.821 91.5943 237.781 91.6827 237.727C91.7712 237.672 91.8154 237.584 91.8154 237.461V237.437C91.8154 237.141 91.7315 236.91 91.5637 236.747C91.3982 236.584 91.1511 236.502 90.8224 236.502C90.4801 236.502 90.2103 236.578 90.013 236.73C89.8181 236.88 89.6832 237.046 89.6084 237.23L88.6528 237.012C88.7662 236.695 88.9317 236.439 89.1493 236.244C89.3692 236.047 89.622 235.904 89.9076 235.815C90.1933 235.725 90.4937 235.679 90.8088 235.679C91.0174 235.679 91.2384 235.704 91.4719 235.754C91.7077 235.802 91.9276 235.89 92.1316 236.019C92.3379 236.149 92.5068 236.333 92.6383 236.574C92.7698 236.812 92.8355 237.121 92.8355 237.502V240.971H91.8426V240.257H91.8018C91.736 240.388 91.6374 240.517 91.5059 240.644C91.3744 240.771 91.2055 240.877 90.9992 240.961C90.7929 241.044 90.5458 241.086 90.2579 241.086ZM90.4789 240.27C90.76 240.27 91.0004 240.215 91.1999 240.104C91.4016 239.992 91.5546 239.847 91.6589 239.668C91.7655 239.487 91.8188 239.293 91.8188 239.087V238.413C91.7825 238.45 91.7122 238.484 91.6079 238.515C91.5059 238.545 91.3892 238.571 91.2577 238.594C91.1262 238.614 90.9981 238.633 90.8734 238.652C90.7487 238.667 90.6444 238.681 90.5605 238.692C90.3633 238.717 90.1831 238.759 90.0198 238.818C89.8589 238.877 89.7297 238.962 89.6322 239.073C89.537 239.182 89.4894 239.327 89.4894 239.508C89.4894 239.76 89.5823 239.951 89.7682 240.08C89.9541 240.207 90.191 240.27 90.4789 240.27ZM96.5815 241.076C96.076 241.076 95.6407 240.962 95.2757 240.733C94.913 240.501 94.6341 240.183 94.4392 239.777C94.2442 239.371 94.1467 238.907 94.1467 238.383C94.1467 237.852 94.2465 237.384 94.446 236.978C94.6455 236.57 94.9266 236.252 95.2893 236.023C95.652 235.794 96.0794 235.679 96.5713 235.679C96.9681 235.679 97.3217 235.753 97.6323 235.9C97.9429 236.046 98.1934 236.25 98.3838 236.513C98.5765 236.776 98.691 237.083 98.7273 237.434H97.7377C97.6833 237.189 97.5586 236.978 97.3637 236.802C97.171 236.625 96.9125 236.536 96.5883 236.536C96.3049 236.536 96.0567 236.611 95.8436 236.761C95.6328 236.908 95.4684 237.119 95.3505 237.393C95.2326 237.665 95.1737 237.987 95.1737 238.359C95.1737 238.74 95.2315 239.069 95.3471 239.345C95.4627 239.622 95.626 239.836 95.8368 239.988C96.0499 240.14 96.3004 240.216 96.5883 240.216C96.781 240.216 96.9556 240.181 97.112 240.11C97.2707 240.038 97.4033 239.935 97.5099 239.801C97.6187 239.667 97.6946 239.506 97.7377 239.318H98.7273C98.691 239.656 98.5811 239.957 98.3974 240.223C98.2138 240.488 97.9678 240.696 97.6595 240.848C97.3535 241 96.9941 241.076 96.5815 241.076ZM100.941 239.199L100.935 237.958H101.111L103.193 235.747H104.41L102.036 238.264H101.876L100.941 239.199ZM100.006 240.971V234.006H101.023V240.971H100.006ZM103.305 240.971L101.434 238.488L102.135 237.778L104.553 240.971H103.305ZM107.564 241.076C107.05 241.076 106.606 240.966 106.235 240.746C105.865 240.524 105.579 240.212 105.378 239.811C105.178 239.408 105.078 238.935 105.078 238.393C105.078 237.858 105.178 237.386 105.378 236.978C105.579 236.57 105.861 236.252 106.221 236.023C106.584 235.794 107.008 235.679 107.493 235.679C107.788 235.679 108.073 235.728 108.35 235.826C108.626 235.923 108.875 236.076 109.094 236.285C109.314 236.493 109.488 236.764 109.615 237.097C109.742 237.428 109.805 237.831 109.805 238.305V238.665H105.653V237.903H108.809C108.809 237.636 108.754 237.399 108.646 237.193C108.537 236.984 108.384 236.82 108.187 236.7C107.992 236.579 107.763 236.519 107.5 236.519C107.214 236.519 106.965 236.59 106.751 236.73C106.541 236.868 106.377 237.05 106.262 237.274C106.148 237.496 106.092 237.738 106.092 237.999V238.594C106.092 238.943 106.153 239.24 106.275 239.485C106.4 239.729 106.573 239.917 106.796 240.046C107.018 240.173 107.277 240.236 107.574 240.236C107.767 240.236 107.943 240.209 108.101 240.155C108.26 240.098 108.397 240.014 108.513 239.903C108.629 239.792 108.717 239.655 108.778 239.491L109.741 239.665C109.663 239.948 109.525 240.197 109.326 240.41C109.128 240.62 108.88 240.785 108.581 240.903C108.284 241.018 107.945 241.076 107.564 241.076ZM112.142 237.869V240.971H111.125V235.747H112.101V236.598H112.165C112.286 236.321 112.474 236.099 112.73 235.931C112.988 235.763 113.314 235.679 113.706 235.679C114.062 235.679 114.374 235.754 114.641 235.904C114.909 236.051 115.116 236.271 115.263 236.564C115.411 236.856 115.484 237.218 115.484 237.648V240.971H114.468V237.771C114.468 237.392 114.369 237.096 114.172 236.883C113.975 236.668 113.704 236.56 113.359 236.56C113.123 236.56 112.914 236.611 112.73 236.713C112.549 236.815 112.405 236.965 112.298 237.162C112.194 237.357 112.142 237.593 112.142 237.869ZM118.995 241.073C118.573 241.073 118.197 240.965 117.866 240.75C117.537 240.532 117.279 240.223 117.091 239.821C116.905 239.418 116.812 238.934 116.812 238.369C116.812 237.805 116.906 237.322 117.094 236.921C117.284 236.519 117.545 236.212 117.876 235.999C118.207 235.786 118.582 235.679 119.002 235.679C119.326 235.679 119.587 235.734 119.784 235.843C119.983 235.949 120.138 236.074 120.246 236.217C120.357 236.36 120.444 236.485 120.505 236.594H120.566V234.006H121.583V240.971H120.59V240.158H120.505C120.444 240.269 120.355 240.396 120.24 240.539C120.126 240.682 119.97 240.806 119.77 240.913C119.571 241.019 119.312 241.073 118.995 241.073ZM119.219 240.206C119.512 240.206 119.759 240.128 119.961 239.974C120.165 239.818 120.319 239.601 120.423 239.325C120.53 239.048 120.583 238.726 120.583 238.359C120.583 237.996 120.531 237.679 120.427 237.407C120.322 237.135 120.169 236.923 119.967 236.771C119.766 236.619 119.516 236.543 119.219 236.543C118.913 236.543 118.658 236.622 118.454 236.781C118.25 236.94 118.096 237.156 117.992 237.431C117.89 237.705 117.839 238.014 117.839 238.359C117.839 238.708 117.891 239.022 117.995 239.301C118.099 239.58 118.254 239.801 118.458 239.964C118.664 240.125 118.918 240.206 119.219 240.206ZM130.511 234.006H131.566V238.587C131.566 239.074 131.451 239.506 131.222 239.883C130.993 240.257 130.671 240.551 130.256 240.767C129.842 240.98 129.355 241.086 128.798 241.086C128.242 241.086 127.757 240.98 127.342 240.767C126.927 240.551 126.605 240.257 126.376 239.883C126.147 239.506 126.033 239.074 126.033 238.587V234.006H127.084V238.502C127.084 238.817 127.153 239.097 127.291 239.342C127.432 239.587 127.63 239.779 127.886 239.92C128.142 240.058 128.446 240.127 128.798 240.127C129.151 240.127 129.456 240.058 129.712 239.92C129.971 239.779 130.168 239.587 130.304 239.342C130.442 239.097 130.511 238.817 130.511 238.502V234.006ZM134.336 234.006V240.971H133.285V234.006H134.336Z" fill="white"/>
<path d="M178.661 210.816C178.474 211.003 178.474 211.306 178.661 211.493L181.709 214.54C181.896 214.727 182.199 214.727 182.386 214.54C182.573 214.353 182.573 214.05 182.386 213.863L179.677 211.154L182.386 208.446C182.573 208.259 182.573 207.956 182.386 207.769C182.199 207.582 181.896 207.582 181.709 207.769L178.661 210.816ZM217.083 211.493C217.27 211.306 217.27 211.003 217.083 210.816L214.036 207.769C213.849 207.582 213.546 207.582 213.359 207.769C213.172 207.956 213.172 208.259 213.359 208.446L216.067 211.154L213.359 213.863C213.172 214.05 213.172 214.353 213.359 214.54C213.546 214.727 213.849 214.727 214.036 214.54L217.083 211.493ZM179 211.154L179 211.633L216.744 211.633L216.744 211.154L216.744 210.675L179 210.675L179 211.154Z" fill="white"/>
<path d="M277.661 127.661C277.474 127.848 277.474 128.152 277.661 128.339L280.709 131.386C280.896 131.573 281.199 131.573 281.386 131.386C281.573 131.199 281.573 130.896 281.386 130.709L278.677 128L281.386 125.291C281.573 125.104 281.573 124.801 281.386 124.614C281.199 124.427 280.896 124.427 280.709 124.614L277.661 127.661ZM316.083 128.339C316.27 128.152 316.27 127.848 316.083 127.661L313.036 124.614C312.849 124.427 312.546 124.427 312.359 124.614C312.172 124.801 312.172 125.104 312.359 125.291L315.067 128L312.359 130.709C312.172 130.896 312.172 131.199 312.359 131.386C312.546 131.573 312.849 131.573 313.036 131.386L316.083 128.339ZM278 128L278 128.479L315.744 128.479L315.744 128L315.744 127.521L278 127.521L278 128Z" fill="white"/>
<path d="M277.661 169.661C277.474 169.848 277.474 170.152 277.661 170.339L280.709 173.386C280.896 173.573 281.199 173.573 281.386 173.386C281.573 173.199 281.573 172.896 281.386 172.709L278.677 170L281.386 167.291C281.573 167.104 281.573 166.801 281.386 166.614C281.199 166.427 280.896 166.427 280.709 166.614L277.661 169.661ZM316.083 170.339C316.27 170.152 316.27 169.848 316.083 169.661L313.036 166.614C312.849 166.427 312.546 166.427 312.359 166.614C312.172 166.801 312.172 167.104 312.359 167.291L315.067 170L312.359 172.709C312.172 172.896 312.172 173.199 312.359 173.386C312.546 173.573 312.849 173.573 313.036 173.386L316.083 170.339ZM278 170L278 170.479L315.744 170.479L315.744 170L315.744 169.521L278 169.521L278 170Z" fill="white"/>
<path d="M277.661 211.661C277.474 211.848 277.474 212.152 277.661 212.339L280.709 215.386C280.896 215.573 281.199 215.573 281.386 215.386C281.573 215.199 281.573 214.896 281.386 214.709L278.677 212L281.386 209.291C281.573 209.104 281.573 208.801 281.386 208.614C281.199 208.427 280.896 208.427 280.709 208.614L277.661 211.661ZM316.083 212.339C316.27 212.152 316.27 211.848 316.083 211.661L313.036 208.614C312.849 208.427 312.546 208.427 312.359 208.614C312.172 208.801 312.172 209.104 312.359 209.291L315.067 212L312.359 214.709C312.172 214.896 312.172 215.199 312.359 215.386C312.546 215.573 312.849 215.573 313.036 215.386L316.083 212.339ZM278 212L278 212.479L315.744 212.479L315.744 212L315.744 211.521L278 211.521L278 212Z" fill="white"/>
<path d="M277.661 253.661C277.474 253.848 277.474 254.152 277.661 254.339L280.709 257.386C280.896 257.573 281.199 257.573 281.386 257.386C281.573 257.199 281.573 256.896 281.386 256.709L278.677 254L281.386 251.291C281.573 251.104 281.573 250.801 281.386 250.614C281.199 250.427 280.896 250.427 280.709 250.614L277.661 253.661ZM316.083 254.339C316.27 254.152 316.27 253.848 316.083 253.661L313.036 250.614C312.849 250.427 312.546 250.427 312.359 250.614C312.172 250.801 312.172 251.104 312.359 251.291L315.067 254L312.359 256.709C312.172 256.896 312.172 257.199 312.359 257.386C312.546 257.573 312.849 257.573 313.036 257.386L316.083 254.339ZM278 254L278 254.479L315.744 254.479L315.744 254L315.744 253.521L278 253.521L278 254Z" fill="white"/>
<path d="M277.661 295.661C277.474 295.848 277.474 296.152 277.661 296.339L280.709 299.386C280.896 299.573 281.199 299.573 281.386 299.386C281.573 299.199 281.573 298.896 281.386 298.709L278.677 296L281.386 293.291C281.573 293.104 281.573 292.801 281.386 292.614C281.199 292.427 280.896 292.427 280.709 292.614L277.661 295.661ZM316.083 296.339C316.27 296.152 316.27 295.848 316.083 295.661L313.036 292.614C312.849 292.427 312.546 292.427 312.359 292.614C312.172 292.801 312.172 293.104 312.359 293.291L315.067 296L312.359 298.709C312.172 298.896 312.172 299.199 312.359 299.386C312.546 299.573 312.849 299.573 313.036 299.386L316.083 296.339ZM278 296L278 296.479L315.744 296.479L315.744 296L315.744 295.521L278 295.521L278 296Z" fill="white"/>
<rect x="319.5" y="97.5" width="145" height="227" stroke="white"/>
<rect x="333.719" y="114.805" width="115.468" height="27.0387" stroke="white"/>
<path d="M384.234 131L382.496 124.732H383.491L384.712 129.586H384.77L386.04 124.732H387.026L388.296 129.589H388.354L389.572 124.732H390.57L388.828 131H387.876L386.557 126.305H386.508L385.189 131H384.234ZM393.094 131.095C392.631 131.095 392.232 130.996 391.897 130.798C391.565 130.598 391.308 130.318 391.126 129.956C390.947 129.593 390.857 129.168 390.857 128.68C390.857 128.199 390.947 127.774 391.126 127.407C391.308 127.04 391.561 126.753 391.885 126.547C392.212 126.341 392.593 126.238 393.03 126.238C393.295 126.238 393.552 126.282 393.801 126.369C394.05 126.457 394.273 126.595 394.471 126.783C394.669 126.97 394.825 127.214 394.94 127.514C395.054 127.812 395.111 128.174 395.111 128.601V128.925H391.374V128.239H394.214C394.214 127.999 394.165 127.785 394.067 127.6C393.969 127.412 393.832 127.264 393.654 127.156C393.479 127.048 393.273 126.994 393.036 126.994C392.779 126.994 392.554 127.057 392.363 127.184C392.173 127.308 392.026 127.471 391.922 127.673C391.82 127.873 391.769 128.09 391.769 128.325V128.861C391.769 129.175 391.824 129.442 391.934 129.663C392.046 129.883 392.202 130.051 392.402 130.168C392.602 130.282 392.836 130.339 393.103 130.339C393.277 130.339 393.435 130.314 393.578 130.265C393.72 130.214 393.844 130.139 393.948 130.039C394.052 129.939 394.132 129.816 394.187 129.669L395.053 129.825C394.983 130.08 394.859 130.303 394.679 130.495C394.502 130.685 394.278 130.833 394.009 130.939C393.742 131.043 393.437 131.095 393.094 131.095ZM396.372 131V124.732H397.287V127.061H397.342C397.395 126.963 397.472 126.85 397.572 126.721C397.672 126.593 397.811 126.481 397.988 126.385C398.166 126.287 398.4 126.238 398.692 126.238C399.071 126.238 399.41 126.334 399.708 126.526C400.006 126.717 400.24 126.994 400.409 127.355C400.58 127.716 400.666 128.151 400.666 128.659C400.666 129.167 400.581 129.602 400.412 129.966C400.243 130.327 400.01 130.605 399.714 130.801C399.418 130.995 399.081 131.092 398.701 131.092C398.416 131.092 398.182 131.044 398 130.948C397.821 130.852 397.68 130.74 397.578 130.611C397.476 130.483 397.397 130.369 397.342 130.269H397.266V131H396.372ZM397.269 128.65C397.269 128.98 397.317 129.27 397.413 129.519C397.509 129.768 397.647 129.962 397.829 130.103C398.011 130.242 398.233 130.311 398.496 130.311C398.77 130.311 398.998 130.239 399.182 130.094C399.365 129.947 399.504 129.748 399.598 129.497C399.694 129.246 399.742 128.964 399.742 128.65C399.742 128.339 399.695 128.061 399.601 127.814C399.509 127.567 399.37 127.372 399.185 127.229C399.001 127.087 398.772 127.015 398.496 127.015C398.231 127.015 398.006 127.084 397.823 127.22C397.641 127.357 397.503 127.548 397.41 127.793C397.316 128.037 397.269 128.323 397.269 128.65Z" fill="white"/>
<rect x="333.719" y="156.357" width="115.468" height="27.0387" stroke="white"/>
<path d="M376.018 173H373.989V166.732H376.083C376.697 166.732 377.224 166.858 377.665 167.108C378.106 167.357 378.443 167.715 378.678 168.183C378.915 168.648 379.033 169.206 379.033 169.857C379.033 170.51 378.914 171.071 378.675 171.54C378.438 172.009 378.096 172.371 377.647 172.624C377.198 172.875 376.655 173 376.018 173ZM374.935 172.174H375.966C376.444 172.174 376.841 172.084 377.157 171.904C377.473 171.723 377.71 171.461 377.867 171.118C378.024 170.773 378.103 170.353 378.103 169.857C378.103 169.365 378.024 168.948 377.867 168.605C377.712 168.262 377.48 168.002 377.172 167.825C376.864 167.647 376.482 167.558 376.025 167.558H374.935V172.174ZM382.334 173.095C381.871 173.095 381.472 172.996 381.137 172.798C380.805 172.598 380.548 172.318 380.366 171.956C380.187 171.593 380.097 171.168 380.097 170.68C380.097 170.199 380.187 169.774 380.366 169.407C380.548 169.04 380.801 168.753 381.125 168.547C381.452 168.341 381.833 168.238 382.27 168.238C382.535 168.238 382.792 168.282 383.041 168.369C383.29 168.457 383.513 168.595 383.711 168.783C383.909 168.97 384.065 169.214 384.18 169.514C384.294 169.812 384.351 170.174 384.351 170.601V170.925H380.614V170.239H383.454C383.454 169.999 383.405 169.785 383.307 169.6C383.209 169.412 383.072 169.264 382.894 169.156C382.719 169.048 382.513 168.994 382.276 168.994C382.019 168.994 381.794 169.057 381.603 169.184C381.413 169.308 381.266 169.471 381.162 169.673C381.06 169.873 381.009 170.09 381.009 170.325V170.861C381.009 171.175 381.064 171.442 381.174 171.663C381.286 171.883 381.442 172.051 381.642 172.168C381.842 172.282 382.076 172.339 382.343 172.339C382.517 172.339 382.675 172.314 382.818 172.265C382.96 172.214 383.084 172.139 383.188 172.039C383.292 171.939 383.372 171.816 383.427 171.669L384.293 171.825C384.223 172.08 384.099 172.303 383.919 172.495C383.742 172.685 383.518 172.833 383.249 172.939C382.982 173.043 382.677 173.095 382.334 173.095ZM389.061 169.447L388.232 169.594C388.197 169.488 388.142 169.387 388.067 169.291C387.993 169.195 387.893 169.116 387.767 169.055C387.64 168.994 387.482 168.963 387.292 168.963C387.033 168.963 386.817 169.021 386.644 169.138C386.47 169.252 386.383 169.4 386.383 169.581C386.383 169.738 386.442 169.865 386.558 169.961C386.674 170.057 386.862 170.135 387.121 170.197L387.868 170.368C388.3 170.468 388.623 170.622 388.835 170.83C389.047 171.038 389.153 171.309 389.153 171.641C389.153 171.923 389.072 172.174 388.908 172.394C388.747 172.612 388.522 172.784 388.232 172.908C387.944 173.033 387.611 173.095 387.231 173.095C386.705 173.095 386.275 172.983 385.943 172.758C385.61 172.532 385.406 172.21 385.331 171.794L386.215 171.659C386.27 171.89 386.383 172.064 386.555 172.183C386.726 172.299 386.95 172.357 387.225 172.357C387.525 172.357 387.765 172.295 387.944 172.171C388.124 172.044 388.214 171.89 388.214 171.708C388.214 171.562 388.158 171.438 388.048 171.338C387.94 171.238 387.774 171.163 387.549 171.112L386.754 170.937C386.315 170.837 385.991 170.678 385.78 170.46C385.572 170.241 385.468 169.965 385.468 169.63C385.468 169.353 385.546 169.11 385.701 168.902C385.856 168.694 386.07 168.532 386.344 168.415C386.617 168.297 386.93 168.238 387.283 168.238C387.791 168.238 388.191 168.348 388.483 168.568C388.775 168.787 388.967 169.079 389.061 169.447ZM391.173 171.405L391.167 170.288H391.326L393.199 168.299H394.295L392.159 170.564H392.015L391.173 171.405ZM390.332 173V166.732H391.247V173H390.332ZM393.3 173L391.617 170.766L392.248 170.126L394.424 173H393.3ZM397.496 168.299V169.034H394.928V168.299H397.496ZM395.617 167.173H396.532V171.62C396.532 171.797 396.558 171.931 396.611 172.021C396.664 172.108 396.733 172.169 396.816 172.201C396.902 172.232 396.995 172.247 397.095 172.247C397.168 172.247 397.233 172.242 397.288 172.232C397.343 172.222 397.386 172.213 397.416 172.207L397.582 172.963C397.528 172.984 397.453 173.004 397.355 173.024C397.257 173.047 397.135 173.059 396.988 173.061C396.747 173.065 396.523 173.022 396.314 172.933C396.106 172.843 395.938 172.704 395.809 172.516C395.681 172.329 395.617 172.093 395.617 171.809V167.173ZM400.61 173.095C400.169 173.095 399.785 172.994 399.456 172.792C399.128 172.59 398.873 172.307 398.691 171.944C398.51 171.581 398.419 171.157 398.419 170.671C398.419 170.183 398.51 169.757 398.691 169.392C398.873 169.026 399.128 168.743 399.456 168.541C399.785 168.339 400.169 168.238 400.61 168.238C401.051 168.238 401.435 168.339 401.764 168.541C402.092 168.743 402.347 169.026 402.529 169.392C402.711 169.757 402.801 170.183 402.801 170.671C402.801 171.157 402.711 171.581 402.529 171.944C402.347 172.307 402.092 172.59 401.764 172.792C401.435 172.994 401.051 173.095 400.61 173.095ZM400.613 172.327C400.899 172.327 401.136 172.251 401.323 172.1C401.511 171.949 401.65 171.748 401.739 171.497C401.831 171.246 401.877 170.97 401.877 170.668C401.877 170.368 401.831 170.092 401.739 169.842C401.65 169.589 401.511 169.386 401.323 169.232C401.136 169.079 400.899 169.003 400.613 169.003C400.325 169.003 400.087 169.079 399.897 169.232C399.709 169.386 399.57 169.589 399.478 169.842C399.388 170.092 399.343 170.368 399.343 170.668C399.343 170.97 399.388 171.246 399.478 171.497C399.57 171.748 399.709 171.949 399.897 172.1C400.087 172.251 400.325 172.327 400.613 172.327ZM403.995 174.763V168.299H404.889V169.061H404.965C405.019 168.963 405.095 168.85 405.195 168.721C405.295 168.593 405.434 168.481 405.611 168.385C405.789 168.287 406.023 168.238 406.315 168.238C406.695 168.238 407.033 168.334 407.331 168.526C407.629 168.717 407.863 168.994 408.032 169.355C408.204 169.716 408.289 170.151 408.289 170.659C408.289 171.167 408.205 171.602 408.035 171.966C407.866 172.327 407.633 172.605 407.337 172.801C407.042 172.995 406.704 173.092 406.324 173.092C406.039 173.092 405.805 173.044 405.623 172.948C405.444 172.852 405.303 172.74 405.201 172.611C405.099 172.483 405.021 172.369 404.965 172.269H404.91V174.763H403.995ZM404.892 170.65C404.892 170.98 404.94 171.27 405.036 171.519C405.132 171.768 405.27 171.962 405.452 172.103C405.634 172.242 405.856 172.311 406.119 172.311C406.393 172.311 406.621 172.239 406.805 172.094C406.988 171.947 407.127 171.748 407.221 171.497C407.317 171.246 407.365 170.964 407.365 170.65C407.365 170.339 407.318 170.061 407.224 169.814C407.132 169.567 406.994 169.372 406.808 169.229C406.624 169.087 406.395 169.015 406.119 169.015C405.854 169.015 405.63 169.084 405.446 169.22C405.264 169.357 405.127 169.548 405.033 169.793C404.939 170.037 404.892 170.323 404.892 170.65Z" fill="white"/>
<rect x="333.719" y="197.912" width="115.468" height="27.0387" stroke="white"/>
<path d="M376.921 207.73H378.069L380.064 212.602H380.138L382.133 207.73H383.281V213.998H382.381V209.462H382.323L380.474 213.989H379.728L377.879 209.459H377.821V213.998H376.921V207.73ZM386.735 214.093C386.294 214.093 385.91 213.992 385.581 213.79C385.253 213.588 384.997 213.305 384.816 212.942C384.634 212.579 384.544 212.155 384.544 211.669C384.544 211.181 384.634 210.755 384.816 210.39C384.997 210.024 385.253 209.741 385.581 209.539C385.91 209.337 386.294 209.236 386.735 209.236C387.176 209.236 387.56 209.337 387.889 209.539C388.217 209.741 388.472 210.024 388.654 210.39C388.835 210.755 388.926 211.181 388.926 211.669C388.926 212.155 388.835 212.579 388.654 212.942C388.472 213.305 388.217 213.588 387.889 213.79C387.56 213.992 387.176 214.093 386.735 214.093ZM386.738 213.325C387.024 213.325 387.26 213.249 387.448 213.098C387.636 212.947 387.774 212.746 387.864 212.495C387.956 212.244 388.002 211.968 388.002 211.666C388.002 211.366 387.956 211.091 387.864 210.84C387.774 210.587 387.636 210.384 387.448 210.231C387.26 210.078 387.024 210.001 386.738 210.001C386.45 210.001 386.211 210.078 386.022 210.231C385.834 210.384 385.694 210.587 385.602 210.84C385.513 211.091 385.468 211.366 385.468 211.666C385.468 211.968 385.513 212.244 385.602 212.495C385.694 212.746 385.834 212.947 386.022 213.098C386.211 213.249 386.45 213.325 386.738 213.325ZM390.193 213.998V207.73H391.109V210.059H391.164C391.217 209.961 391.293 209.848 391.393 209.719C391.493 209.591 391.632 209.479 391.809 209.383C391.987 209.285 392.222 209.236 392.513 209.236C392.893 209.236 393.232 209.332 393.529 209.524C393.827 209.715 394.061 209.992 394.23 210.353C394.402 210.714 394.487 211.149 394.487 211.657C394.487 212.165 394.403 212.6 394.233 212.964C394.064 213.325 393.831 213.603 393.536 213.799C393.24 213.993 392.902 214.09 392.523 214.09C392.237 214.09 392.003 214.042 391.822 213.946C391.642 213.85 391.501 213.738 391.399 213.609C391.297 213.481 391.219 213.367 391.164 213.267H391.087V213.998H390.193ZM391.09 211.648C391.09 211.978 391.138 212.268 391.234 212.517C391.33 212.766 391.469 212.961 391.65 213.101C391.832 213.24 392.054 213.309 392.317 213.309C392.591 213.309 392.819 213.237 393.003 213.092C393.187 212.945 393.325 212.746 393.419 212.495C393.515 212.244 393.563 211.962 393.563 211.648C393.563 211.337 393.516 211.059 393.422 210.812C393.331 210.565 393.192 210.37 393.006 210.227C392.822 210.085 392.593 210.013 392.317 210.013C392.052 210.013 391.828 210.082 391.644 210.218C391.463 210.355 391.325 210.546 391.231 210.791C391.137 211.035 391.09 211.321 391.09 211.648ZM395.687 213.998V209.297H396.602V213.998H395.687ZM396.149 208.572C395.99 208.572 395.854 208.519 395.739 208.413C395.627 208.304 395.571 208.176 395.571 208.027C395.571 207.876 395.627 207.747 395.739 207.641C395.854 207.533 395.99 207.479 396.149 207.479C396.309 207.479 396.444 207.533 396.557 207.641C396.671 207.747 396.728 207.876 396.728 208.027C396.728 208.176 396.671 208.304 396.557 208.413C396.444 208.519 396.309 208.572 396.149 208.572ZM398.921 207.73V213.998H398.006V207.73H398.921ZM402.351 214.093C401.887 214.093 401.488 213.994 401.154 213.796C400.821 213.596 400.564 213.316 400.383 212.954C400.203 212.591 400.113 212.166 400.113 211.678C400.113 211.197 400.203 210.772 400.383 210.405C400.564 210.038 400.817 209.751 401.142 209.545C401.468 209.339 401.85 209.236 402.286 209.236C402.552 209.236 402.809 209.28 403.058 209.367C403.306 209.455 403.53 209.593 403.728 209.781C403.926 209.968 404.082 210.212 404.196 210.512C404.31 210.81 404.367 211.172 404.367 211.599V211.923H400.631V211.237H403.471C403.471 210.997 403.422 210.783 403.324 210.598C403.226 210.41 403.088 210.262 402.911 210.154C402.735 210.046 402.529 209.992 402.292 209.992C402.035 209.992 401.811 210.055 401.619 210.182C401.429 210.306 401.282 210.469 401.178 210.671C401.076 210.871 401.025 211.089 401.025 211.323V211.859C401.025 212.173 401.08 212.44 401.191 212.661C401.303 212.881 401.459 213.049 401.659 213.166C401.859 213.28 402.092 213.337 402.36 213.337C402.533 213.337 402.691 213.312 402.834 213.264C402.977 213.213 403.1 213.137 403.204 213.037C403.308 212.937 403.388 212.814 403.443 212.667L404.309 212.823C404.24 213.078 404.115 213.301 403.936 213.493C403.758 213.683 403.535 213.831 403.266 213.937C402.998 214.041 402.693 214.093 402.351 214.093Z" fill="white"/>
<rect x="333.719" y="281.018" width="115.468" height="27.0387" stroke="white"/>
<path d="M379.557 298.002H378.665L380.67 292.43H381.641L383.646 298.002H382.753L381.178 293.442H381.135L379.557 298.002ZM379.706 295.82H382.601V296.527H379.706V295.82ZM384.604 298.002V292.43H386.589C387.021 292.43 387.379 292.505 387.664 292.654C387.951 292.802 388.165 293.008 388.306 293.271C388.448 293.532 388.518 293.834 388.518 294.177C388.518 294.518 388.447 294.818 388.303 295.077C388.162 295.335 387.948 295.535 387.661 295.679C387.377 295.822 387.018 295.894 386.587 295.894H385.082V295.17H386.511C386.783 295.17 387.004 295.131 387.174 295.053C387.347 294.975 387.473 294.862 387.553 294.713C387.632 294.564 387.672 294.386 387.672 294.177C387.672 293.967 387.631 293.784 387.55 293.63C387.47 293.476 387.344 293.358 387.172 293.276C387.001 293.193 386.777 293.151 386.5 293.151H385.444V298.002H384.604ZM387.354 295.488L388.73 298.002H387.773L386.424 295.488H387.354ZM391.751 292.169L389.956 298.84H389.229L391.025 292.169H391.751ZM393.17 292.43L394.721 296.968H394.783L396.334 292.43H397.243L395.238 298.002H394.266L392.261 292.43H393.17ZM398.2 298.002V292.43H400.186C400.618 292.43 400.976 292.505 401.261 292.654C401.547 292.802 401.761 293.008 401.903 293.271C402.044 293.532 402.115 293.834 402.115 294.177C402.115 294.518 402.043 294.818 401.9 295.077C401.759 295.335 401.545 295.535 401.258 295.679C400.973 295.822 400.615 295.894 400.184 295.894H398.679V295.17H400.107C400.379 295.17 400.601 295.131 400.771 295.053C400.943 294.975 401.07 294.862 401.149 294.713C401.229 294.564 401.269 294.386 401.269 294.177C401.269 293.967 401.228 293.784 401.147 293.63C401.067 293.476 400.941 293.358 400.768 293.276C400.598 293.193 400.374 293.151 400.097 293.151H399.041V298.002H398.2ZM400.951 295.488L402.327 298.002H401.37L400.02 295.488H400.951Z" fill="white"/>
<rect x="333.719" y="239.465" width="115.468" height="27.0387" stroke="white"/>
<path d="M357.788 249.732V256H356.842V249.732H357.788ZM361.244 256.095C360.804 256.095 360.419 255.994 360.09 255.792C359.762 255.59 359.507 255.307 359.325 254.944C359.144 254.581 359.053 254.157 359.053 253.671C359.053 253.183 359.144 252.757 359.325 252.392C359.507 252.026 359.762 251.743 360.09 251.541C360.419 251.339 360.804 251.238 361.244 251.238C361.685 251.238 362.07 251.339 362.398 251.541C362.727 251.743 362.982 252.026 363.163 252.392C363.345 252.757 363.436 253.183 363.436 253.671C363.436 254.157 363.345 254.581 363.163 254.944C362.982 255.307 362.727 255.59 362.398 255.792C362.07 255.994 361.685 256.095 361.244 256.095ZM361.247 255.327C361.533 255.327 361.77 255.251 361.957 255.1C362.145 254.949 362.284 254.748 362.374 254.497C362.465 254.246 362.511 253.97 362.511 253.668C362.511 253.368 362.465 253.092 362.374 252.842C362.284 252.589 362.145 252.386 361.957 252.232C361.77 252.079 361.533 252.003 361.247 252.003C360.96 252.003 360.721 252.079 360.531 252.232C360.343 252.386 360.204 252.589 360.112 252.842C360.022 253.092 359.977 253.368 359.977 253.668C359.977 253.97 360.022 254.246 360.112 254.497C360.204 254.748 360.343 254.949 360.531 255.1C360.721 255.251 360.96 255.327 361.247 255.327ZM364.049 250.546V249.732H368.9V250.546H366.944V256H366.001V250.546H364.049ZM374.348 256.089C373.927 256.089 373.565 256.012 373.261 255.859C372.959 255.706 372.727 255.498 372.564 255.235C372.4 254.97 372.319 254.67 372.319 254.335C372.319 254.08 372.372 253.854 372.478 253.656C372.584 253.456 372.732 253.271 372.922 253.102C373.111 252.932 373.331 252.762 373.58 252.591L374.59 251.877C374.761 251.765 374.895 251.647 374.991 251.522C375.086 251.396 375.134 251.24 375.134 251.054C375.134 250.907 375.071 250.766 374.945 250.632C374.818 250.497 374.649 250.43 374.437 250.43C374.29 250.43 374.16 250.466 374.048 250.537C373.938 250.608 373.851 250.7 373.788 250.812C373.727 250.923 373.696 251.039 373.696 251.161C373.696 251.304 373.735 251.448 373.812 251.593C373.892 251.738 373.994 251.888 374.118 252.043C374.243 252.196 374.373 252.355 374.51 252.52L377.421 256H376.386L373.977 253.169C373.775 252.93 373.588 252.706 373.414 252.496C373.241 252.283 373.1 252.069 372.992 251.853C372.886 251.635 372.833 251.399 372.833 251.146C372.833 250.858 372.898 250.603 373.029 250.381C373.161 250.156 373.346 249.981 373.583 249.854C373.819 249.728 374.097 249.665 374.415 249.665C374.737 249.665 375.014 249.728 375.245 249.854C375.477 249.979 375.656 250.145 375.78 250.353C375.907 250.559 375.97 250.785 375.97 251.03C375.97 251.328 375.895 251.591 375.746 251.819C375.6 252.046 375.397 252.254 375.137 252.444L373.88 253.371C373.635 253.551 373.464 253.728 373.368 253.904C373.275 254.077 373.228 254.213 373.228 254.311C373.228 254.49 373.274 254.656 373.365 254.809C373.459 254.962 373.59 255.085 373.757 255.177C373.926 255.269 374.124 255.314 374.351 255.314C374.583 255.314 374.81 255.264 375.03 255.164C375.253 255.062 375.454 254.917 375.633 254.727C375.815 254.537 375.959 254.31 376.065 254.044C376.171 253.779 376.224 253.482 376.224 253.154H377.05C377.05 253.558 377.004 253.899 376.913 254.179C376.821 254.456 376.71 254.683 376.579 254.858C376.45 255.032 376.329 255.168 376.215 255.265C376.178 255.298 376.143 255.331 376.111 255.363C376.078 255.396 376.043 255.429 376.007 255.461C375.794 255.676 375.537 255.834 375.235 255.936C374.935 256.038 374.64 256.089 374.348 256.089ZM382.064 256L380.325 249.732H381.32L382.541 254.586H382.599L383.87 249.732H384.855L386.125 254.589H386.183L387.401 249.732H388.399L386.658 256H385.706L384.387 251.305H384.338L383.019 256H382.064ZM390.924 256.095C390.46 256.095 390.061 255.996 389.727 255.798C389.394 255.598 389.137 255.318 388.956 254.956C388.776 254.593 388.686 254.168 388.686 253.68C388.686 253.199 388.776 252.774 388.956 252.407C389.137 252.04 389.39 251.753 389.715 251.547C390.041 251.341 390.423 251.238 390.859 251.238C391.124 251.238 391.382 251.282 391.63 251.369C391.879 251.457 392.103 251.595 392.301 251.783C392.499 251.97 392.655 252.214 392.769 252.514C392.883 252.812 392.94 253.174 392.94 253.601V253.925H389.203V253.239H392.044C392.044 252.999 391.995 252.785 391.897 252.6C391.799 252.412 391.661 252.264 391.484 252.156C391.308 252.048 391.102 251.994 390.865 251.994C390.608 251.994 390.384 252.057 390.192 252.184C390.002 252.308 389.855 252.471 389.751 252.673C389.649 252.873 389.598 253.09 389.598 253.325V253.861C389.598 254.175 389.653 254.442 389.764 254.663C389.876 254.883 390.032 255.051 390.232 255.168C390.432 255.282 390.665 255.339 390.933 255.339C391.106 255.339 391.264 255.314 391.407 255.265C391.55 255.214 391.673 255.139 391.777 255.039C391.881 254.939 391.961 254.816 392.016 254.669L392.882 254.825C392.813 255.08 392.688 255.303 392.509 255.495C392.331 255.685 392.108 255.833 391.839 255.939C391.571 256.043 391.266 256.095 390.924 256.095ZM395.496 256.104C395.198 256.104 394.929 256.049 394.688 255.939C394.447 255.827 394.257 255.664 394.116 255.452C393.977 255.24 393.908 254.98 393.908 254.672C393.908 254.406 393.959 254.188 394.061 254.017C394.163 253.845 394.301 253.71 394.474 253.61C394.647 253.51 394.841 253.434 395.055 253.383C395.27 253.332 395.488 253.293 395.71 253.267C395.992 253.234 396.22 253.208 396.396 253.187C396.571 253.165 396.699 253.129 396.779 253.08C396.858 253.031 396.898 252.952 396.898 252.842V252.82C396.898 252.553 396.822 252.346 396.671 252.199C396.522 252.052 396.3 251.978 396.004 251.978C395.696 251.978 395.453 252.047 395.276 252.184C395.1 252.318 394.979 252.468 394.912 252.633L394.052 252.438C394.154 252.152 394.303 251.921 394.498 251.746C394.696 251.568 394.924 251.44 395.181 251.36C395.438 251.279 395.708 251.238 395.992 251.238C396.18 251.238 396.379 251.26 396.589 251.305C396.801 251.348 396.999 251.428 397.183 251.544C397.368 251.66 397.52 251.826 397.639 252.043C397.757 252.257 397.816 252.535 397.816 252.878V256H396.922V255.357H396.886C396.826 255.476 396.738 255.592 396.619 255.706C396.501 255.82 396.349 255.915 396.163 255.991C395.978 256.066 395.755 256.104 395.496 256.104ZM395.695 255.37C395.948 255.37 396.164 255.32 396.344 255.22C396.526 255.12 396.663 254.989 396.757 254.828C396.853 254.665 396.901 254.49 396.901 254.304V253.698C396.868 253.731 396.805 253.762 396.711 253.79C396.619 253.817 396.514 253.84 396.396 253.861C396.278 253.879 396.162 253.896 396.05 253.913C395.938 253.927 395.844 253.939 395.769 253.949C395.591 253.972 395.429 254.01 395.282 254.063C395.137 254.116 395.021 254.192 394.933 254.292C394.847 254.39 394.804 254.521 394.804 254.684C394.804 254.91 394.888 255.082 395.055 255.198C395.223 255.312 395.436 255.37 395.695 255.37ZM399.207 256V251.299H400.092V252.046H400.141C400.226 251.793 400.377 251.594 400.594 251.449C400.812 251.302 401.059 251.229 401.334 251.229C401.391 251.229 401.459 251.231 401.536 251.235C401.616 251.239 401.678 251.244 401.723 251.25V252.125C401.686 252.115 401.621 252.104 401.527 252.092C401.433 252.077 401.339 252.07 401.246 252.07C401.029 252.07 400.836 252.116 400.667 252.208C400.5 252.298 400.367 252.423 400.269 252.584C400.171 252.744 400.122 252.925 400.122 253.129V256H399.207ZM404.013 256.104C403.715 256.104 403.446 256.049 403.205 255.939C402.965 255.827 402.774 255.664 402.633 255.452C402.494 255.24 402.425 254.98 402.425 254.672C402.425 254.406 402.476 254.188 402.578 254.017C402.68 253.845 402.818 253.71 402.991 253.61C403.164 253.51 403.358 253.434 403.573 253.383C403.787 253.332 404.005 253.293 404.228 253.267C404.509 253.234 404.738 253.208 404.913 253.187C405.089 253.165 405.216 253.129 405.296 253.08C405.375 253.031 405.415 252.952 405.415 252.842V252.82C405.415 252.553 405.339 252.346 405.189 252.199C405.04 252.052 404.817 251.978 404.521 251.978C404.213 251.978 403.97 252.047 403.793 252.184C403.617 252.318 403.496 252.468 403.429 252.633L402.569 252.438C402.671 252.152 402.82 251.921 403.016 251.746C403.213 251.568 403.441 251.44 403.698 251.36C403.955 251.279 404.225 251.238 404.509 251.238C404.697 251.238 404.896 251.26 405.106 251.305C405.318 251.348 405.516 251.428 405.7 251.544C405.885 251.66 406.037 251.826 406.156 252.043C406.274 252.257 406.333 252.535 406.333 252.878V256H405.439V255.357H405.403C405.344 255.476 405.255 255.592 405.136 255.706C405.018 255.82 404.866 255.915 404.68 255.991C404.495 256.066 404.272 256.104 404.013 256.104ZM404.212 255.37C404.465 255.37 404.681 255.32 404.861 255.22C405.043 255.12 405.18 254.989 405.274 254.828C405.37 254.665 405.418 254.49 405.418 254.304V253.698C405.385 253.731 405.322 253.762 405.228 253.79C405.136 253.817 405.031 253.84 404.913 253.861C404.795 253.879 404.679 253.896 404.567 253.913C404.455 253.927 404.361 253.939 404.286 253.949C404.108 253.972 403.946 254.01 403.799 254.063C403.654 254.116 403.538 254.192 403.45 254.292C403.364 254.39 403.322 254.521 403.322 254.684C403.322 254.91 403.405 255.082 403.573 255.198C403.74 255.312 403.953 255.37 404.212 255.37ZM407.798 256V249.732H408.713V252.061H408.768C408.821 251.963 408.898 251.85 408.998 251.721C409.098 251.593 409.236 251.481 409.414 251.385C409.591 251.287 409.826 251.238 410.118 251.238C410.497 251.238 410.836 251.334 411.134 251.526C411.432 251.717 411.665 251.994 411.835 252.355C412.006 252.716 412.092 253.151 412.092 253.659C412.092 254.167 412.007 254.602 411.838 254.966C411.668 255.327 411.436 255.605 411.14 255.801C410.844 255.995 410.506 256.092 410.127 256.092C409.841 256.092 409.608 256.044 409.426 255.948C409.246 255.852 409.106 255.74 409.004 255.611C408.902 255.483 408.823 255.369 408.768 255.269H408.692V256H407.798ZM408.695 253.65C408.695 253.98 408.743 254.27 408.838 254.519C408.934 254.768 409.073 254.962 409.255 255.103C409.436 255.242 409.659 255.311 409.922 255.311C410.195 255.311 410.424 255.239 410.607 255.094C410.791 254.947 410.93 254.748 411.024 254.497C411.12 254.246 411.167 253.964 411.167 253.65C411.167 253.339 411.121 253.061 411.027 252.814C410.935 252.567 410.796 252.372 410.61 252.229C410.427 252.087 410.197 252.015 409.922 252.015C409.657 252.015 409.432 252.084 409.249 252.22C409.067 252.357 408.929 252.548 408.835 252.793C408.741 253.037 408.695 253.323 408.695 253.65ZM414.207 249.732V256H413.292V249.732H414.207ZM417.636 256.095C417.173 256.095 416.774 255.996 416.44 255.798C416.107 255.598 415.85 255.318 415.668 254.956C415.489 254.593 415.399 254.168 415.399 253.68C415.399 253.199 415.489 252.774 415.668 252.407C415.85 252.04 416.103 251.753 416.427 251.547C416.754 251.341 417.135 251.238 417.572 251.238C417.837 251.238 418.094 251.282 418.343 251.369C418.592 251.457 418.816 251.595 419.014 251.783C419.211 251.97 419.368 252.214 419.482 252.514C419.596 252.812 419.653 253.174 419.653 253.601V253.925H415.916V253.239H418.756C418.756 252.999 418.708 252.785 418.61 252.6C418.512 252.412 418.374 252.264 418.196 252.156C418.021 252.048 417.815 251.994 417.578 251.994C417.321 251.994 417.097 252.057 416.905 252.184C416.715 252.308 416.568 252.471 416.464 252.673C416.362 252.873 416.311 253.09 416.311 253.325V253.861C416.311 254.175 416.366 254.442 416.476 254.663C416.589 254.883 416.745 255.051 416.945 255.168C417.145 255.282 417.378 255.339 417.646 255.339C417.819 255.339 417.977 255.314 418.12 255.265C418.263 255.214 418.386 255.139 418.49 255.039C418.594 254.939 418.674 254.816 418.729 254.669L419.595 254.825C419.526 255.08 419.401 255.303 419.222 255.495C419.044 255.685 418.821 255.833 418.551 255.939C418.284 256.043 417.979 256.095 417.636 256.095ZM424.364 252.447L423.534 252.594C423.5 252.488 423.444 252.387 423.369 252.291C423.295 252.195 423.195 252.116 423.069 252.055C422.942 251.994 422.784 251.963 422.595 251.963C422.335 251.963 422.119 252.021 421.946 252.138C421.772 252.252 421.686 252.4 421.686 252.581C421.686 252.738 421.744 252.865 421.86 252.961C421.976 253.057 422.164 253.135 422.423 253.197L423.17 253.368C423.603 253.468 423.925 253.622 424.137 253.83C424.349 254.038 424.455 254.309 424.455 254.641C424.455 254.923 424.374 255.174 424.211 255.394C424.049 255.612 423.824 255.784 423.534 255.908C423.246 256.033 422.913 256.095 422.533 256.095C422.007 256.095 421.577 255.983 421.245 255.758C420.912 255.532 420.708 255.21 420.633 254.794L421.517 254.659C421.572 254.89 421.686 255.064 421.857 255.183C422.028 255.299 422.252 255.357 422.527 255.357C422.827 255.357 423.067 255.295 423.246 255.171C423.426 255.044 423.516 254.89 423.516 254.708C423.516 254.562 423.461 254.438 423.351 254.338C423.242 254.238 423.076 254.163 422.852 254.112L422.056 253.937C421.617 253.837 421.293 253.678 421.083 253.46C420.875 253.241 420.771 252.965 420.771 252.63C420.771 252.353 420.848 252.11 421.003 251.902C421.158 251.694 421.372 251.532 421.646 251.415C421.919 251.297 422.232 251.238 422.585 251.238C423.093 251.238 423.493 251.348 423.785 251.568C424.077 251.787 424.27 252.079 424.364 252.447Z" fill="white"/>
<path d="M143.398 41.9121V40.4007H152.404V41.9121H148.773V52.0371H147.023V41.9121H143.398ZM156.277 46.8553V52.0371H154.578V40.4007H156.254V44.7303H156.362C156.566 44.2606 156.879 43.8875 157.299 43.611C157.72 43.3345 158.269 43.1962 158.947 43.1962C159.545 43.1962 160.068 43.3193 160.515 43.5655C160.966 43.8117 161.314 44.1792 161.561 44.6678C161.811 45.1526 161.936 45.7587 161.936 46.486V52.0371H160.237V46.6905C160.237 46.0504 160.072 45.5542 159.742 45.2019C159.413 44.8458 158.955 44.6678 158.367 44.6678C157.966 44.6678 157.606 44.753 157.288 44.9235C156.974 45.0939 156.725 45.3439 156.544 45.6735C156.366 45.9992 156.277 46.3932 156.277 46.8553ZM168.284 52.2132C167.424 52.2132 166.684 52.0295 166.062 51.6621C165.445 51.2909 164.968 50.7701 164.631 50.0996C164.297 49.4254 164.131 48.6356 164.131 47.7303C164.131 46.8364 164.297 46.0485 164.631 45.3667C164.968 44.6848 165.437 44.1526 166.04 43.7701C166.646 43.3875 167.354 43.1962 168.165 43.1962C168.657 43.1962 169.134 43.2776 169.597 43.4405C170.059 43.6034 170.473 43.8591 170.841 44.2076C171.208 44.556 171.498 45.0087 171.71 45.5655C171.922 46.1185 172.028 46.7909 172.028 47.5826V48.1848H165.091V46.9121H170.364C170.364 46.4651 170.273 46.0693 170.091 45.7246C169.909 45.3761 169.653 45.1015 169.324 44.9007C168.998 44.7 168.615 44.5996 168.176 44.5996C167.699 44.5996 167.282 44.717 166.926 44.9519C166.574 45.1829 166.301 45.486 166.108 45.861C165.919 46.2322 165.824 46.6356 165.824 47.0712V48.0655C165.824 48.6489 165.926 49.1451 166.131 49.5542C166.339 49.9632 166.629 50.2757 167 50.4917C167.371 50.7038 167.805 50.8098 168.301 50.8098C168.623 50.8098 168.917 50.7644 169.182 50.6735C169.447 50.5788 169.676 50.4386 169.869 50.253C170.062 50.0674 170.21 49.8382 170.312 49.5655L171.92 49.8553C171.792 50.3288 171.561 50.7435 171.227 51.0996C170.898 51.4519 170.483 51.7265 169.983 51.9235C169.487 52.1167 168.92 52.2132 168.284 52.2132ZM179.907 52.0371H178.043L182.231 40.4007H184.259L188.447 52.0371H186.583L183.293 42.5144H183.202L179.907 52.0371ZM180.219 47.4803H186.265V48.9576H180.219V47.4803ZM193.437 52.2076C192.733 52.2076 192.104 52.0276 191.551 51.6678C191.002 51.3042 190.57 50.7871 190.255 50.1167C189.945 49.4424 189.789 48.6337 189.789 47.6905C189.789 46.7473 189.947 45.9405 190.261 45.2701C190.579 44.5996 191.015 44.0864 191.568 43.7303C192.121 43.3742 192.748 43.1962 193.449 43.1962C193.99 43.1962 194.426 43.2871 194.755 43.4689C195.089 43.647 195.346 43.8553 195.528 44.0939C195.714 44.3326 195.858 44.5428 195.96 44.7246H196.062V40.4007H197.761V52.0371H196.102V50.6792H195.96C195.858 50.8648 195.71 51.0769 195.517 51.3155C195.327 51.5542 195.066 51.7625 194.733 51.9405C194.399 52.1185 193.968 52.2076 193.437 52.2076ZM193.812 50.7587C194.301 50.7587 194.714 50.6299 195.051 50.3723C195.392 50.111 195.649 49.7492 195.824 49.2871C196.002 48.825 196.091 48.2871 196.091 47.6735C196.091 47.0674 196.004 46.5371 195.829 46.0826C195.655 45.628 195.399 45.2739 195.062 45.0201C194.725 44.7663 194.308 44.6394 193.812 44.6394C193.301 44.6394 192.875 44.772 192.534 45.0371C192.193 45.3023 191.935 45.664 191.761 46.1223C191.591 46.5807 191.505 47.0977 191.505 47.6735C191.505 48.2568 191.593 48.7814 191.767 49.2473C191.941 49.7132 192.199 50.0826 192.539 50.3553C192.884 50.6242 193.308 50.7587 193.812 50.7587ZM207.972 43.3098L204.807 52.0371H202.989L199.818 43.3098H201.642L203.852 50.0257H203.943L206.148 43.3098H207.972ZM212.178 52.2303C211.625 52.2303 211.125 52.128 210.678 51.9235C210.231 51.7151 209.877 51.414 209.616 51.0201C209.358 50.6261 209.229 50.1432 209.229 49.5712C209.229 49.0788 209.324 48.6735 209.513 48.3553C209.703 48.0371 209.958 47.7852 210.28 47.5996C210.602 47.414 210.962 47.2739 211.36 47.1792C211.758 47.0845 212.163 47.0125 212.576 46.9632C213.099 46.9026 213.523 46.8534 213.849 46.8155C214.174 46.7739 214.411 46.7076 214.559 46.6167C214.706 46.5257 214.78 46.378 214.78 46.1735V46.1337C214.78 45.6375 214.64 45.253 214.36 44.9803C214.083 44.7076 213.67 44.5712 213.121 44.5712C212.549 44.5712 212.099 44.6981 211.769 44.9519C211.443 45.2019 211.218 45.4803 211.093 45.7871L209.496 45.4235C209.686 44.8932 209.962 44.4651 210.326 44.1394C210.693 43.8098 211.116 43.5712 211.593 43.4235C212.07 43.272 212.572 43.1962 213.099 43.1962C213.447 43.1962 213.816 43.2379 214.206 43.3212C214.6 43.4007 214.968 43.5485 215.309 43.7644C215.653 43.9803 215.936 44.289 216.155 44.6905C216.375 45.0882 216.485 45.6053 216.485 46.2417V52.0371H214.826V50.8439H214.758C214.648 51.0636 214.483 51.2795 214.263 51.4917C214.044 51.7038 213.761 51.8799 213.417 52.0201C213.072 52.1602 212.659 52.2303 212.178 52.2303ZM212.547 50.8667C213.017 50.8667 213.419 50.7739 213.752 50.5882C214.089 50.4026 214.345 50.1602 214.519 49.861C214.697 49.5579 214.786 49.2341 214.786 48.8894V47.7644C214.725 47.825 214.608 47.8818 214.434 47.9348C214.263 47.9841 214.068 48.0276 213.849 48.0655C213.629 48.0996 213.415 48.1318 213.206 48.1621C212.998 48.1886 212.824 48.2114 212.684 48.2303C212.354 48.272 212.053 48.342 211.78 48.4405C211.511 48.539 211.295 48.681 211.133 48.8667C210.974 49.0485 210.894 49.2909 210.894 49.5939C210.894 50.0144 211.049 50.3326 211.36 50.5485C211.67 50.7606 212.066 50.8667 212.547 50.8667ZM220.767 46.8553V52.0371H219.068V43.3098H220.698V44.7303H220.806C221.007 44.2682 221.321 43.897 221.749 43.6167C222.181 43.3364 222.725 43.1962 223.38 43.1962C223.975 43.1962 224.496 43.3212 224.943 43.5712C225.39 43.8174 225.736 44.1848 225.982 44.6735C226.229 45.1621 226.352 45.7663 226.352 46.486V52.0371H224.653V46.6905C224.653 46.0579 224.488 45.5636 224.159 45.2076C223.829 44.8477 223.376 44.6678 222.801 44.6678C222.407 44.6678 222.056 44.753 221.749 44.9235C221.446 45.0939 221.206 45.3439 221.028 45.6735C220.854 45.9992 220.767 46.3932 220.767 46.8553ZM233.024 43.3098V44.6735H228.257V43.3098H233.024ZM229.535 41.2189H231.234V49.4746C231.234 49.8042 231.284 50.0523 231.382 50.2189C231.48 50.3818 231.607 50.4935 231.763 50.5542C231.922 50.611 232.094 50.6394 232.28 50.6394C232.416 50.6394 232.535 50.6299 232.638 50.611C232.74 50.592 232.819 50.5769 232.876 50.5655L233.183 51.9689C233.085 52.0068 232.944 52.0447 232.763 52.0826C232.581 52.1242 232.354 52.147 232.081 52.1507C231.634 52.1583 231.217 52.0788 230.831 51.9121C230.444 51.7454 230.132 51.4879 229.893 51.1394C229.655 50.7909 229.535 50.3534 229.535 49.8269V41.2189ZM237.763 52.2303C237.21 52.2303 236.71 52.128 236.263 51.9235C235.816 51.7151 235.462 51.414 235.201 51.0201C234.943 50.6261 234.814 50.1432 234.814 49.5712C234.814 49.0788 234.909 48.6735 235.098 48.3553C235.288 48.0371 235.543 47.7852 235.865 47.5996C236.187 47.414 236.547 47.2739 236.945 47.1792C237.343 47.0845 237.748 47.0125 238.161 46.9632C238.684 46.9026 239.108 46.8534 239.434 46.8155C239.759 46.7739 239.996 46.7076 240.144 46.6167C240.291 46.5257 240.365 46.378 240.365 46.1735V46.1337C240.365 45.6375 240.225 45.253 239.945 44.9803C239.668 44.7076 239.255 44.5712 238.706 44.5712C238.134 44.5712 237.684 44.6981 237.354 44.9519C237.028 45.2019 236.803 45.4803 236.678 45.7871L235.081 45.4235C235.271 44.8932 235.547 44.4651 235.911 44.1394C236.278 43.8098 236.701 43.5712 237.178 43.4235C237.655 43.272 238.157 43.1962 238.684 43.1962C239.032 43.1962 239.401 43.2379 239.791 43.3212C240.185 43.4007 240.553 43.5485 240.894 43.7644C241.238 43.9803 241.521 44.289 241.74 44.6905C241.96 45.0882 242.07 45.6053 242.07 46.2417V52.0371H240.411V50.8439H240.343C240.233 51.0636 240.068 51.2795 239.848 51.4917C239.629 51.7038 239.346 51.8799 239.002 52.0201C238.657 52.1602 238.244 52.2303 237.763 52.2303ZM238.132 50.8667C238.602 50.8667 239.004 50.7739 239.337 50.5882C239.674 50.4026 239.93 50.1602 240.104 49.861C240.282 49.5579 240.371 49.2341 240.371 48.8894V47.7644C240.31 47.825 240.193 47.8818 240.019 47.9348C239.848 47.9841 239.653 48.0276 239.434 48.0655C239.214 48.0996 239 48.1318 238.791 48.1621C238.583 48.1886 238.409 48.2114 238.269 48.2303C237.939 48.272 237.638 48.342 237.365 48.4405C237.096 48.539 236.88 48.681 236.718 48.8667C236.559 49.0485 236.479 49.2909 236.479 49.5939C236.479 50.0144 236.634 50.3326 236.945 50.5485C237.255 50.7606 237.651 50.8667 238.132 50.8667ZM248.312 55.4917C247.619 55.4917 247.022 55.4007 246.522 55.2189C246.026 55.0371 245.62 54.7966 245.306 54.4973C244.992 54.1981 244.757 53.8704 244.602 53.5144L246.062 52.9121C246.164 53.0788 246.3 53.2549 246.471 53.4405C246.645 53.6299 246.88 53.7909 247.175 53.9235C247.475 54.056 247.859 54.1223 248.329 54.1223C248.973 54.1223 249.505 53.9651 249.925 53.6507C250.346 53.3401 250.556 52.8439 250.556 52.1621V50.4462H250.448C250.346 50.6318 250.198 50.8382 250.005 51.0655C249.816 51.2928 249.554 51.4898 249.221 51.6564C248.888 51.8231 248.454 51.9064 247.92 51.9064C247.23 51.9064 246.609 51.7454 246.056 51.4235C245.507 51.0977 245.071 50.6185 244.749 49.986C244.431 49.3496 244.272 48.5674 244.272 47.6394C244.272 46.7114 244.429 45.9159 244.744 45.253C245.062 44.5901 245.497 44.0826 246.05 43.7303C246.603 43.3742 247.23 43.1962 247.931 43.1962C248.473 43.1962 248.91 43.2871 249.244 43.4689C249.577 43.647 249.836 43.8553 250.022 44.0939C250.211 44.3326 250.357 44.5428 250.459 44.7246H250.584V43.3098H252.249V52.2303C252.249 52.9803 252.075 53.5958 251.727 54.0769C251.378 54.5579 250.906 54.914 250.312 55.1451C249.721 55.3761 249.054 55.4917 248.312 55.4917ZM248.295 50.4973C248.783 50.4973 249.196 50.3837 249.533 50.1564C249.874 49.9254 250.132 49.5958 250.306 49.1678C250.484 48.736 250.573 48.2189 250.573 47.6167C250.573 47.0295 250.486 46.5125 250.312 46.0655C250.138 45.6185 249.882 45.2701 249.545 45.0201C249.208 44.7663 248.791 44.6394 248.295 44.6394C247.783 44.6394 247.357 44.772 247.016 45.0371C246.675 45.2985 246.418 45.6545 246.244 46.1053C246.073 46.556 245.988 47.0598 245.988 47.6167C245.988 48.1886 246.075 48.6905 246.249 49.1223C246.424 49.5542 246.681 49.8913 247.022 50.1337C247.367 50.3761 247.791 50.4973 248.295 50.4973ZM258.609 52.2132C257.749 52.2132 257.009 52.0295 256.387 51.6621C255.77 51.2909 255.293 50.7701 254.956 50.0996C254.622 49.4254 254.456 48.6356 254.456 47.7303C254.456 46.8364 254.622 46.0485 254.956 45.3667C255.293 44.6848 255.762 44.1526 256.365 43.7701C256.971 43.3875 257.679 43.1962 258.49 43.1962C258.982 43.1962 259.459 43.2776 259.922 43.4405C260.384 43.6034 260.798 43.8591 261.166 44.2076C261.533 44.556 261.823 45.0087 262.035 45.5655C262.247 46.1185 262.353 46.7909 262.353 47.5826V48.1848H255.416V46.9121H260.689C260.689 46.4651 260.598 46.0693 260.416 45.7246C260.234 45.3761 259.978 45.1015 259.649 44.9007C259.323 44.7 258.94 44.5996 258.501 44.5996C258.024 44.5996 257.607 44.717 257.251 44.9519C256.899 45.1829 256.626 45.486 256.433 45.861C256.244 46.2322 256.149 46.6356 256.149 47.0712V48.0655C256.149 48.6489 256.251 49.1451 256.456 49.5542C256.664 49.9632 256.954 50.2757 257.325 50.4917C257.696 50.7038 258.13 50.8098 258.626 50.8098C258.948 50.8098 259.242 50.7644 259.507 50.6735C259.772 50.5788 260.001 50.4386 260.194 50.253C260.387 50.0674 260.535 49.8382 260.637 49.5655L262.245 49.8553C262.117 50.3288 261.886 50.7435 261.552 51.0996C261.223 51.4519 260.808 51.7265 260.308 51.9235C259.812 52.1167 259.245 52.2132 258.609 52.2132ZM271.098 45.4405L269.558 45.7132C269.494 45.5163 269.392 45.3288 269.251 45.1507C269.115 44.9727 268.93 44.8269 268.695 44.7132C268.46 44.5996 268.166 44.5428 267.814 44.5428C267.333 44.5428 266.931 44.6507 266.609 44.8667C266.287 45.0788 266.126 45.3534 266.126 45.6905C266.126 45.9822 266.234 46.217 266.45 46.3951C266.666 46.5731 267.015 46.7189 267.496 46.8326L268.882 47.1507C269.685 47.3364 270.284 47.6223 270.678 48.0087C271.072 48.3951 271.269 48.897 271.269 49.5144C271.269 50.0371 271.117 50.503 270.814 50.9121C270.515 51.3174 270.096 51.6356 269.558 51.8667C269.024 52.0977 268.405 52.2132 267.7 52.2132C266.723 52.2132 265.926 52.0049 265.308 51.5882C264.691 51.1678 264.312 50.5712 264.172 49.7985L265.814 49.5485C265.916 49.9765 266.126 50.3004 266.445 50.5201C266.763 50.736 267.178 50.8439 267.689 50.8439C268.246 50.8439 268.691 50.7284 269.024 50.4973C269.358 50.2625 269.524 49.9765 269.524 49.6394C269.524 49.3667 269.422 49.1375 269.217 48.9519C269.017 48.7663 268.708 48.6261 268.291 48.5314L266.814 48.2076C266 48.022 265.397 47.7265 265.007 47.3212C264.621 46.9159 264.428 46.4026 264.428 45.7814C264.428 45.2663 264.572 44.8155 264.859 44.4292C265.147 44.0428 265.545 43.7417 266.053 43.5257C266.56 43.306 267.142 43.1962 267.797 43.1962C268.74 43.1962 269.483 43.4007 270.024 43.8098C270.566 44.2151 270.924 44.7587 271.098 45.4405ZM288.255 46.2189C288.255 47.4614 288.028 48.5295 287.573 49.4235C287.119 50.3136 286.496 50.9992 285.704 51.4803C284.916 51.9576 284.02 52.1962 283.016 52.1962C282.009 52.1962 281.109 51.9576 280.318 51.4803C279.53 50.9992 278.909 50.3117 278.454 49.4178C277.999 48.5239 277.772 47.4576 277.772 46.2189C277.772 44.9765 277.999 43.9102 278.454 43.0201C278.909 42.1261 279.53 41.4405 280.318 40.9632C281.109 40.4822 282.009 40.2417 283.016 40.2417C284.02 40.2417 284.916 40.4822 285.704 40.9632C286.496 41.4405 287.119 42.1261 287.573 43.0201C288.028 43.9102 288.255 44.9765 288.255 46.2189ZM286.516 46.2189C286.516 45.272 286.363 44.4746 286.056 43.8269C285.753 43.1754 285.337 42.6829 284.806 42.3496C284.28 42.0125 283.683 41.8439 283.016 41.8439C282.346 41.8439 281.748 42.0125 281.221 42.3496C280.695 42.6829 280.278 43.1754 279.971 43.8269C279.668 44.4746 279.516 45.272 279.516 46.2189C279.516 47.1659 279.668 47.9651 279.971 48.6167C280.278 49.2644 280.695 49.7568 281.221 50.0939C281.748 50.4273 282.346 50.5939 283.016 50.5939C283.683 50.5939 284.28 50.4273 284.806 50.0939C285.337 49.7568 285.753 49.2644 286.056 48.6167C286.363 47.9651 286.516 47.1659 286.516 46.2189ZM294.781 43.3098V44.6735H289.849V43.3098H294.781ZM291.202 52.0371V42.2985C291.202 41.753 291.321 41.3004 291.559 40.9405C291.798 40.5769 292.114 40.306 292.508 40.128C292.902 39.9462 293.33 39.8553 293.792 39.8553C294.133 39.8553 294.425 39.8837 294.667 39.9405C294.91 39.9935 295.09 40.0428 295.207 40.0882L294.809 41.4632C294.73 41.4405 294.628 41.414 294.503 41.3837C294.378 41.3496 294.226 41.3326 294.048 41.3326C293.635 41.3326 293.34 41.4348 293.162 41.6394C292.988 41.8439 292.9 42.1394 292.9 42.5257V52.0371H291.202ZM301.545 52.0371V40.4007H305.692C306.598 40.4007 307.348 40.5655 307.942 40.8951C308.537 41.2246 308.982 41.6754 309.278 42.2473C309.573 42.8155 309.721 43.4557 309.721 44.1678C309.721 44.8837 309.571 45.5276 309.272 46.0996C308.976 46.6678 308.53 47.1185 307.931 47.4519C307.336 47.7814 306.588 47.9462 305.687 47.9462H302.834V46.4576H305.528C306.1 46.4576 306.564 46.3591 306.92 46.1621C307.276 45.9614 307.537 45.6886 307.704 45.3439C307.87 44.9992 307.954 44.6072 307.954 44.1678C307.954 43.7284 307.87 43.3382 307.704 42.9973C307.537 42.6564 307.274 42.3894 306.914 42.1962C306.558 42.003 306.088 41.9064 305.505 41.9064H303.3V52.0371H301.545ZM314.424 52.2303C313.871 52.2303 313.371 52.128 312.924 51.9235C312.477 51.7151 312.123 51.414 311.862 51.0201C311.604 50.6261 311.475 50.1432 311.475 49.5712C311.475 49.0788 311.57 48.6735 311.76 48.3553C311.949 48.0371 312.205 47.7852 312.527 47.5996C312.849 47.414 313.208 47.2739 313.606 47.1792C314.004 47.0845 314.409 47.0125 314.822 46.9632C315.345 46.9026 315.769 46.8534 316.095 46.8155C316.421 46.7739 316.657 46.7076 316.805 46.6167C316.953 46.5257 317.027 46.378 317.027 46.1735V46.1337C317.027 45.6375 316.886 45.253 316.606 44.9803C316.33 44.7076 315.917 44.5712 315.368 44.5712C314.796 44.5712 314.345 44.6981 314.015 44.9519C313.689 45.2019 313.464 45.4803 313.339 45.7871L311.743 45.4235C311.932 44.8932 312.208 44.4651 312.572 44.1394C312.939 43.8098 313.362 43.5712 313.839 43.4235C314.316 43.272 314.818 43.1962 315.345 43.1962C315.693 43.1962 316.063 43.2379 316.453 43.3212C316.847 43.4007 317.214 43.5485 317.555 43.7644C317.9 43.9803 318.182 44.289 318.402 44.6905C318.621 45.0882 318.731 45.6053 318.731 46.2417V52.0371H317.072V50.8439H317.004C316.894 51.0636 316.729 51.2795 316.51 51.4917C316.29 51.7038 316.008 51.8799 315.663 52.0201C315.318 52.1602 314.905 52.2303 314.424 52.2303ZM314.794 50.8667C315.263 50.8667 315.665 50.7739 315.998 50.5882C316.335 50.4026 316.591 50.1602 316.765 49.861C316.943 49.5579 317.032 49.2341 317.032 48.8894V47.7644C316.972 47.825 316.854 47.8818 316.68 47.9348C316.51 47.9841 316.314 48.0276 316.095 48.0655C315.875 48.0996 315.661 48.1318 315.453 48.1621C315.244 48.1886 315.07 48.2114 314.93 48.2303C314.6 48.272 314.299 48.342 314.027 48.4405C313.758 48.539 313.542 48.681 313.379 48.8667C313.22 49.0485 313.14 49.2909 313.14 49.5939C313.14 50.0144 313.296 50.3326 313.606 50.5485C313.917 50.7606 314.313 50.8667 314.794 50.8667ZM322.075 55.3098C321.821 55.3098 321.59 55.289 321.382 55.2473C321.174 55.2095 321.018 55.1678 320.916 55.1223L321.325 53.7303C321.636 53.8136 321.912 53.8496 322.155 53.8382C322.397 53.8269 322.611 53.736 322.797 53.5655C322.986 53.3951 323.153 53.1167 323.297 52.7303L323.507 52.1507L320.314 43.3098H322.132L324.342 50.0826H324.433L326.643 43.3098H328.467L324.871 53.2019C324.704 53.6564 324.492 54.0409 324.234 54.3553C323.977 54.6735 323.67 54.9121 323.314 55.0712C322.958 55.2303 322.545 55.3098 322.075 55.3098ZM332.083 40.4007V52.0371H330.384V40.4007H332.083ZM338.364 52.2132C337.546 52.2132 336.832 52.0257 336.222 51.6507C335.613 51.2757 335.139 50.7511 334.802 50.0769C334.465 49.4026 334.296 48.6148 334.296 47.7132C334.296 46.8079 334.465 46.0163 334.802 45.3382C335.139 44.6602 335.613 44.1337 336.222 43.7587C336.832 43.3837 337.546 43.1962 338.364 43.1962C339.183 43.1962 339.897 43.3837 340.506 43.7587C341.116 44.1337 341.59 44.6602 341.927 45.3382C342.264 46.0163 342.433 46.8079 342.433 47.7132C342.433 48.6148 342.264 49.4026 341.927 50.0769C341.59 50.7511 341.116 51.2757 340.506 51.6507C339.897 52.0257 339.183 52.2132 338.364 52.2132ZM338.37 50.7871C338.9 50.7871 339.34 50.647 339.688 50.3667C340.037 50.0864 340.294 49.7132 340.461 49.2473C340.631 48.7814 340.717 48.2682 340.717 47.7076C340.717 47.1507 340.631 46.6394 340.461 46.1735C340.294 45.7038 340.037 45.3269 339.688 45.0428C339.34 44.7587 338.9 44.6167 338.37 44.6167C337.836 44.6167 337.393 44.7587 337.041 45.0428C336.692 45.3269 336.433 45.7038 336.262 46.1735C336.095 46.6394 336.012 47.1507 336.012 47.7076C336.012 48.2682 336.095 48.7814 336.262 49.2473C336.433 49.7132 336.692 50.0864 337.041 50.3667C337.393 50.647 337.836 50.7871 338.37 50.7871ZM347.189 52.2303C346.636 52.2303 346.136 52.128 345.689 51.9235C345.242 51.7151 344.888 51.414 344.626 51.0201C344.369 50.6261 344.24 50.1432 344.24 49.5712C344.24 49.0788 344.335 48.6735 344.524 48.3553C344.713 48.0371 344.969 47.7852 345.291 47.5996C345.613 47.414 345.973 47.2739 346.371 47.1792C346.768 47.0845 347.174 47.0125 347.586 46.9632C348.109 46.9026 348.533 46.8534 348.859 46.8155C349.185 46.7739 349.422 46.7076 349.569 46.6167C349.717 46.5257 349.791 46.378 349.791 46.1735V46.1337C349.791 45.6375 349.651 45.253 349.371 44.9803C349.094 44.7076 348.681 44.5712 348.132 44.5712C347.56 44.5712 347.109 44.6981 346.78 44.9519C346.454 45.2019 346.228 45.4803 346.103 45.7871L344.507 45.4235C344.696 44.8932 344.973 44.4651 345.336 44.1394C345.704 43.8098 346.126 43.5712 346.603 43.4235C347.081 43.272 347.583 43.1962 348.109 43.1962C348.458 43.1962 348.827 43.2379 349.217 43.3212C349.611 43.4007 349.978 43.5485 350.319 43.7644C350.664 43.9803 350.946 44.289 351.166 44.6905C351.386 45.0882 351.496 45.6053 351.496 46.2417V52.0371H349.836V50.8439H349.768C349.658 51.0636 349.494 51.2795 349.274 51.4917C349.054 51.7038 348.772 51.8799 348.427 52.0201C348.083 52.1602 347.67 52.2303 347.189 52.2303ZM347.558 50.8667C348.028 50.8667 348.429 50.7739 348.763 50.5882C349.1 50.4026 349.355 50.1602 349.53 49.861C349.708 49.5579 349.797 49.2341 349.797 48.8894V47.7644C349.736 47.825 349.619 47.8818 349.444 47.9348C349.274 47.9841 349.079 48.0276 348.859 48.0655C348.639 48.0996 348.425 48.1318 348.217 48.1621C348.009 48.1886 347.835 48.2114 347.694 48.2303C347.365 48.272 347.064 48.342 346.791 48.4405C346.522 48.539 346.306 48.681 346.143 48.8667C345.984 49.0485 345.905 49.2909 345.905 49.5939C345.905 50.0144 346.06 50.3326 346.371 50.5485C346.681 50.7606 347.077 50.8667 347.558 50.8667ZM357.345 52.2076C356.641 52.2076 356.012 52.0276 355.459 51.6678C354.91 51.3042 354.478 50.7871 354.164 50.1167C353.853 49.4424 353.698 48.6337 353.698 47.6905C353.698 46.7473 353.855 45.9405 354.169 45.2701C354.487 44.5996 354.923 44.0864 355.476 43.7303C356.029 43.3742 356.656 43.1962 357.357 43.1962C357.898 43.1962 358.334 43.2871 358.664 43.4689C358.997 43.647 359.254 43.8553 359.436 44.0939C359.622 44.3326 359.766 44.5428 359.868 44.7246H359.97V40.4007H361.669V52.0371H360.01V50.6792H359.868C359.766 50.8648 359.618 51.0769 359.425 51.3155C359.235 51.5542 358.974 51.7625 358.641 51.9405C358.307 52.1185 357.876 52.2076 357.345 52.2076ZM357.72 50.7587C358.209 50.7587 358.622 50.6299 358.959 50.3723C359.3 50.111 359.557 49.7492 359.732 49.2871C359.91 48.825 359.999 48.2871 359.999 47.6735C359.999 47.0674 359.912 46.5371 359.737 46.0826C359.563 45.628 359.307 45.2739 358.97 45.0201C358.633 44.7663 358.217 44.6394 357.72 44.6394C357.209 44.6394 356.783 44.772 356.442 45.0371C356.101 45.3023 355.843 45.664 355.669 46.1223C355.499 46.5807 355.414 47.0977 355.414 47.6735C355.414 48.2568 355.501 48.7814 355.675 49.2473C355.849 49.7132 356.107 50.0826 356.448 50.3553C356.792 50.6242 357.217 50.7587 357.72 50.7587Z" fill="white"/>
</svg>
