<svg width="102" height="102" viewBox="0 0 102 102" fill="none" xmlns="http://www.w3.org/2000/svg">
<circle cx="50.8926" cy="50.8887" r="50.2387" stroke="#229EFF" stroke-width="1.3"/>
<path d="M50.8945 0.650391C53.6061 0.650391 56.2478 1.96188 58.7129 4.45605C61.1803 6.95255 63.4328 10.598 65.3379 15.1553C69.147 24.2672 71.5176 36.9008 71.5176 50.8887C71.5176 64.8766 69.147 77.5101 65.3379 86.6221C63.4328 91.1793 61.1803 94.8248 58.7129 97.3213C56.2478 99.8155 53.6061 101.127 50.8945 101.127C48.1829 101.127 45.5413 99.8155 43.0762 97.3213C40.6088 94.8248 38.3563 91.1793 36.4512 86.6221C32.642 77.5101 30.2715 64.8766 30.2715 50.8887C30.2715 36.9008 32.642 24.2672 36.4512 15.1553C38.3563 10.598 40.6088 6.95255 43.0762 4.45605C45.5413 1.96188 48.1829 0.650391 50.8945 0.650391Z" stroke="#229EFF" stroke-width="1.3"/>
<path d="M101.127 50.8906C101.127 53.6022 99.8155 56.2439 97.3213 58.709C94.8248 61.1764 91.1793 63.4289 86.6221 65.334C77.5101 69.1431 64.8766 71.5137 50.8887 71.5137C36.9008 71.5137 24.2672 69.1431 15.1553 65.334C10.598 63.4289 6.95255 61.1764 4.45605 58.709C1.96188 56.2439 0.65039 53.6022 0.65039 50.8906C0.65039 48.179 1.96188 45.5374 4.45605 43.0723C6.95255 40.6049 10.598 38.3524 15.1553 36.4473C24.2672 32.6381 36.9008 30.2676 50.8887 30.2676C64.8766 30.2676 77.5101 32.6381 86.6221 36.4473C91.1793 38.3524 94.8248 40.6049 97.3213 43.0723C99.8155 45.5374 101.127 48.179 101.127 50.8906Z" stroke="#229EFF" stroke-width="1.3"/>
</svg>
