<svg width="74" height="67" viewBox="0 0 74 67" fill="none" xmlns="http://www.w3.org/2000/svg">
<path d="M36.7023 65.9347C39.7904 65.9347 42.2938 51.2643 42.2938 33.1673C42.2938 15.0704 39.7904 0.399902 36.7023 0.399902C33.6142 0.399902 31.1108 15.0704 31.1108 33.1673C31.1108 51.2643 33.6142 65.9347 36.7023 65.9347Z" stroke="#229EFF" stroke-width="0.8" stroke-miterlimit="10"/>
<path d="M50.0318 60.9813C52.2146 60.9813 53.9841 48.5276 53.9841 33.1652C53.9841 17.8028 52.2146 5.34912 50.0318 5.34912C47.8491 5.34912 46.0796 17.8028 46.0796 33.1652C46.0796 48.5276 47.8491 60.9813 50.0318 60.9813Z" stroke="#229EFF" stroke-width="0.8" stroke-miterlimit="10"/>
<path d="M23.3912 60.9813C25.574 60.9813 27.3435 48.5276 27.3435 33.1652C27.3435 17.8028 25.574 5.34912 23.3912 5.34912C21.2084 5.34912 19.439 17.8028 19.439 33.1652C19.439 48.5276 21.2084 60.9813 23.3912 60.9813Z" stroke="#229EFF" stroke-width="0.8" stroke-miterlimit="10"/>
<path d="M60.9897 52.8926C62.7781 52.8926 64.2279 44.0615 64.2279 33.1677C64.2279 22.274 62.7781 13.4429 60.9897 13.4429C59.2013 13.4429 57.7515 22.274 57.7515 33.1677C57.7515 44.0615 59.2013 52.8926 60.9897 52.8926Z" stroke="#229EFF" stroke-width="0.8" stroke-miterlimit="10"/>
<path d="M12.4194 52.8926C14.2078 52.8926 15.6576 44.0615 15.6576 33.1677C15.6576 22.274 14.2078 13.4429 12.4194 13.4429C10.631 13.4429 9.18115 22.274 9.18115 33.1677C9.18115 44.0615 10.631 52.8926 12.4194 52.8926Z" stroke="#229EFF" stroke-width="0.8" stroke-miterlimit="10"/>
<path d="M70.5134 35.6733C71.8964 35.6733 73.0175 34.5514 73.0175 33.1675C73.0175 31.7835 71.8964 30.6616 70.5134 30.6616C69.1304 30.6616 68.0093 31.7835 68.0093 33.1675C68.0093 34.5514 69.1304 35.6733 70.5134 35.6733Z" stroke="#229EFF" stroke-width="0.8" stroke-miterlimit="10"/>
<path d="M2.90399 35.6733C4.28697 35.6733 5.40809 34.5514 5.40809 33.1675C5.40809 31.7835 4.28697 30.6616 2.90399 30.6616C1.52102 30.6616 0.399902 31.7835 0.399902 33.1675C0.399902 34.5514 1.52102 35.6733 2.90399 35.6733Z" stroke="#229EFF" stroke-width="0.8" stroke-miterlimit="10"/>
</svg>
