<svg width="70" height="67" viewBox="0 0 70 67" fill="none" xmlns="http://www.w3.org/2000/svg">
<path d="M47.7437 22.1597V65.6597C59.7452 65.6597 69.4783 55.9197 69.4783 43.9097C69.4783 31.8997 59.7452 22.1597 47.7437 22.1597Z" stroke="#229EFF" stroke-width="0.8" stroke-miterlimit="10"/>
<path d="M47.7442 43.8999H4.2749C4.2749 55.9099 14.008 65.6499 26.0096 65.6499C38.0111 65.6499 47.7442 55.9099 47.7442 43.8999Z" stroke="#229EFF" stroke-width="0.8" stroke-miterlimit="10"/>
<path d="M22.1346 43.8999V0.399902C10.133 0.399902 0.399902 10.1399 0.399902 22.1499C0.399902 34.1599 10.133 43.8999 22.1346 43.8999Z" stroke="#229EFF" stroke-width="0.8" stroke-miterlimit="10"/>
<path d="M22.1343 22.1597H65.6036C65.6036 10.1497 55.8705 0.409668 43.8689 0.409668C31.8674 0.409668 22.1343 10.1497 22.1343 22.1597Z" stroke="#229EFF" stroke-width="0.8" stroke-miterlimit="10"/>
</svg>
