<svg width="66" height="66" viewBox="0 0 66 66" fill="none" xmlns="http://www.w3.org/2000/svg">
<path d="M54.5213 32.9002C60.5039 32.9002 65.3537 28.047 65.3537 22.0602C65.3537 16.0734 60.5039 11.2202 54.5213 11.2202C48.5388 11.2202 43.689 16.0734 43.689 22.0602C43.689 28.047 48.5388 32.9002 54.5213 32.9002Z" stroke="#229EFF" stroke-width="0.8" stroke-miterlimit="10"/>
<path d="M11.2323 32.9002C17.2148 32.9002 22.0646 28.047 22.0646 22.0602C22.0646 16.0734 17.2148 11.2202 11.2323 11.2202C5.24971 11.2202 0.399902 16.0734 0.399902 22.0602C0.399902 28.047 5.24971 32.9002 11.2323 32.9002Z" stroke="#229EFF" stroke-width="0.8" stroke-miterlimit="10"/>
<path d="M54.5213 54.5799C60.5039 54.5799 65.3537 49.7267 65.3537 43.7399C65.3537 37.7531 60.5039 32.8999 54.5213 32.8999C48.5388 32.8999 43.689 37.7531 43.689 43.7399C43.689 49.7267 48.5388 54.5799 54.5213 54.5799Z" stroke="#229EFF" stroke-width="0.8" stroke-miterlimit="10"/>
<path d="M11.2323 54.5799C17.2148 54.5799 22.0646 49.7267 22.0646 43.7399C22.0646 37.7531 17.2148 32.8999 11.2323 32.8999C5.24971 32.8999 0.399902 37.7531 0.399902 43.7399C0.399902 49.7267 5.24971 54.5799 11.2323 54.5799Z" stroke="#229EFF" stroke-width="0.8" stroke-miterlimit="10"/>
<path d="M43.7088 65.4002C49.6914 65.4002 54.5412 60.547 54.5412 54.5602C54.5412 48.5734 49.6914 43.7202 43.7088 43.7202C37.7263 43.7202 32.8765 48.5734 32.8765 54.5602C32.8765 60.547 37.7263 65.4002 43.7088 65.4002Z" stroke="#229EFF" stroke-width="0.8" stroke-miterlimit="10"/>
<path d="M43.7088 22.0799C49.6914 22.0799 54.5412 17.2267 54.5412 11.2399C54.5412 5.25314 49.6914 0.399902 43.7088 0.399902C37.7263 0.399902 32.8765 5.25314 32.8765 11.2399C32.8765 17.2267 37.7263 22.0799 43.7088 22.0799Z" stroke="#229EFF" stroke-width="0.8" stroke-miterlimit="10"/>
<path d="M22.0448 65.4002C28.0273 65.4002 32.8771 60.547 32.8771 54.5602C32.8771 48.5734 28.0273 43.7202 22.0448 43.7202C16.0622 43.7202 11.2124 48.5734 11.2124 54.5602C11.2124 60.547 16.0622 65.4002 22.0448 65.4002Z" stroke="#229EFF" stroke-width="0.8" stroke-miterlimit="10"/>
<path d="M22.0448 22.0799C28.0273 22.0799 32.8771 17.2267 32.8771 11.2399C32.8771 5.25314 28.0273 0.399902 22.0448 0.399902C16.0622 0.399902 11.2124 5.25314 11.2124 11.2399C11.2124 17.2267 16.0622 22.0799 22.0448 22.0799Z" stroke="#229EFF" stroke-width="0.8" stroke-miterlimit="10"/>
</svg>
