<svg width="24" height="25" viewBox="0 0 24 25" fill="none" xmlns="http://www.w3.org/2000/svg">
<mask id="path-1-inside-1_13138_12486" fill="white">
<path d="M23.7627 0L23.7617 6.06055V22.4033H17.7002V6.06055H1.35938V0H23.7627Z"/>
</mask>
<path d="M23.7627 0L24.7627 0.000161134L24.7629 -1H23.7627V0ZM23.7617 6.06055L22.7617 6.06039V6.06055H23.7617ZM23.7617 22.4033V23.4033H24.7617V22.4033H23.7617ZM17.7002 22.4033H16.7002V23.4033H17.7002V22.4033ZM17.7002 6.06055H18.7002V5.06055H17.7002V6.06055ZM1.35938 6.06055H0.359375V7.06055H1.35938V6.06055ZM1.35938 0V-1H0.359375V0H1.35938ZM23.7627 0L22.7627 -0.000161134L22.7617 6.06039L23.7617 6.06055L24.7617 6.06071L24.7627 0.000161134L23.7627 0ZM23.7617 6.06055H22.7617V22.4033H23.7617H24.7617V6.06055H23.7617ZM23.7617 22.4033V21.4033H17.7002V22.4033V23.4033H23.7617V22.4033ZM17.7002 22.4033H18.7002V6.06055H17.7002H16.7002V22.4033H17.7002ZM17.7002 6.06055V5.06055H1.35938V6.06055V7.06055H17.7002V6.06055ZM1.35938 6.06055H2.35938V0H1.35938H0.359375V6.06055H1.35938ZM1.35938 0V1H23.7627V0V-1H1.35938V0Z" fill="#229EFF" mask="url(#path-1-inside-1_13138_12486)"/>
<circle cx="8.16902" cy="16.4639" r="7.66902" stroke="#229EFF"/>
</svg>
