<svg width="38" height="27" viewBox="0 0 38 27" fill="none" xmlns="http://www.w3.org/2000/svg">
<path d="M18.5312 12.0933C13.4535 12.0933 8.87709 11.3949 5.58789 10.2798C3.94089 9.72137 2.64363 9.06716 1.76855 8.36572C0.888966 7.66056 0.5 6.96223 0.5 6.31006C0.500165 5.65802 0.889203 4.96036 1.76855 4.25537C2.64362 3.55394 3.94091 2.89972 5.58789 2.34131C8.87709 1.22615 13.4535 0.527832 18.5312 0.527832C23.609 0.527832 28.1854 1.22615 31.4746 2.34131C33.1216 2.89972 34.4189 3.55394 35.2939 4.25537C36.1733 4.96036 36.5623 5.65802 36.5625 6.31006C36.5625 6.96223 36.1735 7.66056 35.2939 8.36572C34.4189 9.06716 33.1216 9.72137 31.4746 10.2798C28.1854 11.3949 23.609 12.0933 18.5312 12.0933Z" stroke="#229EFF"/>
<path d="M18.7656 16.5C13.7122 16.5 9.1612 15.5575 5.89258 14.0557C2.58097 12.534 0.765625 10.5333 0.765625 8.5C0.765625 6.46666 2.58097 4.46599 5.89258 2.94434C9.1612 1.44253 13.7122 0.5 18.7656 0.5C23.819 0.5 28.37 1.44253 31.6387 2.94434C34.9503 4.46599 36.7656 6.46666 36.7656 8.5C36.7656 10.5333 34.9503 12.534 31.6387 14.0557C28.37 15.5575 23.819 16.5 18.7656 16.5Z" stroke="#229EFF"/>
<path d="M18.5312 20.9331C13.4858 20.9331 8.94243 19.7512 5.67773 17.8657C2.40002 15.9727 0.500184 13.4321 0.5 10.731C0.5 8.02971 2.39986 5.48832 5.67773 3.59521C8.94243 1.70978 13.4859 0.527832 18.5312 0.527832C23.5766 0.527832 28.1201 1.70978 31.3848 3.59521C34.6626 5.48832 36.5625 8.02971 36.5625 10.731C36.5623 13.4321 34.6625 15.9727 31.3848 17.8657C28.1201 19.7512 23.5767 20.9331 18.5312 20.9331Z" stroke="#229EFF"/>
<path d="M18.5312 25.7285C13.5053 25.7285 8.97632 24.2876 5.7168 21.9834C2.45601 19.6782 0.500044 16.5398 0.5 13.1279C0.5 9.71597 2.45597 6.57771 5.7168 4.27246C8.97633 1.96825 13.5052 0.527344 18.5312 0.527344C23.5573 0.527344 28.0862 1.96825 31.3457 4.27246C34.6065 6.57771 36.5625 9.71597 36.5625 13.1279C36.5625 16.5398 34.6065 19.6782 31.3457 21.9834C28.0862 24.2876 23.5572 25.7285 18.5312 25.7285Z" stroke="#229EFF"/>
</svg>
