<svg width="26" height="26" viewBox="0 0 26 26" fill="none" xmlns="http://www.w3.org/2000/svg">
<path d="M12.6406 24.7812C5.93554 24.7812 0.5 19.3457 0.5 12.6406C0.5 5.93554 5.93554 0.5 12.6406 0.5C19.3457 0.5 24.7812 5.93554 24.7812 12.6406C24.7812 15.5919 23.7282 18.2973 21.9773 20.4014" stroke="#229EFF"/>
<line x1="12.1406" y1="24.7813" x2="12.1406" y2="7.91927" stroke="#229EFF"/>
<line x1="12.3078" y1="13.692" x2="6.06889" y2="8.12754" stroke="#229EFF"/>
<line y1="-0.5" x2="8.35987" y2="-0.5" transform="matrix(-0.746295 0.665615 0.665615 0.746295 12.6406 13.48)" stroke="#229EFF"/>
<line y1="-0.5" x2="8.35987" y2="-0.5" transform="matrix(-0.746295 0.665615 0.665615 0.746295 18.8726 7.91553)" stroke="#229EFF"/>
<line x1="18.5398" y1="19.2564" x2="12.3008" y2="13.692" stroke="#229EFF"/>
<line x1="6.40869" y1="12.98" x2="18.8866" y2="12.98" stroke="#229EFF"/>
</svg>
