<svg width="20" height="28" viewBox="0 0 20 28" fill="none" xmlns="http://www.w3.org/2000/svg">
<mask id="path-1-inside-1_13138_12415" fill="white">
<path d="M1.54492 0C11.5508 6.5254e-05 19.6619 6.11269 19.6621 13.6533C19.6621 21.1941 11.5509 27.3076 1.54492 27.3076C1.02888 27.3076 0.517808 27.2897 0.0126953 27.2578C9.30157 26.6715 16.5977 20.8052 16.5977 13.6533C16.5975 6.50162 9.30146 0.635109 0.0126953 0.0488281C0.517796 0.0169537 1.02889 0 1.54492 0Z"/>
</mask>
<path d="M1.54492 0L1.54493 -1H1.54492V0ZM19.6621 13.6533H20.6621V13.6533L19.6621 13.6533ZM1.54492 27.3076V28.3076H1.54493L1.54492 27.3076ZM0.0126953 27.2578L-0.0502982 26.2598L-0.050286 28.2558L0.0126953 27.2578ZM16.5977 13.6533H17.5977V13.6533L16.5977 13.6533ZM0.0126953 0.0488281L-0.0502844 -0.949187L-0.0502966 1.04684L0.0126953 0.0488281ZM1.54492 0L1.54492 1C6.35128 1.00003 10.6644 2.46939 13.7538 4.79756C16.8427 7.12538 18.662 10.2663 18.6621 13.6533L19.6621 13.6533L20.6621 13.6533C20.662 9.49974 18.4257 5.814 14.9575 3.20033C11.4898 0.587024 6.74443 -0.999966 1.54493 -1L1.54492 0ZM19.6621 13.6533H18.6621C18.6621 17.0405 16.8428 20.1816 13.7539 22.5096C10.6645 24.838 6.35132 26.3076 1.54492 26.3076L1.54492 27.3076L1.54493 28.3076C6.74453 28.3076 11.4899 26.7204 14.9576 24.1068C18.4258 21.4929 20.6621 17.8069 20.6621 13.6533H19.6621ZM1.54492 27.3076V26.3076C1.052 26.3076 0.562042 26.2905 0.0756766 26.2598L0.0126953 27.2578L-0.050286 28.2558C0.473575 28.2889 1.00576 28.3076 1.54492 28.3076V27.3076ZM0.0126953 27.2578L0.0756888 28.2558C9.63233 27.6526 17.5977 21.5581 17.5977 13.6533H16.5977H15.5977C15.5977 20.0522 8.9708 25.6904 -0.0502982 26.2598L0.0126953 27.2578ZM16.5977 13.6533L17.5977 13.6533C17.5974 5.74864 9.63226 -0.346002 0.0756872 -0.949186L0.0126953 0.0488281L-0.0502966 1.04684C8.97066 1.61622 15.5975 7.25459 15.5977 13.6533L16.5977 13.6533ZM0.0126953 0.0488281L0.0756751 1.04684C0.560713 1.01623 1.05079 1 1.54492 1V0V-1C1.007 -1 0.47488 -0.982327 -0.0502844 -0.949187L0.0126953 0.0488281Z" fill="#0052FF" mask="url(#path-1-inside-1_13138_12415)"/>
<mask id="path-3-inside-2_13138_12415" fill="white">
<path d="M1.0625 4.24463C7.90837 4.24482 13.4577 8.42723 13.458 13.5864C13.458 18.7458 7.90855 22.929 1.0625 22.9292C0.708986 22.9292 0.358711 22.914 0.0126953 22.8921C6.36764 22.4905 11.3594 18.4795 11.3594 13.5864C11.3591 8.69355 6.36752 4.68134 0.0126953 4.27979C0.358674 4.25793 0.709025 4.24463 1.0625 4.24463Z"/>
</mask>
<path d="M1.0625 4.24463L1.06253 3.24463H1.0625V4.24463ZM13.458 13.5864H14.458V13.5864L13.458 13.5864ZM1.0625 22.9292V23.9292H1.06253L1.0625 22.9292ZM0.0126953 22.8921L-0.0503741 21.8941L-0.0503628 23.8901L0.0126953 22.8921ZM11.3594 13.5864H12.3594V13.5864L11.3594 13.5864ZM0.0126953 4.27979L-0.0503559 3.28177L-0.0503672 5.27779L0.0126953 4.27979ZM1.0625 4.24463L1.06247 5.24463C4.28883 5.24472 7.17154 6.23154 9.22548 7.7795C11.2789 9.3271 12.4579 11.3901 12.458 13.5865L13.458 13.5864L14.458 13.5864C14.4578 10.6236 12.862 8.01576 10.4292 6.1823C7.99693 4.34921 4.68204 3.24473 1.06253 3.24463L1.0625 4.24463ZM13.458 13.5864H12.458C12.458 15.7829 11.2791 17.8461 9.22561 19.394C7.17166 20.9421 4.28889 21.9291 1.06247 21.9292L1.0625 22.9292L1.06253 23.9292C4.68217 23.9291 7.99715 22.8244 10.4294 20.9911C12.8622 19.1574 14.458 16.5493 14.458 13.5864H13.458ZM1.0625 22.9292V21.9292C0.737078 21.9292 0.409251 21.9152 0.0757534 21.8941L0.0126953 22.8921L-0.0503628 23.8901C0.308171 23.9128 0.680895 23.9292 1.0625 23.9292V22.9292ZM0.0126953 22.8921L0.0757647 23.8901C6.69805 23.4716 12.3594 19.2327 12.3594 13.5864H11.3594H10.3594C10.3594 17.7262 6.03724 21.5094 -0.0503741 21.8941L0.0126953 22.8921ZM11.3594 13.5864L12.3594 13.5864C12.359 7.94043 6.69814 3.70023 0.0757578 3.28178L0.0126953 4.27979L-0.0503672 5.27779C6.0369 5.66244 10.3591 9.44666 10.3594 13.5865L11.3594 13.5864ZM0.0126953 4.27979L0.0757465 5.2778C0.404986 5.257 0.733925 5.24463 1.0625 5.24463V4.24463V3.24463C0.684125 3.24463 0.312362 3.25886 -0.0503559 3.28177L0.0126953 4.27979Z" fill="#0052FF" mask="url(#path-3-inside-2_13138_12415)"/>
<mask id="path-5-inside-3_13138_12415" fill="white">
<path d="M0.698242 7.43359C5.26238 7.43359 8.96283 10.2215 8.96289 13.6611C8.96289 17.1008 5.26242 19.8896 0.698242 19.8896C0.463026 19.8896 0.230238 19.8798 0 19.8652C4.2371 19.5979 7.56543 16.9234 7.56543 13.6611C7.56537 10.3989 4.2371 7.72341 0 7.45605C0.230214 7.44154 0.463051 7.43359 0.698242 7.43359Z"/>
</mask>
<path d="M0.698242 7.43359L0.698242 6.43359H0.698242V7.43359ZM8.96289 13.6611H9.96289V13.6611L8.96289 13.6611ZM0.698242 19.8896V20.8896H0.698242L0.698242 19.8896ZM0 19.8652L-0.0629795 18.8672L-0.0629352 20.8633L0 19.8652ZM7.56543 13.6611H8.56543V13.6611L7.56543 13.6611ZM0 7.45605L-0.0629286 6.45804L-0.0629728 8.45407L0 7.45605ZM0.698242 7.43359L0.698242 8.43359C2.78377 8.43359 4.63385 9.07177 5.94032 10.0562C7.2463 11.0402 7.96287 12.3247 7.96289 13.6612L8.96289 13.6611L9.96289 13.6611C9.96285 11.558 8.82916 9.72867 7.14387 8.45884C5.45906 7.18937 3.17684 6.43359 0.698242 6.43359L0.698242 7.43359ZM8.96289 13.6611H7.96289C7.96289 14.9977 7.2463 16.2824 5.94027 17.2667C4.63379 18.2513 2.78372 18.8896 0.698242 18.8896L0.698242 19.8896L0.698242 20.8896C3.17694 20.8896 5.45919 20.1336 7.14399 18.8639C8.82924 17.5938 9.96289 15.7643 9.96289 13.6611H8.96289ZM0.698242 19.8896V18.8896C0.490546 18.8896 0.279941 18.8809 0.0629352 18.8672L0 19.8652L-0.0629352 20.8633C0.180534 20.8786 0.435506 20.8896 0.698242 20.8896V19.8896ZM0 19.8652L0.0629795 20.8632C4.56748 20.579 8.56543 17.6767 8.56543 13.6611H7.56543H6.56543C6.56543 16.1701 3.90672 18.6167 -0.0629795 18.8672L0 19.8652ZM7.56543 13.6611L8.56543 13.6611C8.56536 9.64578 4.56773 6.74228 0.0629728 6.45804L0 7.45605L-0.0629728 8.45407C3.90647 8.70453 6.56538 11.152 6.56543 13.6612L7.56543 13.6611ZM0 7.45605L0.0629286 8.45407C0.273765 8.44078 0.485562 8.43359 0.698242 8.43359V7.43359V6.43359C0.44054 6.43359 0.186663 6.4423 -0.0629286 6.45804L0 7.45605Z" fill="#0052FF" mask="url(#path-5-inside-3_13138_12415)"/>
</svg>
