<svg width="196" height="44" viewBox="0 0 196 44" fill="none" xmlns="http://www.w3.org/2000/svg">
<mask id="mask0_13138_12497" style="mask-type:luminance" maskUnits="userSpaceOnUse" x="0" y="-1" width="196" height="45">
<path d="M195.603 -0.000427246H0V43.9996H195.603V-0.000427246Z" fill="white"/>
</mask>
<g mask="url(#mask0_13138_12497)">
<path d="M18.217 36.0376L5.71495 28.8257C5.56322 28.7347 5.46207 28.5729 5.46207 28.3908V17.2441C5.46207 17.0519 5.67448 16.9305 5.83632 17.0215L20.3513 25.3968C20.5535 25.5181 20.8064 25.3664 20.8064 25.1338V19.702C20.8064 19.4896 20.6952 19.2873 20.503 19.1761L3.0446 9.10158C2.89287 9.01055 2.69058 9.01055 2.53885 9.10158L0.252874 10.4267C0.10115 10.5177 0 10.6795 0 10.8616V31.5669C0 31.7489 0.10115 31.9108 0.252874 32.0018L18.1867 42.3595C18.3384 42.4506 18.5407 42.4506 18.6924 42.3595L33.7535 33.6607C33.9558 33.5393 33.9558 33.2561 33.7535 33.1347L29.0603 30.4239C28.8681 30.3126 28.6456 30.3126 28.4534 30.4239L18.7329 36.0376C18.5811 36.1287 18.3789 36.1287 18.2271 36.0376H18.217Z" fill="black"/>
<path d="M36.6217 10.4179L18.6879 0.0703361C18.5362 -0.0206988 18.3339 -0.0206988 18.1822 0.0703361L8.70444 5.54252C8.50216 5.6639 8.50216 5.94712 8.70444 6.0685L13.3573 8.75905C13.5495 8.87031 13.772 8.87031 13.9642 8.75905L18.2125 6.31126C18.3642 6.22022 18.5665 6.22022 18.7182 6.31126L31.2203 13.5232C31.372 13.6142 31.4732 13.7761 31.4732 13.9581V25.1554C31.4732 25.3678 31.5845 25.5701 31.7767 25.6813L36.4295 28.3618C36.6318 28.4832 36.8847 28.3315 36.8847 28.0988V10.863C36.8847 10.6809 36.7836 10.5191 36.6318 10.4281L36.6217 10.4179Z" fill="black"/>
<path d="M195.609 9.57973C195.609 11.542 194.111 12.9379 192.27 12.9379C190.429 12.9379 188.923 11.532 188.923 9.57973C188.923 7.62756 190.429 6.2317 192.27 6.2317C194.111 6.2317 195.609 7.63768 195.609 9.57973ZM195.144 9.57973C195.144 7.88044 193.869 6.66665 192.27 6.66665C190.673 6.66665 189.398 7.88044 189.398 9.57973C189.398 11.2791 190.673 12.503 192.27 12.503C193.869 12.503 195.144 11.2891 195.144 9.57973ZM190.865 11.2993V7.74895H192.493C193.353 7.74895 193.859 8.14346 193.859 8.91219C193.859 9.44824 193.555 9.78201 193.181 9.94389L193.98 11.3094H193.08L192.351 10.0754H191.704V11.3094H190.875L190.865 11.2993ZM192.372 9.41792C192.837 9.41792 193.019 9.25603 193.019 8.91219C193.019 8.56826 192.827 8.41653 192.372 8.41653H191.694V9.41792H192.372Z" fill="black"/>
<path d="M55.3488 25.1255V36.1811H49.8867V6.17009H62.2876C69.3883 6.17009 73.5152 9.40684 73.5152 15.668C73.5152 21.9291 69.3985 25.1255 62.3281 25.1255H55.3488ZM61.8223 20.7559C65.9391 20.7559 68.0026 19.0768 68.0026 15.668C68.0026 12.2593 65.9391 10.5802 61.8223 10.5802H55.3488V20.7559H61.8223Z" fill="black"/>
<path d="M86.9291 32.8224C85.9173 35.2602 83.2268 36.6459 79.828 36.6459C75.6707 36.6459 72.6362 34.3296 72.6362 30.4657C72.6362 26.1769 75.9944 24.417 80.3337 23.9112L86.7267 23.1931V22.1816C86.7267 19.5719 85.1283 18.3177 82.6902 18.3177C80.2528 18.3177 78.9075 19.6225 78.7355 21.5949H73.5668C74.0321 17.0128 77.6027 14.3223 82.8524 14.3223C88.6585 14.3223 91.9758 17.0533 91.9758 22.6064V30.8501C91.9758 32.8224 92.0569 34.4712 92.401 36.1907H87.2322C87.02 35.0174 86.9389 33.8745 86.9389 32.8326L86.9291 32.8224ZM86.7161 27.8965V26.5916L81.9618 27.1379C79.6965 27.4312 77.9668 27.937 77.9668 30.1623C77.9668 31.8414 79.1402 32.8933 81.2845 32.8933C84.0559 32.8933 86.7062 31.2547 86.7062 27.8864L86.7161 27.8965Z" fill="black"/>
<path d="M91.4258 14.8275H96.8879L102.815 30.9305H102.896L108.53 14.8275H113.871L105.546 36.5645C103.523 41.9052 101.045 43.9687 96.5536 44.0091C95.8359 44.0091 94.8339 43.9282 94.0753 43.7967V39.7204C94.7029 39.8519 95.047 39.8519 95.5017 39.8519C97.6866 39.8519 98.6067 39.0933 99.7504 36.1498L91.4258 14.8376V14.8275Z" fill="black"/>
<path d="M114.767 36.1811V6.17009H120.148V36.1811H114.767Z" fill="black"/>
<path d="M132.299 36.6885C125.997 36.6885 121.496 32.4403 121.496 25.5116C121.496 18.5828 125.997 14.3346 132.299 14.3346C138.6 14.3346 143.101 18.6233 143.101 25.5116C143.101 32.3998 138.6 36.6885 132.299 36.6885ZM132.299 32.6932C135.748 32.6932 137.72 30.0026 137.72 25.5015C137.72 21.0003 135.748 18.3098 132.299 18.3098C128.849 18.3098 126.877 21.0408 126.877 25.5015C126.877 29.9622 128.808 32.6932 132.299 32.6932Z" fill="black"/>
<path d="M157.979 32.8224C156.967 35.2602 154.276 36.6459 150.878 36.6459C146.72 36.6459 143.687 34.3296 143.687 30.4657C143.687 26.1769 147.045 24.417 151.384 23.9112L157.776 23.1931V22.1816C157.776 19.5719 156.178 18.3177 153.741 18.3177C151.302 18.3177 149.957 19.6225 149.785 21.5949H144.616C145.082 17.0128 148.653 14.3223 153.913 14.3223C159.718 14.3223 163.036 17.0533 163.036 22.6064V30.8501C163.036 32.8224 163.117 34.4712 163.461 36.1907H158.292C158.079 35.0174 157.999 33.8745 157.999 32.8326L157.979 32.8224ZM157.767 27.8965V26.5916L153.012 27.1379C150.746 27.4312 149.017 27.937 149.017 30.1623C149.017 31.8414 150.19 32.8933 152.335 32.8933C155.106 32.8933 157.756 31.2547 157.756 27.8864L157.767 27.8965Z" fill="black"/>
<path d="M180.558 32.7825C179.507 34.9269 176.937 36.697 173.7 36.697C168.107 36.697 164.284 32.1554 164.284 25.52C164.284 18.8846 168.107 14.3429 173.7 14.3429C177.018 14.3429 179.456 16.194 180.468 18.3384V6.17009H185.849V36.1811H180.548V32.7724L180.558 32.7825ZM180.609 25.1255C180.609 20.9682 178.636 18.2676 175.227 18.2676C171.819 18.2676 169.715 21.1301 169.715 25.4998C169.715 29.8694 171.738 32.732 175.227 32.732C178.718 32.732 180.609 30.0413 180.609 25.874V25.1154V25.1255Z" fill="black"/>
</g>
</svg>
