<svg width="224" height="55" viewBox="0 0 224 55" fill="none" xmlns="http://www.w3.org/2000/svg">
<path d="M0 43.5653H6.60112V26.1624H17.883C25.9844 26.1624 31.9254 22.4418 31.9254 13.4402C31.9254 4.43872 25.9844 0.658081 17.883 0.658081H0V43.5653ZM6.60112 20.4614V6.35904H17.583C22.5638 6.35904 25.0842 8.57942 25.0842 13.4402C25.0842 18.2411 22.5638 20.4614 17.583 20.4614H6.60112ZM43.3667 44.4055C48.3476 44.4055 51.8281 42.4251 53.8085 39.2446H53.9285C54.2886 42.7252 55.8488 43.8654 58.7893 43.8654C59.7495 43.8654 60.7696 43.7454 61.7898 43.5053V39.9047C61.4298 39.9647 61.2497 39.9647 61.0697 39.9647C59.9295 39.9647 59.6295 38.8245 59.6295 36.6041V22.5618C59.6295 14.6404 54.5886 12 48.2875 12C38.926 12 35.0853 16.6208 34.7853 22.5018H40.7863C41.0863 18.4211 42.7066 16.7408 48.0475 16.7408C52.5483 16.7408 53.8685 18.6011 53.8685 20.8215C53.8685 23.822 50.928 24.4221 46.1272 25.3222C38.5059 26.7625 33.345 28.8028 33.345 35.644C33.345 40.8649 37.2457 44.4055 43.3667 44.4055ZM39.4661 35.2239C39.4661 32.0434 41.7464 30.5431 47.1474 29.4629C50.2679 28.8028 52.9083 28.1427 53.8685 27.2426V31.6233C53.8685 36.9642 49.9678 39.6647 44.6869 39.6647C41.0263 39.6647 39.4661 38.1044 39.4661 35.2239ZM69.8087 54.3071C74.5495 54.3071 77.49 51.8467 80.4305 44.2854L92.5526 12.9602H86.3715L77.9701 36.3641H77.8501L68.9086 12.9602H62.4875L74.8496 43.2653C73.6494 48.0661 70.8889 49.2663 68.5485 49.2663C67.5884 49.2663 67.0483 49.2063 66.0281 49.0863V53.8871C67.5884 54.1871 68.4885 54.3071 69.8087 54.3071ZM96.1461 43.5653H102.027V0.658081H96.1461V43.5653ZM122.311 44.4655C131.852 44.4655 137.613 37.8043 137.613 28.2027C137.613 18.6611 131.852 12 122.371 12C112.769 12 107.008 18.7211 107.008 28.2627C107.008 37.8644 112.769 44.4655 122.311 44.4655ZM113.129 28.2627C113.129 21.8417 116.01 16.9208 122.371 16.9208C128.612 16.9208 131.492 21.8417 131.492 28.2627C131.492 34.6238 128.612 39.6047 122.371 39.6047C116.01 39.6047 113.129 34.6238 113.129 28.2627ZM151.08 44.4055C156.061 44.4055 159.542 42.4251 161.522 39.2446H161.642C162.002 42.7252 163.562 43.8654 166.503 43.8654C167.463 43.8654 168.483 43.7454 169.503 43.5053V39.9047C169.143 39.9647 168.963 39.9647 168.783 39.9647C167.643 39.9647 167.343 38.8245 167.343 36.6041V22.5618C167.343 14.6404 162.302 12 156.001 12C146.639 12 142.799 16.6208 142.499 22.5018H148.5C148.8 18.4211 150.42 16.7408 155.761 16.7408C160.262 16.7408 161.582 18.6011 161.582 20.8215C161.582 23.822 158.641 24.4221 153.841 25.3222C146.219 26.7625 141.059 28.8028 141.059 35.644C141.059 40.8649 144.959 44.4055 151.08 44.4055ZM147.18 35.2239C147.18 32.0434 149.46 30.5431 154.861 29.4629C157.981 28.8028 160.622 28.1427 161.582 27.2426V31.6233C161.582 36.9642 157.681 39.6647 152.4 39.6647C148.74 39.6647 147.18 38.1044 147.18 35.2239ZM186.389 44.4055C191.189 44.4055 194.13 42.1251 195.81 39.9647H195.93V43.5653H201.811V0.658081H195.93V16.6808H195.81C194.13 14.2804 191.189 12.06 186.389 12.06C178.587 12.06 172.646 18.181 172.646 28.2627C172.646 38.3444 178.587 44.4055 186.389 44.4055ZM178.767 28.2627C178.767 22.2617 181.588 16.9808 187.349 16.9808C192.63 16.9808 195.87 21.3016 195.87 28.2627C195.87 35.1639 192.63 39.5446 187.349 39.5446C181.588 39.5446 178.767 34.2638 178.767 28.2627Z" fill="white"/>
<path d="M217.457 0C213.922 0 211.083 2.60144 211.083 6.4101C211.083 10.1848 213.922 12.7692 217.457 12.7692C220.977 12.7692 223.818 10.1848 223.818 6.4101C223.818 2.60144 220.977 0 217.457 0ZM217.457 11.63C214.584 11.63 212.341 9.52162 212.341 6.4101C212.341 3.24756 214.584 1.1392 217.457 1.1392C220.382 1.1392 222.558 3.24756 222.558 6.4101C222.558 9.52162 220.382 11.63 217.457 11.63ZM217.663 6.97119L219.038 9.55562H220.585L219.023 6.68213C219.873 6.30808 220.246 5.62796 220.246 4.87984C220.246 3.11152 219.057 2.77148 217.05 2.77148H214.976V9.55562H216.369V6.97119H217.663ZM217.272 3.87665C218.206 3.87665 218.853 4.08069 218.853 4.89683C218.853 5.55994 218.409 5.90001 217.355 5.90001H216.369V3.87665H217.272Z" fill="white"/>
</svg>
