<svg width="224" height="36" viewBox="0 0 224 36" fill="none" xmlns="http://www.w3.org/2000/svg">
    <path
        d="M221.468 8.78751C219.897 6.0455 217.728 3.89873 214.962 2.34171C212.231 0.787448 209.174 0.00756836 205.793 0.00756836C202.412 0.00756836 199.336 0.803984 196.572 2.39407C193.805 3.98416 191.62 6.14746 190.013 8.88947C188.443 11.6287 187.657 14.638 187.657 17.9202C187.657 21.2023 188.443 24.2116 190.013 26.9509C191.62 29.6929 193.789 31.8562 196.52 33.4463C199.287 35.0364 202.343 35.8328 205.691 35.8328C209.039 35.8328 212.093 35.0364 214.86 33.4463C217.626 31.8562 219.812 29.6929 221.418 26.9509C223.022 24.1786 223.824 21.1334 223.824 17.8182C223.824 14.503 223.039 11.4937 221.468 8.78751ZM217.464 24.749C216.293 26.8241 214.658 28.4721 212.567 29.6957C210.505 30.8889 208.207 31.4869 205.669 31.4869C203.131 31.4869 200.835 30.8889 198.774 29.6957C196.746 28.5024 195.145 26.871 193.971 24.7986C192.797 22.7235 192.21 20.4335 192.21 17.9202C192.21 15.4069 192.797 13.1141 193.971 11.0417C195.145 8.96939 196.76 7.33795 198.821 6.1447C200.882 4.95144 203.197 4.35344 205.766 4.35344C208.334 4.35344 210.649 4.95144 212.707 6.1447C214.769 7.30488 216.37 8.906 217.511 10.948C218.685 12.9901 219.272 15.2829 219.272 17.8265C219.272 20.3701 218.668 22.6464 217.464 24.749Z"
        fill="white" />
    <path d="M184.462 0H150.698V8.47681H163.339V35.828H171.821V8.47681H184.462V0Z" fill="white" />
    <path
        d="M129.924 0C120.031 0 112.009 8.0221 112.009 17.9154C112.009 27.8087 120.031 35.8308 129.924 35.8308C139.817 35.8308 147.84 27.8087 147.84 17.9154C147.84 8.0221 139.817 0 129.924 0ZM129.924 27.3484C124.716 27.3484 120.491 23.1238 120.491 17.9154C120.491 12.7069 124.716 8.48231 129.924 8.48231C135.133 8.48231 139.357 12.7042 139.357 17.9154C139.357 23.1266 135.135 27.3484 129.924 27.3484Z"
        fill="white" />
    <path
        d="M88.3789 0H74.0708V35.8308H88.3789C98.7406 35.8308 107.168 27.7921 107.168 17.9154C107.168 8.03864 98.7406 0 88.3789 0ZM88.3789 27.3126H82.5531V8.51814H88.3789C94.042 8.51814 98.6497 12.7317 98.6497 17.9154C98.6497 23.099 94.042 27.3126 88.3789 27.3126Z"
        fill="white" />
    <path
        d="M69.2148 13.9994C69.2148 21.7156 62.9261 27.996 55.1988 27.996H53.4186V19.4779H55.1988C58.2302 19.4779 60.6939 17.0197 60.6939 13.9994C60.6939 10.9791 58.2302 8.52089 55.1988 8.52089H49.1664V35.8308H40.6841V0H55.1988C62.9261 0 69.2148 6.28044 69.2148 13.9994Z"
        fill="white" />
    <path
        d="M35.8142 17.2567V0H27.3484V17.9126C27.3484 23.1238 23.1238 27.3457 17.9154 27.3457C12.7042 27.3457 8.48232 23.1211 8.48232 17.9126V0H0.0523607C0.0248028 0 0 0.0248028 0 0.0523607V17.6894C0 27.5662 7.9036 35.7536 17.7803 35.828C27.737 35.9024 35.8308 27.8528 35.8308 17.9126C35.8308 17.6922 35.8225 17.4744 35.8142 17.254V17.2567Z"
        fill="white" />
    <path
        d="M210.706 21.0085C212.379 19.9006 213.479 18.046 213.479 15.9488C213.479 12.5647 210.621 9.81445 207.107 9.81445H199.871V26.024H204.015V22.0832H206.41L209.13 26.024H214.168L210.706 21.0085ZM207.107 18.0405H204.015V13.8572H207.107C208.392 13.8572 209.436 14.7969 209.436 15.9488C209.436 17.1008 208.392 18.0405 207.107 18.0405Z"
        fill="white" />
</svg>