<svg width="151" height="50" viewBox="0 0 151 50" fill="none" xmlns="http://www.w3.org/2000/svg">
<g clip-path="url(#clip0_13138_12367)">
<path d="M140.491 15.7272L132.183 13.7985L130.7 13.2051L92.5703 13.5018V31.8988L140.491 32.0471V15.7272Z" fill="black"/>
<path d="M124.903 30.266C125.142 29.6341 125.226 28.9543 125.148 28.2833C125.071 27.6123 124.834 26.9695 124.458 26.4086C124.071 25.9451 123.597 25.5624 123.063 25.2824C122.528 25.0023 121.943 24.8305 121.342 24.7766L95.5272 24.4799C95.3789 24.4799 95.2305 24.3315 95.0821 24.3315C95.0476 24.3056 95.0195 24.272 95.0002 24.2334C94.9809 24.1947 94.9709 24.1521 94.9709 24.109C94.9709 24.0658 94.9809 24.0232 95.0002 23.9845C95.0195 23.9459 95.0476 23.9123 95.0821 23.8864C95.2305 23.5897 95.3789 23.4413 95.6756 23.4413L121.639 23.1446C123.287 22.9617 124.857 22.3429 126.187 21.3521C127.517 20.3612 128.559 19.0339 129.206 17.5068L130.689 13.6494C130.689 13.501 130.838 13.3527 130.689 13.2043C129.883 9.61158 127.925 6.38036 125.115 4.00166C122.304 1.62295 118.793 0.226795 115.117 0.0253357C111.44 -0.176124 107.798 0.828129 104.745 2.88549C101.691 4.94286 99.392 7.94086 98.1977 11.4239C96.6473 10.3166 94.7561 9.79129 92.8567 9.94032C91.1135 10.1347 89.4883 10.9162 88.2481 12.1564C87.0079 13.3966 86.2264 15.0219 86.032 16.765C85.9332 17.6573 85.9833 18.5597 86.1804 19.4355C83.3599 19.5135 80.6811 20.6888 78.7139 22.7115C76.7467 24.7341 75.6462 27.4445 75.6466 30.266C75.6223 30.8142 75.6722 31.3632 75.795 31.898C75.8018 32.0138 75.8509 32.1231 75.9329 32.2051C76.015 32.2872 76.1242 32.3363 76.2401 32.3431H123.864C124.161 32.3431 124.458 32.1947 124.458 31.898L124.903 30.266Z" fill="white" fill-opacity="0.6"/>
<path d="M133.07 13.6484H132.329C132.18 13.6484 132.032 13.7968 131.883 13.9452L130.845 17.5059C130.606 18.1378 130.522 18.8176 130.6 19.4886C130.677 20.1596 130.914 20.8024 131.29 21.3633C131.677 21.8268 132.151 22.2095 132.685 22.4895C133.22 22.7695 133.805 22.9414 134.406 22.9953L139.895 23.292C140.043 23.292 140.192 23.4404 140.34 23.4404C140.375 23.4663 140.403 23.4999 140.422 23.5385C140.441 23.5771 140.451 23.6197 140.451 23.6629C140.451 23.7061 140.441 23.7487 140.422 23.7873C140.403 23.8259 140.375 23.8595 140.34 23.8855C140.192 24.1822 140.043 24.3305 139.747 24.3305L134.109 24.6273C132.461 24.8102 130.891 25.4289 129.561 26.4198C128.231 27.4107 127.189 28.7379 126.542 30.2651L126.246 31.6003C126.097 31.7487 126.246 32.0454 126.542 32.0454H146.126C146.187 32.054 146.248 32.0485 146.306 32.0292C146.364 32.0099 146.417 31.9773 146.46 31.9341C146.503 31.8909 146.536 31.8383 146.555 31.7804C146.574 31.7224 146.58 31.6608 146.571 31.6003C146.925 30.3433 147.124 29.048 147.165 27.7429C147.141 24.0121 145.649 20.4407 143.011 17.8026C140.373 15.1645 136.801 13.672 133.07 13.6484Z" fill="white" fill-opacity="0.6"/>
<path d="M149.105 40.355C148.84 40.355 148.582 40.2767 148.363 40.13C148.143 39.9832 147.972 39.7747 147.871 39.5307C147.77 39.2867 147.743 39.0182 147.795 38.7592C147.846 38.5002 147.974 38.2623 148.16 38.0756C148.347 37.8888 148.585 37.7616 148.844 37.7101C149.103 37.6586 149.372 37.685 149.616 37.7861C149.86 37.8872 150.068 38.0583 150.215 38.2779C150.361 38.4975 150.44 38.7556 150.44 39.0197C150.441 39.1953 150.407 39.3692 150.34 39.5316C150.273 39.6939 150.174 39.8414 150.05 39.9655C149.926 40.0897 149.779 40.188 149.616 40.2548C149.454 40.3217 149.28 40.3557 149.105 40.355ZM149.105 37.9812C148.899 37.9812 148.698 38.0421 148.528 38.1562C148.357 38.2703 148.224 38.4325 148.145 38.6223C148.066 38.8121 148.046 39.0209 148.086 39.2223C148.126 39.4238 148.225 39.6088 148.37 39.7541C148.515 39.8993 148.7 39.9982 148.902 40.0383C149.103 40.0784 149.312 40.0578 149.502 39.9792C149.692 39.9006 149.854 39.7675 149.968 39.5967C150.082 39.4259 150.143 39.2251 150.143 39.0197C150.146 38.8824 150.122 38.7459 150.071 38.6184C150.02 38.4909 149.943 38.375 149.846 38.2779C149.749 38.1808 149.633 38.1044 149.506 38.0534C149.378 38.0024 149.242 37.9778 149.105 37.9812ZM149.698 39.7615H149.401L149.105 39.3165H148.808V39.7615H148.511V38.4263H149.253C149.313 38.4176 149.375 38.4232 149.433 38.4425C149.491 38.4618 149.544 38.4944 149.587 38.5376C149.63 38.5807 149.662 38.6334 149.682 38.6913C149.701 38.7493 149.707 38.8109 149.698 38.8714C149.698 39.0197 149.55 39.1681 149.401 39.3165L149.698 39.7615ZM149.253 39.0197C149.401 39.0197 149.401 39.0197 149.401 38.8714C149.402 38.8518 149.398 38.8323 149.391 38.8141C149.384 38.7959 149.373 38.7794 149.359 38.7655C149.345 38.7517 149.328 38.7408 149.31 38.7334C149.292 38.7261 149.273 38.7226 149.253 38.723H148.808V39.1681H149.253V39.0197ZM16.1716 37.6845H19.4356V46.5862H25.0734V49.4051H16.1716V37.6845ZM28.4857 43.4706C28.4858 42.6465 28.6531 41.831 28.9775 41.0734C29.302 40.3159 29.7768 39.632 30.3732 39.0633C30.9697 38.4946 31.6753 38.0529 32.4474 37.7649C33.2196 37.4769 34.0421 37.3486 34.8653 37.3877C35.6808 37.351 36.4952 37.4821 37.258 37.7728C38.0208 38.0636 38.7157 38.5078 39.2999 39.0781C39.884 39.6483 40.3449 40.3324 40.6539 41.0879C40.963 41.8435 41.1136 42.6545 41.0965 43.4706C41.0965 44.2947 40.9292 45.1102 40.6047 45.8678C40.2803 46.6254 39.8055 47.3092 39.2091 47.8779C38.6126 48.4466 37.907 48.8883 37.1348 49.1763C36.3627 49.4643 35.5401 49.5926 34.717 49.5535C33.9046 49.5776 33.0957 49.4379 32.3386 49.1426C31.5814 48.8474 30.8915 48.4026 30.3099 47.8349C29.7284 47.2672 29.2672 46.5882 28.9537 45.8384C28.6403 45.0886 28.4812 44.2833 28.4857 43.4706ZM37.8326 43.4706C37.8616 43.0593 37.807 42.6464 37.672 42.2568C37.537 41.8672 37.3244 41.5091 37.047 41.204C36.7697 40.8989 36.4333 40.6532 36.0584 40.4818C35.6834 40.3104 35.2775 40.2168 34.8653 40.2066C34.0653 40.2457 33.311 40.591 32.7586 41.171C32.2062 41.751 31.8981 42.5213 31.8981 43.3222C31.8981 44.1232 32.2062 44.8935 32.7586 45.4735C33.311 46.0535 34.0653 46.3988 34.8653 46.4379C36.6457 46.7346 37.8326 45.251 37.8326 43.4706ZM45.1023 44.2124V37.6845H48.3663V44.2124C48.3663 45.8444 49.2565 46.7346 50.5918 46.7346C50.9036 46.7605 51.2173 46.7156 51.5093 46.6032C51.8014 46.4908 52.0642 46.3139 52.2782 46.0856C52.4923 45.8573 52.6519 45.5836 52.7452 45.2849C52.8386 44.9862 52.8632 44.6703 52.8172 44.3608V37.6845H56.0812V44.2124C56.0812 48.0698 53.8557 49.7018 50.5918 49.7018C47.1794 49.5535 45.1023 47.9215 45.1023 44.2124ZM60.9771 37.6845H65.5764C69.7305 37.6845 72.2527 40.0583 72.2527 43.4706C72.2527 46.8829 69.7305 49.4051 65.5764 49.4051H61.1255V37.6845H60.9771ZM65.5764 46.4379C65.9898 46.4773 66.407 46.43 66.801 46.2988C67.1951 46.1676 67.5574 45.9555 67.8647 45.6762C68.172 45.3968 68.4175 45.0563 68.5855 44.6765C68.7536 44.2967 68.8403 43.8859 68.8403 43.4706C68.8403 43.0553 68.7536 42.6446 68.5855 42.2647C68.4175 41.8849 68.172 41.5444 67.8647 41.265C67.5574 40.9857 67.1951 40.7736 66.801 40.6424C66.407 40.5113 65.9898 40.4639 65.5764 40.5034H64.2411V46.4379H65.5764ZM76.8519 37.6845H86.1988V40.5034H80.1159V42.4321H85.6053V45.1026H80.1159V49.4051H76.8519V37.6845ZM90.798 37.6845H94.062V46.5862H99.6998V49.4051H90.798V37.6845ZM108.156 37.5361H111.42L116.465 49.4051H112.904L112.014 47.328H107.415L106.524 49.4051H103.112L108.156 37.5361ZM111.124 44.8059L109.788 41.5419L108.453 44.8059H111.124ZM120.619 37.6845H126.108C126.809 37.6276 127.513 37.717 128.177 37.9468C128.841 38.1767 129.45 38.5421 129.966 39.0197C130.391 39.478 130.699 40.032 130.865 40.6347C131.031 41.2374 131.049 41.8712 130.918 42.4825C130.787 43.0937 130.511 43.6644 130.113 44.1463C129.714 44.6282 129.206 45.0071 128.631 45.251L131.449 49.4051H127.74L125.367 45.8444H123.883V49.4051H120.619V37.6845ZM125.96 43.3222C126.999 43.3222 127.74 42.7288 127.74 41.987C127.74 41.0968 126.999 40.6517 125.96 40.6517H123.883V43.4706H125.96V43.3222ZM135.604 37.6845H145.099V40.355H138.868V42.1353H144.505V44.8059H138.868V46.5862H145.247V49.4051H135.604V37.6845ZM9.05022 44.9542C8.82646 45.4786 8.45464 45.9262 7.98032 46.2425C7.50599 46.5587 6.94974 46.7297 6.37969 46.7346C5.57967 46.6955 4.82533 46.3502 4.27294 45.7702C3.72055 45.1902 3.41244 44.4199 3.41244 43.619C3.41244 42.818 3.72055 42.0477 4.27294 41.4677C4.82533 40.8877 5.57967 40.5424 6.37969 40.5034C6.98643 40.515 7.57652 40.7038 8.07736 41.0465C8.5782 41.3891 8.96792 41.8708 9.19858 42.4321H12.6109C12.319 41.0109 11.5328 39.7392 10.392 38.8428C9.25118 37.9465 7.82958 37.4835 6.37969 37.5361C5.55957 37.5094 4.74236 37.6464 3.97573 37.9389C3.20911 38.2315 2.50842 38.6737 1.91456 39.24C1.32069 39.8062 0.845552 40.4851 0.516854 41.2369C0.188157 41.9887 0.0124871 42.7985 9.55541e-05 43.619C-0.00447125 44.4317 0.154702 45.2369 0.468118 45.9868C0.781534 46.7366 1.24277 47.4156 1.82432 47.9833C2.40586 48.551 3.09579 48.9957 3.85295 49.291C4.61011 49.5863 5.41899 49.726 6.23133 49.7018C7.64887 49.7114 9.02956 49.2505 10.1571 48.3914C11.2847 47.5323 12.0955 46.3235 12.4626 44.9542H9.05022Z" fill="white" fill-opacity="0.6"/>
</g>
<defs>
<clipPath id="clip0_13138_12367">
<rect width="150.44" height="49.7015" fill="white"/>
</clipPath>
</defs>
</svg>
