<svg width="170" height="36" viewBox="0 0 170 36" fill="none" xmlns="http://www.w3.org/2000/svg">
<g clip-path="url(#clip0_13138_12373)">
<path fill-rule="evenodd" clip-rule="evenodd" d="M90.9545 16.857C95.0364 16.857 97.7834 20.0122 97.7834 24.7119V33.4494C97.7834 33.5597 97.6621 33.681 97.5517 33.681H93.536C93.4257 33.681 93.3044 33.5597 93.3044 33.4494V24.745C93.3044 22.9026 92.4218 20.972 89.9506 20.972H89.8734C87.9096 21.0933 86.4093 22.704 86.3651 24.6347V33.4494C86.3651 33.5597 86.2548 33.681 86.1335 33.681H82.1619C82.0516 33.681 81.9302 33.5597 81.9302 33.4494V17.2762C81.9302 17.1659 82.0074 17.0445 82.1619 17.0445H85.979C86.1004 17.0445 86.2107 17.1659 86.2107 17.2762V18.7435C87.7221 17.4307 89.2225 16.857 90.9545 16.857ZM154.103 27.9443C154.103 27.9002 154.103 27.9002 154.103 27.9002C154.18 27.823 154.334 27.823 154.411 27.9002C155.757 29.1358 157.456 29.7867 159.266 29.7867H159.376C160.534 29.7867 161.737 29.3233 161.737 28.4408C161.737 27.823 161.428 27.1279 158.99 26.9735C154.72 26.6646 152.326 24.8663 152.326 21.8987C152.282 20.2439 153.209 18.6994 154.676 17.894C155.989 17.1218 157.534 16.7356 159.111 16.7798C161.737 16.7798 163.469 17.3534 165.124 18.7435C165.245 18.8207 165.245 18.931 165.168 19.0524L162.884 21.7001C162.807 21.7773 162.652 21.7773 162.575 21.7001C161.693 20.9389 160.656 20.5859 159.188 20.5859C158.416 20.5859 156.684 20.7072 156.684 21.7773C156.684 22.0531 156.684 22.9798 159.266 23.1233C162.465 23.3218 166.128 24.1272 166.128 28.3635C166.128 29.0917 165.973 29.783 165.664 30.4376C164.704 32.4785 162.344 33.7141 159.188 33.7141C156.949 33.7141 154.367 33.4052 151.984 31.0223C151.907 30.9451 151.863 30.7906 151.94 30.7134L154.103 27.9443ZM112.589 17.2431C112.589 17.1218 112.699 17.0114 112.82 17.0114H116.792C116.902 17.0114 117.023 17.1218 117.023 17.2431V33.4052C117.023 33.5266 116.902 33.6369 116.792 33.6369H112.82C112.699 33.6369 112.589 33.5266 112.589 33.4052V32.1807C111.199 33.4824 109.544 33.4824 108.11 33.5266H107.878C105.495 33.5266 103.487 32.7543 102.064 31.3643C100.519 29.8639 99.714 27.7126 99.714 25.0539C99.714 20.0122 102.946 16.7025 107.955 16.7025H108.032C109.621 16.7025 111.276 16.857 112.589 17.9381V17.2431ZM111.739 27.9774C112.39 27.1279 112.743 26.0578 112.699 24.9767C112.699 22.9026 111.43 20.7403 108.385 20.7403C105.837 20.7403 104.182 22.4724 104.182 25.0098C104.182 27.5913 105.881 29.3233 108.385 29.3233C109.654 29.4006 110.845 28.9041 111.739 27.9774ZM63.0101 13.3157H53.0591C52.9046 13.3157 52.7943 13.426 52.7943 13.5804V18.5118C52.7943 18.6663 52.9046 18.7766 53.0591 18.7766H60.3072C60.4616 18.7766 60.583 18.8979 60.583 19.0524V22.9357C60.583 23.0902 60.4616 23.2115 60.3072 23.2115H53.0591C52.9046 23.2115 52.7943 23.3218 52.7943 23.4763V33.328C52.7943 33.4824 52.684 33.6038 52.5295 33.6038H48.6352C48.4807 33.6038 48.3594 33.4824 48.3594 33.328V9.11243C48.3594 8.96901 48.4807 8.84766 48.6352 8.84766H63.0432C63.1976 8.84766 63.319 8.96901 63.319 9.11243V13.0068C63.319 13.1612 63.1976 13.2715 63.0101 13.3157ZM150.672 31.1326C150.749 31.2098 150.749 31.3643 150.672 31.4415C149.204 32.9419 147.163 33.7913 145.045 33.7141C139.838 33.7141 136.484 30.4376 136.484 25.2083C136.484 19.9681 139.838 16.6584 145.045 16.6584C147.207 16.5812 149.204 17.3976 150.716 18.8979C150.793 18.9752 150.793 19.1296 150.716 19.2068L148.123 21.9318C148.046 22.009 147.891 22.009 147.814 21.9318C147.053 21.325 146.082 20.9389 145.078 20.9389C142.651 20.9389 140.952 22.6709 140.952 25.1642C140.952 27.6354 142.651 29.4006 145.078 29.4006C146.082 29.4006 147.053 29.0586 147.814 28.4077C147.891 28.3304 148.046 28.3635 148.123 28.4408L150.672 31.1326ZM125.198 33.6369C121.458 33.6369 119.34 31.4415 119.34 27.7016V13.5363C119.34 13.426 119.451 13.3157 119.572 13.3157H123.577C123.687 13.3157 123.808 13.426 123.808 13.5363V17.0445H127.394C127.548 17.0445 127.625 17.1549 127.625 17.2762V21.2809C127.625 21.4353 127.504 21.5126 127.394 21.5126H123.764V27.7016C123.764 28.9372 124.305 29.5109 125.463 29.555C125.739 29.555 127.008 29.555 127.427 29.555C127.581 29.555 127.658 29.6653 127.658 29.7867V33.4052C127.658 33.5155 127.548 33.6369 127.427 33.6369H125.198ZM75.1675 17.2321C75.1675 17.1218 75.2778 17.0114 75.3992 17.0114H79.3708C79.4811 17.0114 79.6024 17.0776 79.6024 17.2321V33.4052C79.6024 33.5155 79.4811 33.6369 79.3708 33.6369H75.3992C75.2778 33.6369 75.1675 33.5597 75.1675 33.4052V32.1696C73.7774 33.4824 72.1226 33.4824 70.6884 33.5155H70.4568C68.0738 33.5155 66.066 32.7543 64.6428 31.3643C63.0983 29.8639 62.293 27.7016 62.293 25.0539C62.293 20.0122 65.5254 16.7025 70.534 16.7025H70.6112C72.1999 16.7025 73.8547 16.857 75.1675 17.9271V17.2321ZM74.318 27.9774C74.9689 27.1279 75.3219 26.0468 75.2778 24.9767C75.2778 22.8916 74.0091 20.7403 70.9643 20.7403C68.4158 20.7403 66.761 22.4724 66.761 25.0098C66.761 27.5913 68.46 29.3233 70.9643 29.3233C72.1999 29.4006 73.4244 28.8931 74.318 27.9774ZM129.832 17.2211C129.832 17.0997 129.931 17.0004 130.052 17.0004H134.079C134.201 17.0004 134.3 17.0997 134.3 17.2211V33.4163C134.3 33.5376 134.201 33.6369 134.079 33.6369H130.052C129.931 33.6369 129.832 33.5376 129.832 33.4163V17.2211ZM129.677 12.1132C129.677 8.86972 134.609 8.86972 134.609 12.1132C134.609 15.3456 129.677 15.3456 129.677 12.1132Z" fill="white" fill-opacity="0.6"/>
<path fill-rule="evenodd" clip-rule="evenodd" d="M41.5722 4.19071L37.4462 10.6225C37.3689 10.7328 37.2145 10.81 37.06 10.7328C27.4621 5.92276 16.3968 14.7374 6.67751 12.6524C6.60028 12.6193 6.53409 12.5751 6.45686 12.509L0.0913116 2.84479C-0.030042 2.64621 0.0140866 2.38144 0.201633 2.26009C0.278858 2.18286 0.400212 2.18286 0.510533 2.18286C2.98173 2.76756 5.40881 3.15369 7.91311 3.41846C22.7624 4.22381 30.7386 -4.66811 41.495 3.76046C41.6494 3.83768 41.6494 4.03626 41.5722 4.19071ZM19.2873 23.7066C19.21 23.7397 19.1769 23.861 19.1769 23.9383L21.604 34.8711C21.604 34.9814 21.5268 35.1028 21.4496 35.1359C21.2951 35.2131 21.1407 35.1359 21.0634 35.0256L9.84373 17.7823C9.81064 17.7382 9.76651 17.661 9.76651 17.5837C9.76651 17.3521 9.95405 17.1204 10.1857 17.1204C20.556 16.8556 27.3407 12.0456 34.633 14.5389H34.6661C34.7874 14.583 34.7874 14.6933 34.7433 14.7705L29.7016 22.5923C29.6244 22.6696 29.5472 22.7027 29.4699 22.6696C26.4582 21.2464 20.0926 23.3977 19.2873 23.7066Z" fill="white" fill-opacity="0.6"/>
<path fill-rule="evenodd" clip-rule="evenodd" d="M167.506 16.736C166.69 16.736 166.039 16.0851 166.039 15.2798C166.039 14.4634 166.69 13.8125 167.506 13.8125C168.312 13.8125 168.974 14.4634 168.974 15.2798C168.974 16.0851 168.312 16.736 167.506 16.736ZM167.539 16.5043C168.201 16.5485 168.698 16.041 168.742 15.3901C168.742 15.3533 168.742 15.3166 168.742 15.2798C168.742 14.6178 168.201 14.0883 167.539 14.0883C166.889 14.0883 166.348 14.6178 166.348 15.2798C166.304 15.9307 166.767 16.4712 167.429 16.5043C167.466 16.5043 167.503 16.5043 167.539 16.5043ZM168.201 15.9748V16.0079H167.97L167.506 15.4673H167.197V16.0079H166.966V14.5075H167.661C167.892 14.4634 168.124 14.662 168.157 14.8937C168.201 15.1253 168.047 15.3901 167.771 15.4342L168.201 15.9748ZM167.242 14.7061V15.2356H167.705C167.859 15.2356 167.97 15.1253 167.97 14.9709C167.97 14.8164 167.859 14.7061 167.705 14.7061H167.242Z" fill="white" fill-opacity="0.6"/>
</g>
<defs>
<clipPath id="clip0_13138_12373">
<rect width="169.013" height="35.1926" fill="white"/>
</clipPath>
</defs>
</svg>
