<svg width="168" height="27" viewBox="0 0 168 27" fill="none" xmlns="http://www.w3.org/2000/svg">
<mask id="mask0_13138_12341" style="mask-type:luminance" maskUnits="userSpaceOnUse" x="0" y="0" width="168" height="27">
<path d="M167.773 0H0V26.18H167.773V0Z" fill="white"/>
</mask>
<g mask="url(#mask0_13138_12341)">
<path d="M126.823 22.9207C126.863 22.8866 126.873 22.8286 126.845 22.7844L124.428 18.6371C124.391 18.5736 124.304 18.5699 124.257 18.6251C122.761 20.3482 120.727 21.4444 118.243 21.1821C117 21.0505 115.993 20.2865 115.451 18.9942L126.829 16.2588C127.256 16.1575 127.222 16.0251 127.192 15.6007C127.098 14.2689 126.969 13.4681 126.546 12.3986C125.595 9.99643 123.948 8.30469 121.449 7.53523C118.722 6.69491 116.078 7.0916 113.525 8.24119C111.126 9.32082 109.406 11.0622 108.578 13.5924C107.915 15.6173 108.045 17.6385 108.702 19.6431C109.847 23.1425 112.29 25.1941 115.869 25.8347C119.507 26.4854 122.876 25.6552 125.929 23.5972C126.241 23.3864 126.541 23.1628 126.824 22.9234L126.823 22.9216V22.9207ZM117.69 11.6946C119.259 11.411 120.691 12.5386 120.998 14.3416C119.149 14.7475 117.298 15.1534 115.41 15.5666C114.998 13.7939 116.076 11.9854 117.69 11.6946Z" fill="white" fill-opacity="0.6"/>
<path d="M93.6999 22.5452C94.2958 23.5963 94.9006 24.4228 95.6928 24.988C97.0123 25.9315 98.6611 26.1827 100.513 25.7464C102.916 25.1822 104.489 23.6184 105.369 21.3994C106.623 18.235 106.618 15.0062 105.321 11.8594C104.358 9.5206 102.643 7.94859 100.048 7.51692C97.6541 7.11839 95.5018 8.07008 94.2721 10.0204C94.1691 10.1852 94.008 10.4457 93.8838 10.6426C93.6708 10.9795 93.508 11.2335 93.508 11.2335V0.134379C93.508 0.0579854 93.4472 0 93.3715 0H87.0035C86.927 0 86.8672 0.0616669 86.8672 0.13622V25.3783C86.8672 25.4546 86.9363 25.5145 87.0127 25.5145H92.0089C92.0678 25.5145 92.1198 25.4777 92.1392 25.4242L93.3592 21.9525C93.3592 21.9525 93.4279 22.062 93.5009 22.1845C93.5828 22.3244 93.6198 22.3971 93.7034 22.5443H93.6999V22.5452ZM96.0106 20.386C94.2509 20.062 93.2078 18.3703 93.2078 16.6841C93.2078 15.3735 93.8346 13.7499 95.3328 13.206C97.309 12.4862 99.2975 13.5548 99.7905 15.6008C100.206 17.3238 99.6224 19.0634 98.3486 19.9018C97.662 20.3538 96.8213 20.537 96.0106 20.3878V20.386Z" fill="white" fill-opacity="0.6"/>
<path d="M138.094 0.255918V25.2844C138.094 25.3995 138.187 25.4915 138.302 25.4915H144.177C144.293 25.4915 144.386 25.3995 144.386 25.2844V0.255918C144.386 0.140868 144.294 0.0488281 144.179 0.0488281H138.302C138.187 0.0488281 138.094 0.140868 138.094 0.255918Z" fill="white" fill-opacity="0.6"/>
<path d="M165.385 21.1019C166.36 19.065 166.524 16.9159 166.154 14.7318C165.626 11.6383 163.947 9.35941 161.029 8.11685C158.122 6.87891 155.125 6.84945 152.166 7.89135C149.44 8.85044 147.623 10.7722 146.753 13.5491C146.307 14.9711 146.209 16.4318 146.368 17.9017C146.672 20.7539 147.948 23.0559 150.401 24.6252C152.205 25.7793 154.216 26.1926 156.635 26.1779C157.713 26.2137 159.057 26.0021 160.355 25.5401C162.622 24.732 164.34 23.2934 165.385 21.1055V21.1019ZM155.685 20.7715C153.789 20.4539 152.833 18.58 152.816 16.7079C152.804 15.5215 153.17 14.3378 153.911 13.5481C155.579 11.7736 158.536 12.3672 159.39 14.6738C159.953 16.1897 159.928 17.7396 159.164 19.1847C158.477 20.4825 157.216 21.0282 155.686 20.7733L155.685 20.7715Z" fill="white" fill-opacity="0.6"/>
<path d="M135.472 0.0488281H129.598C129.484 0.0488281 129.391 0.141788 129.391 0.255919V25.2826C129.391 25.3967 129.484 25.4896 129.598 25.4896H135.472C135.588 25.4896 135.68 25.3967 135.68 25.2826V0.255919C135.68 0.141788 135.588 0.0488281 135.472 0.0488281Z" fill="white" fill-opacity="0.6"/>
<path d="M38.1457 23.4619L36.2599 19.0936C36.2295 19.0228 36.1374 19.0081 36.084 19.0651C34.3437 20.928 32.2194 21.6855 29.6714 21.1765C28.4596 20.9335 27.6226 20.0702 27.1972 18.8009C27.433 18.7623 27.618 18.7338 27.8003 18.7034C31.3888 18.1217 35.1245 17.4958 38.7157 16.9344C39.1697 16.8635 39.1807 16.7319 39.1604 16.2799C39.0914 14.6205 39.0186 14.3388 38.7645 13.3494C38.096 10.7594 36.5472 8.84768 34.014 7.84447C31.3233 6.77865 28.6236 6.98482 25.9597 7.96689C23.4891 8.87805 21.6603 10.5044 20.6631 12.9702C19.8795 14.9095 19.8684 16.8994 20.3455 18.9169C21.0462 21.8834 22.7699 24.0674 25.5922 25.1591C30.0306 26.8774 34.2286 26.2047 38.1043 23.5935C38.1466 23.565 38.1633 23.5088 38.1429 23.4619H38.1457ZM29.7203 11.655C31.2773 11.4727 32.6503 12.6655 32.8335 14.3996C30.968 14.7732 29.0996 15.1497 27.2 15.5326C26.9431 13.5132 28.0425 11.8537 29.722 11.6568L29.7203 11.655Z" fill="white" fill-opacity="0.6"/>
<path d="M55.8889 0.03125H50.0196C49.9055 0.03125 49.8125 0.12421 49.8125 0.23834V25.2853C49.8125 25.3994 49.9055 25.4923 50.0196 25.4923H55.8889C56.0031 25.4923 56.0962 25.3994 56.0962 25.2853V0.23834C56.0962 0.12421 56.0031 0.03125 55.8889 0.03125Z" fill="white" fill-opacity="0.6"/>
<path d="M6.58199 25.3208V16.2153C6.58936 15.5912 6.68696 14.9286 6.91717 14.3523C7.36561 13.2322 8.63909 12.668 9.84533 12.9359C10.837 13.1559 11.5341 13.9962 11.5498 15.2535V25.3198C11.5498 25.4349 11.6419 25.5251 11.757 25.5251H17.7947C17.9099 25.5251 18.0019 25.4312 18.0019 25.318L17.9633 12.1324C17.908 10.3256 17.0093 8.90907 15.3823 8.03103C13.4043 6.9652 10.1695 7.0324 8.13449 9.19445C6.91441 10.4922 6.57555 11.9262 6.57555 11.9262V0.248113C6.57555 0.133063 6.48347 0.0410224 6.36836 0.0410224H0.207183C0.092081 0.040102 0 0.133063 0 0.248113V25.3235C0 25.4386 0.092081 25.5307 0.207183 25.5307H6.37481C6.48991 25.5307 6.58199 25.4386 6.58199 25.3235V25.3208Z" fill="white" fill-opacity="0.6"/>
<path d="M47.098 0.0388184H41.2619C41.1477 0.0388184 41.0547 0.131779 41.0547 0.245909V25.2892C41.0547 25.4032 41.1477 25.4962 41.2619 25.4962H47.098C47.2122 25.4962 47.3052 25.4032 47.3052 25.2892V0.246829C47.3052 0.132699 47.2122 0.0397388 47.098 0.0397388V0.0388184Z" fill="white" fill-opacity="0.6"/>
<path d="M58.9457 12.6823C58.105 14.6611 57.9973 16.7321 58.3923 18.8288C58.8536 21.2733 60.1142 23.2117 62.2044 24.573C64.0277 25.7612 66.0728 26.1919 68.5277 26.1726C69.571 26.2094 70.8813 26.0042 72.1502 25.5643C74.4596 24.7626 76.2174 23.3194 77.2672 21.0874C78.2745 18.9456 78.4394 16.7008 77.9716 14.4108C77.3629 11.4305 75.6724 9.275 72.8491 8.08858C70.2045 6.97673 67.4724 6.90586 64.7238 7.67164C62.012 8.42913 60.0479 10.0868 58.9429 12.6823H58.9466H58.9457ZM71.3463 14.7173C71.9034 16.2222 71.8629 17.751 71.1088 19.1776C70.4236 20.4753 69.1538 21.0055 67.6087 20.7754C66.4136 20.5959 65.5001 19.6995 65.0866 18.5913C64.4983 17.0138 64.5986 14.8185 65.8159 13.5493C67.5314 11.7601 70.4789 12.3722 71.3463 14.7183V14.7173Z" fill="white" fill-opacity="0.6"/>
<path d="M167.382 23.8887L167.006 24.9398L166.631 23.8887H166.234V25.3089H166.519V24.289L166.859 25.3089H167.155L167.496 24.289V25.3089H167.774V23.8887H167.382Z" fill="white" fill-opacity="0.6"/>
<path d="M165 24.1317H165.365V25.3052H165.645V24.1317H166.012V23.8887H165V24.1317Z" fill="white" fill-opacity="0.6"/>
</g>
</svg>
