<svg width="170" height="36" viewBox="0 0 170 36" fill="none" xmlns="http://www.w3.org/2000/svg">
<g clip-path="url(#clip0_13138_12357)">
<path d="M169.019 16.2388V13.2664H165.328V8.64556L165.204 8.68381L161.737 9.74457L161.668 9.76534V13.2666H156.196V11.3161C156.196 10.4079 156.399 9.71285 156.8 9.24934C157.197 8.79139 157.766 8.55858 158.491 8.55858C159.012 8.55858 159.552 8.68136 160.095 8.9235L160.231 8.98432V5.85404L160.167 5.8305C159.66 5.64836 158.971 5.55664 158.117 5.55664C157.04 5.55664 156.062 5.79093 155.209 6.25526C154.355 6.72024 153.684 7.38403 153.213 8.22799C152.745 9.07097 152.507 10.0446 152.507 11.122V13.2664H149.937V16.2388H152.507V28.7607H156.196V16.2388H161.668V24.1962C161.668 27.4735 163.214 29.1343 166.263 29.1343C166.764 29.1343 167.291 29.0756 167.829 28.9607C168.377 28.8426 168.751 28.7247 168.97 28.5988L169.019 28.5701V25.5703L168.869 25.6695C168.669 25.8029 168.419 25.912 168.127 25.9931C167.833 26.0756 167.588 26.117 167.398 26.117C166.684 26.117 166.156 25.9246 165.828 25.5448C165.496 25.1615 165.328 24.4914 165.328 23.5539V16.2388H169.019ZM141.697 26.1175C140.358 26.1175 139.302 25.6734 138.558 24.7987C137.809 23.9196 137.43 22.6663 137.43 21.0738C137.43 19.4308 137.809 18.145 138.558 17.2503C139.303 16.3616 140.349 15.9105 141.667 15.9105C142.946 15.9105 143.965 16.3413 144.694 17.1916C145.427 18.0464 145.799 19.322 145.799 20.9841C145.799 22.6666 145.45 23.959 144.76 24.8236C144.074 25.6816 143.044 26.1175 141.697 26.1175ZM141.861 12.8932C139.306 12.8932 137.277 13.6418 135.83 15.1183C134.384 16.595 133.651 18.6385 133.651 21.1927C133.651 23.6186 134.366 25.5699 135.778 26.9915C137.19 28.4136 139.111 29.134 141.487 29.134C143.964 29.134 145.953 28.3749 147.399 26.8779C148.845 25.3826 149.578 23.3583 149.578 20.8639C149.578 18.4 148.891 16.4341 147.534 15.022C146.177 13.6093 144.268 12.8932 141.861 12.8932ZM127.702 12.8932C125.964 12.8932 124.526 13.3377 123.428 14.2142C122.323 15.0959 121.763 16.2523 121.763 17.6517C121.763 18.3791 121.884 19.0252 122.122 19.5733C122.361 20.1231 122.732 20.6072 123.225 21.0135C123.713 21.4165 124.468 21.8386 125.467 22.2681C126.308 22.6139 126.934 22.9064 127.332 23.137C127.721 23.3629 127.998 23.59 128.154 23.8112C128.305 24.0277 128.382 24.3239 128.382 24.6895C128.382 25.7305 127.602 26.237 125.998 26.237C125.403 26.237 124.725 26.1127 123.981 25.8678C123.243 25.6266 122.547 25.2734 121.916 24.8205L121.763 24.7106V28.2629L121.819 28.289C122.341 28.53 122.999 28.7332 123.775 28.8931C124.549 29.0532 125.253 29.1346 125.864 29.1346C127.75 29.1346 129.268 28.6879 130.377 27.8062C131.492 26.9184 132.057 25.7347 132.057 24.287C132.057 23.2426 131.753 22.3469 131.153 21.6246C130.557 20.9082 129.524 20.2504 128.082 19.6691C126.933 19.208 126.197 18.8253 125.894 18.5315C125.601 18.2476 125.452 17.8463 125.452 17.3379C125.452 16.8874 125.636 16.5264 126.012 16.234C126.392 15.9402 126.92 15.7908 127.583 15.7908C128.197 15.7908 128.826 15.8879 129.452 16.0782C130.077 16.2685 130.626 16.5234 131.084 16.8352L131.235 16.9382V13.5686L131.177 13.5437C130.754 13.3624 130.197 13.2072 129.519 13.0813C128.845 12.9563 128.234 12.8932 127.702 12.8932ZM112.144 26.1175C110.805 26.1175 109.749 25.6734 109.005 24.7987C108.257 23.9196 107.878 22.6666 107.878 21.0738C107.878 19.4308 108.257 18.145 109.006 17.2503C109.75 16.3616 110.796 15.9105 112.115 15.9105C113.394 15.9105 114.412 16.3413 115.142 17.1916C115.875 18.0464 116.247 19.322 116.247 20.9841C116.247 22.6666 115.897 23.959 115.207 24.8236C114.522 25.6816 113.492 26.1175 112.144 26.1175ZM112.309 12.8932C109.753 12.8932 107.724 13.6418 106.278 15.1183C104.832 16.595 104.098 18.6385 104.098 21.1927C104.098 23.6196 104.814 25.5699 106.226 26.9915C107.637 28.4136 109.558 29.134 111.935 29.134C114.411 29.134 116.401 28.3749 117.847 26.8779C119.293 25.3826 120.026 23.3583 120.026 20.8639C120.026 18.4 119.338 16.4341 117.981 15.022C116.624 13.6093 114.715 12.8932 112.309 12.8932ZM98.4974 15.9497V13.2664H94.8527V28.7604H98.4974V20.8346C98.4974 19.4869 98.8029 18.3797 99.4059 17.5435C100.001 16.7172 100.794 16.2984 101.763 16.2984C102.091 16.2984 102.46 16.3526 102.859 16.4596C103.254 16.5661 103.54 16.6817 103.709 16.8033L103.862 16.9143V13.2399L103.803 13.2146C103.464 13.0704 102.983 12.9976 102.376 12.9976C101.46 12.9976 100.64 13.2919 99.9382 13.8714C99.322 14.3806 98.8767 15.0789 98.5361 15.9497H98.4974ZM88.3258 12.8932C86.6538 12.8932 85.1624 13.2517 83.8938 13.9585C82.6226 14.6669 81.6395 15.6783 80.9707 16.9644C80.3048 18.2473 79.9667 19.7459 79.9667 21.4172C79.9667 22.8811 80.2945 24.2245 80.9424 25.4086C81.5907 26.5946 82.5082 27.5224 83.6697 28.1659C84.8295 28.8086 86.17 29.1345 87.6542 29.1345C89.3863 29.1345 90.8651 28.7882 92.0507 28.1053L92.0986 28.0778V24.7387L91.9455 24.8506C91.4084 25.2418 90.8082 25.5541 90.1624 25.779C89.5182 26.0038 88.9309 26.1175 88.4159 26.1175C86.9858 26.1175 85.8378 25.67 85.0044 24.7878C84.1693 23.9044 83.7458 22.664 83.7458 21.1031C83.7458 19.5324 84.1874 18.2601 85.0577 17.3213C85.9254 16.3853 87.0756 15.9105 88.4761 15.9105C89.674 15.9105 90.8414 16.3161 91.9458 17.1172L92.0986 17.2282V13.71L92.0493 13.6822C91.6337 13.4495 91.0668 13.2574 90.3631 13.1118C89.6624 12.9664 88.977 12.8932 88.3258 12.8932ZM77.4565 13.2666H73.8119V28.7604H77.4565V13.2666ZM75.6715 6.66612C75.0716 6.66612 74.5484 6.87033 74.1186 7.27498C73.687 7.68077 73.468 8.19169 73.468 8.79466C73.468 9.38815 73.6843 9.88976 74.1119 10.2848C74.5366 10.6786 75.0615 10.8782 75.6716 10.8782C76.2816 10.8782 76.8084 10.6786 77.2382 10.2854C77.6709 9.88976 77.8903 9.38832 77.8903 8.79466C77.8903 8.21278 77.6767 7.70709 77.2561 7.29133C76.8357 6.87637 76.3024 6.66612 75.6715 6.66612ZM66.5779 12.1234V28.7604H70.2974V7.14042H65.1494L58.606 23.1991L52.256 7.14042H46.8984V28.7602H50.3938V12.1218H50.5138L57.2192 28.7604H59.8571L66.4579 12.1234H66.5779Z" fill="white" fill-opacity="0.6"/>
<path d="M17.1454 17.0595H0V-0.0859375H17.1454V17.0595Z" fill="white" fill-opacity="0.6"/>
<path d="M36.0748 17.0595H18.9297V-0.0859375H36.0748V17.0595Z" fill="white" fill-opacity="0.6"/>
<path d="M17.1449 35.9988H0V18.8535H17.1449V35.9988Z" fill="white" fill-opacity="0.6"/>
<path d="M36.0748 35.9988H18.9297V18.8535H36.0748V35.9988Z" fill="white" fill-opacity="0.6"/>
</g>
<defs>
<clipPath id="clip0_13138_12357">
<rect width="169.013" height="35.9152" fill="white"/>
</clipPath>
</defs>
</svg>
